<ttFont>
    <TTGlyph name=".notdef" xMin="82" yMin="-220" xMax="552" yMax="1030">
      <contour>
        <pt x="82" y="1030" on="1"/>
        <pt x="552" y="1030" on="1"/>
        <pt x="552" y="-220" on="1"/>
        <pt x="82" y="-220" on="1"/>
      </contour>
      <contour>
        <pt x="470" y="-143" on="1"/>
        <pt x="470" y="954" on="1"/>
        <pt x="163" y="954" on="1"/>
        <pt x="163" y="-143" on="1"/>
      </contour>
    </TTGlyph>
    <TTGlyph name="A" xMin="5" yMin="0" xMax="562" yMax="740">
      <contour>
        <pt x="5" y="6" on="1"/>
        <pt x="214" y="740" on="1"/>
        <pt x="352" y="740" on="1"/>
        <pt x="562" y="6" on="1"/>
        <pt x="562" y="0" on="1"/>
        <pt x="472" y="0" on="1"/>
        <pt x="408" y="216" on="1"/>
        <pt x="157" y="216" on="1"/>
        <pt x="94" y="0" on="1"/>
        <pt x="5" y="0" on="1"/>
      </contour>
      <contour>
        <pt x="389" y="294" on="1"/>
        <pt x="316" y="550" on="1"/>
        <pt x="287" y="659" on="1"/>
        <pt x="279" y="659" on="1"/>
        <pt x="250" y="550" on="1"/>
        <pt x="176" y="294" on="1"/>
      </contour>
    </TTGlyph>
    <TTGlyph name="A.sc" xMin="9" yMin="0" xMax="507" yMax="577">
      <contour>
        <pt x="9" y="5" on="1"/>
        <pt x="192" y="577" on="1"/>
        <pt x="324" y="577" on="1"/>
        <pt x="507" y="5" on="1"/>
        <pt x="507" y="0" on="1"/>
        <pt x="421" y="0" on="1"/>
        <pt x="368" y="157" on="1"/>
        <pt x="147" y="157" on="1"/>
        <pt x="94" y="0" on="1"/>
        <pt x="9" y="0" on="1"/>
      </contour>
      <contour>
        <pt x="351" y="223" on="1"/>
        <pt x="286" y="422" on="1"/>
        <pt x="262" y="505" on="1"/>
        <pt x="254" y="505" on="1"/>
        <pt x="229" y="422" on="1"/>
        <pt x="163" y="223" on="1"/>
      </contour>
    </TTGlyph>
    <TTGlyph name="AE" xMin="3" yMin="0" xMax="734" yMax="740">
      <contour>
        <pt x="3" y="6" on="1"/>
        <pt x="237" y="740" on="1"/>
        <pt x="725" y="740" on="1"/>
        <pt x="725" y="658" on="1"/>
        <pt x="447" y="658" on="1"/>
        <pt x="459" y="415" on="1"/>
        <pt x="702" y="415" on="1"/>
        <pt x="702" y="333" on="1"/>
        <pt x="464" y="333" on="1"/>
        <pt x="477" y="82" on="1"/>
        <pt x="734" y="82" on="1"/>
        <pt x="734" y="0" on="1"/>
        <pt x="385" y="0" on="1"/>
        <pt x="376" y="214" on="1"/>
        <pt x="167" y="214" on="1"/>
        <pt x="99" y="0" on="1"/>
        <pt x="3" y="0" on="1"/>
      </contour>
      <contour>
        <pt x="193" y="297" on="1"/>
        <pt x="373" y="297" on="1"/>
        <pt x="358" y="662" on="1"/>
        <pt x="310" y="662" on="1"/>
      </contour>
    </TTGlyph>
    <TTGlyph name="AE.sc" xMin="10" yMin="0" xMax="660" yMax="577">
      <contour>
        <pt x="10" y="5" on="1"/>
        <pt x="216" y="577" on="1"/>
        <pt x="653" y="577" on="1"/>
        <pt x="653" y="502" on="1"/>
        <pt x="411" y="502" on="1"/>
        <pt x="420" y="328" on="1"/>
        <pt x="633" y="328" on="1"/>
        <pt x="633" y="254" on="1"/>
        <pt x="426" y="254" on="1"/>
        <pt x="437" y="76" on="1"/>
        <pt x="660" y="76" on="1"/>
        <pt x="660" y="0" on="1"/>
        <pt x="349" y="0" on="1"/>
        <pt x="342" y="157" on="1"/>
        <pt x="159" y="157" on="1"/>
        <pt x="102" y="0" on="1"/>
        <pt x="10" y="0" on="1"/>
      </contour>
      <contour>
        <pt x="183" y="227" on="1"/>
        <pt x="339" y="227" on="1"/>
        <pt x="326" y="506" on="1"/>
        <pt x="285" y="506" on="1"/>
      </contour>
    </TTGlyph>
    <TTGlyph name="AEacute" xMin="3" yMin="0" xMax="734" yMax="939">
      <contour>
        <pt x="419" y="792" on="1"/>
        <pt x="491" y="939" on="1"/>
        <pt x="588" y="939" on="1"/>
        <pt x="489" y="786" on="1"/>
      </contour>
      <contour>
        <pt x="3" y="6" on="1"/>
        <pt x="237" y="740" on="1"/>
        <pt x="725" y="740" on="1"/>
        <pt x="725" y="658" on="1"/>
        <pt x="447" y="658" on="1"/>
        <pt x="459" y="415" on="1"/>
        <pt x="702" y="415" on="1"/>
        <pt x="702" y="333" on="1"/>
        <pt x="464" y="333" on="1"/>
        <pt x="477" y="82" on="1"/>
        <pt x="734" y="82" on="1"/>
        <pt x="734" y="0" on="1"/>
        <pt x="385" y="0" on="1"/>
        <pt x="376" y="214" on="1"/>
        <pt x="167" y="214" on="1"/>
        <pt x="99" y="0" on="1"/>
        <pt x="3" y="0" on="1"/>
      </contour>
      <contour>
        <pt x="193" y="297" on="1"/>
        <pt x="373" y="297" on="1"/>
        <pt x="358" y="662" on="1"/>
        <pt x="310" y="662" on="1"/>
      </contour>
    </TTGlyph>
    <TTGlyph name="AEacute.sc" xMin="10" yMin="0" xMax="660" yMax="742">
      <contour>
        <pt x="10" y="5" on="1"/>
        <pt x="216" y="577" on="1"/>
        <pt x="653" y="577" on="1"/>
        <pt x="653" y="502" on="1"/>
        <pt x="411" y="502" on="1"/>
        <pt x="420" y="328" on="1"/>
        <pt x="633" y="328" on="1"/>
        <pt x="633" y="254" on="1"/>
        <pt x="426" y="254" on="1"/>
        <pt x="437" y="76" on="1"/>
        <pt x="660" y="76" on="1"/>
        <pt x="660" y="0" on="1"/>
        <pt x="349" y="0" on="1"/>
        <pt x="342" y="157" on="1"/>
        <pt x="159" y="157" on="1"/>
        <pt x="102" y="0" on="1"/>
        <pt x="10" y="0" on="1"/>
      </contour>
      <contour>
        <pt x="339" y="227" on="1"/>
        <pt x="326" y="506" on="1"/>
        <pt x="285" y="506" on="1"/>
        <pt x="183" y="227" on="1"/>
      </contour>
      <contour>
        <pt x="375" y="620" on="1"/>
        <pt x="438" y="742" on="1"/>
        <pt x="530" y="742" on="1"/>
        <pt x="441" y="615" on="1"/>
      </contour>
    </TTGlyph>
    <TTGlyph name="Aacute" xMin="5" yMin="0" xMax="562" yMax="939">
      <contour>
        <pt x="5" y="6" on="1"/>
        <pt x="214" y="740" on="1"/>
        <pt x="352" y="740" on="1"/>
        <pt x="562" y="6" on="1"/>
        <pt x="562" y="0" on="1"/>
        <pt x="472" y="0" on="1"/>
        <pt x="408" y="216" on="1"/>
        <pt x="157" y="216" on="1"/>
        <pt x="94" y="0" on="1"/>
        <pt x="5" y="0" on="1"/>
      </contour>
      <contour>
        <pt x="389" y="294" on="1"/>
        <pt x="316" y="550" on="1"/>
        <pt x="287" y="659" on="1"/>
        <pt x="279" y="659" on="1"/>
        <pt x="250" y="550" on="1"/>
        <pt x="176" y="294" on="1"/>
      </contour>
      <contour>
        <pt x="244" y="792" on="1"/>
        <pt x="316" y="939" on="1"/>
        <pt x="413" y="939" on="1"/>
        <pt x="314" y="786" on="1"/>
      </contour>
    </TTGlyph>
    <TTGlyph name="Aacute.sc" xMin="9" yMin="0" xMax="507" yMax="742">
      <contour>
        <pt x="9" y="5" on="1"/>
        <pt x="192" y="577" on="1"/>
        <pt x="324" y="577" on="1"/>
        <pt x="507" y="5" on="1"/>
        <pt x="507" y="0" on="1"/>
        <pt x="421" y="0" on="1"/>
        <pt x="368" y="157" on="1"/>
        <pt x="147" y="157" on="1"/>
        <pt x="94" y="0" on="1"/>
        <pt x="9" y="0" on="1"/>
      </contour>
      <contour>
        <pt x="351" y="223" on="1"/>
        <pt x="286" y="422" on="1"/>
        <pt x="262" y="505" on="1"/>
        <pt x="254" y="505" on="1"/>
        <pt x="229" y="422" on="1"/>
        <pt x="163" y="223" on="1"/>
      </contour>
      <contour>
        <pt x="220" y="620" on="1"/>
        <pt x="284" y="742" on="1"/>
        <pt x="376" y="742" on="1"/>
        <pt x="288" y="615" on="1"/>
      </contour>
    </TTGlyph>
    <TTGlyph name="Abreve" xMin="5" yMin="0" xMax="562" yMax="958">
      <contour>
        <pt x="5" y="6" on="1"/>
        <pt x="214" y="740" on="1"/>
        <pt x="352" y="740" on="1"/>
        <pt x="562" y="6" on="1"/>
        <pt x="562" y="0" on="1"/>
        <pt x="472" y="0" on="1"/>
        <pt x="408" y="216" on="1"/>
        <pt x="157" y="216" on="1"/>
        <pt x="94" y="0" on="1"/>
        <pt x="5" y="0" on="1"/>
      </contour>
      <contour>
        <pt x="389" y="294" on="1"/>
        <pt x="316" y="550" on="1"/>
        <pt x="287" y="659" on="1"/>
        <pt x="279" y="659" on="1"/>
        <pt x="250" y="550" on="1"/>
        <pt x="176" y="294" on="1"/>
      </contour>
      <contour>
        <pt x="285" y="806" on="1"/>
        <pt x="210" y="806" on="0"/>
        <pt x="129" y="887" on="0"/>
        <pt x="129" y="958" on="1"/>
        <pt x="198" y="958" on="1"/>
        <pt x="198" y="860" on="0"/>
        <pt x="285" y="860" on="1"/>
        <pt x="371" y="860" on="0"/>
        <pt x="371" y="958" on="1"/>
        <pt x="440" y="958" on="1"/>
        <pt x="440" y="888" on="0"/>
        <pt x="359" y="806" on="0"/>
      </contour>
    </TTGlyph>
    <TTGlyph name="Abreve.sc" xMin="9" yMin="0" xMax="507" yMax="751">
      <contour>
        <pt x="259" y="626" on="1"/>
        <pt x="192" y="626" on="0"/>
        <pt x="119" y="693" on="0"/>
        <pt x="119" y="751" on="1"/>
        <pt x="184" y="751" on="1"/>
        <pt x="184" y="674" on="0"/>
        <pt x="259" y="674" on="1"/>
        <pt x="334" y="674" on="0"/>
        <pt x="334" y="751" on="1"/>
        <pt x="399" y="751" on="1"/>
        <pt x="399" y="693" on="0"/>
        <pt x="326" y="626" on="0"/>
      </contour>
      <contour>
        <pt x="9" y="5" on="1"/>
        <pt x="192" y="577" on="1"/>
        <pt x="324" y="577" on="1"/>
        <pt x="507" y="5" on="1"/>
        <pt x="507" y="0" on="1"/>
        <pt x="421" y="0" on="1"/>
        <pt x="368" y="157" on="1"/>
        <pt x="147" y="157" on="1"/>
        <pt x="94" y="0" on="1"/>
        <pt x="9" y="0" on="1"/>
      </contour>
      <contour>
        <pt x="351" y="223" on="1"/>
        <pt x="286" y="422" on="1"/>
        <pt x="262" y="505" on="1"/>
        <pt x="254" y="505" on="1"/>
        <pt x="229" y="422" on="1"/>
        <pt x="163" y="223" on="1"/>
      </contour>
    </TTGlyph>
    <TTGlyph name="Acircumflex" xMin="5" yMin="0" xMax="562" yMax="951">
      <contour>
        <pt x="5" y="6" on="1"/>
        <pt x="214" y="740" on="1"/>
        <pt x="352" y="740" on="1"/>
        <pt x="562" y="6" on="1"/>
        <pt x="562" y="0" on="1"/>
        <pt x="472" y="0" on="1"/>
        <pt x="408" y="216" on="1"/>
        <pt x="157" y="216" on="1"/>
        <pt x="94" y="0" on="1"/>
        <pt x="5" y="0" on="1"/>
      </contour>
      <contour>
        <pt x="389" y="294" on="1"/>
        <pt x="316" y="550" on="1"/>
        <pt x="287" y="659" on="1"/>
        <pt x="279" y="659" on="1"/>
        <pt x="250" y="550" on="1"/>
        <pt x="176" y="294" on="1"/>
      </contour>
      <contour>
        <pt x="144" y="879" on="1"/>
        <pt x="284" y="951" on="1"/>
        <pt x="424" y="879" on="1"/>
        <pt x="424" y="806" on="1"/>
        <pt x="284" y="878" on="1"/>
        <pt x="144" y="806" on="1"/>
      </contour>
    </TTGlyph>
    <TTGlyph name="Acircumflex.sc" xMin="9" yMin="0" xMax="507" yMax="747">
      <contour>
        <pt x="9" y="5" on="1"/>
        <pt x="192" y="577" on="1"/>
        <pt x="324" y="577" on="1"/>
        <pt x="507" y="5" on="1"/>
        <pt x="507" y="0" on="1"/>
        <pt x="421" y="0" on="1"/>
        <pt x="368" y="157" on="1"/>
        <pt x="147" y="157" on="1"/>
        <pt x="94" y="0" on="1"/>
        <pt x="9" y="0" on="1"/>
      </contour>
      <contour>
        <pt x="351" y="223" on="1"/>
        <pt x="286" y="422" on="1"/>
        <pt x="262" y="505" on="1"/>
        <pt x="254" y="505" on="1"/>
        <pt x="229" y="422" on="1"/>
        <pt x="163" y="223" on="1"/>
      </contour>
      <contour>
        <pt x="133" y="691" on="1"/>
        <pt x="259" y="747" on="1"/>
        <pt x="384" y="691" on="1"/>
        <pt x="384" y="626" on="1"/>
        <pt x="258" y="682" on="1"/>
        <pt x="133" y="626" on="1"/>
      </contour>
    </TTGlyph>
    <TTGlyph name="Adblgrave" xMin="5" yMin="0" xMax="562" yMax="939">
      <contour>
        <pt x="5" y="6" on="1"/>
        <pt x="214" y="740" on="1"/>
        <pt x="352" y="740" on="1"/>
        <pt x="562" y="6" on="1"/>
        <pt x="562" y="0" on="1"/>
        <pt x="472" y="0" on="1"/>
        <pt x="408" y="216" on="1"/>
        <pt x="157" y="216" on="1"/>
        <pt x="94" y="0" on="1"/>
        <pt x="5" y="0" on="1"/>
      </contour>
      <contour>
        <pt x="389" y="294" on="1"/>
        <pt x="316" y="550" on="1"/>
        <pt x="287" y="659" on="1"/>
        <pt x="279" y="659" on="1"/>
        <pt x="250" y="550" on="1"/>
        <pt x="176" y="294" on="1"/>
      </contour>
      <contour>
        <pt x="183" y="786" on="1"/>
        <pt x="84" y="939" on="1"/>
        <pt x="166" y="939" on="1"/>
        <pt x="240" y="799" on="1"/>
      </contour>
      <contour>
        <pt x="338" y="786" on="1"/>
        <pt x="238" y="939" on="1"/>
        <pt x="321" y="939" on="1"/>
        <pt x="394" y="799" on="1"/>
      </contour>
    </TTGlyph>
    <TTGlyph name="Adblgrave.sc" xMin="9" yMin="0" xMax="507" yMax="742">
      <contour>
        <pt x="9" y="5" on="1"/>
        <pt x="192" y="577" on="1"/>
        <pt x="324" y="577" on="1"/>
        <pt x="507" y="5" on="1"/>
        <pt x="507" y="0" on="1"/>
        <pt x="421" y="0" on="1"/>
        <pt x="368" y="157" on="1"/>
        <pt x="147" y="157" on="1"/>
        <pt x="94" y="0" on="1"/>
        <pt x="9" y="0" on="1"/>
      </contour>
      <contour>
        <pt x="351" y="223" on="1"/>
        <pt x="286" y="422" on="1"/>
        <pt x="262" y="505" on="1"/>
        <pt x="254" y="505" on="1"/>
        <pt x="229" y="422" on="1"/>
        <pt x="163" y="223" on="1"/>
      </contour>
      <contour>
        <pt x="78" y="742" on="1"/>
        <pt x="157" y="742" on="1"/>
        <pt x="221" y="624" on="1"/>
        <pt x="167" y="614" on="1"/>
      </contour>
      <contour>
        <pt x="216" y="742" on="1"/>
        <pt x="295" y="742" on="1"/>
        <pt x="358" y="624" on="1"/>
        <pt x="305" y="614" on="1"/>
      </contour>
    </TTGlyph>
    <TTGlyph name="Adieresis" xMin="5" yMin="0" xMax="562" yMax="920">
      <contour>
        <pt x="5" y="6" on="1"/>
        <pt x="214" y="740" on="1"/>
        <pt x="352" y="740" on="1"/>
        <pt x="562" y="6" on="1"/>
        <pt x="562" y="0" on="1"/>
        <pt x="472" y="0" on="1"/>
        <pt x="408" y="216" on="1"/>
        <pt x="157" y="216" on="1"/>
        <pt x="94" y="0" on="1"/>
        <pt x="5" y="0" on="1"/>
      </contour>
      <contour>
        <pt x="389" y="294" on="1"/>
        <pt x="316" y="550" on="1"/>
        <pt x="287" y="659" on="1"/>
        <pt x="279" y="659" on="1"/>
        <pt x="250" y="550" on="1"/>
        <pt x="176" y="294" on="1"/>
      </contour>
      <contour>
        <pt x="181" y="808" on="1"/>
        <pt x="124" y="808" on="0"/>
        <pt x="124" y="864" on="1"/>
        <pt x="124" y="920" on="0"/>
        <pt x="181" y="920" on="1"/>
        <pt x="239" y="920" on="0"/>
        <pt x="239" y="864" on="1"/>
        <pt x="239" y="834" on="0"/>
        <pt x="209" y="808" on="0"/>
      </contour>
      <contour>
        <pt x="384" y="808" on="1"/>
        <pt x="328" y="808" on="0"/>
        <pt x="328" y="864" on="1"/>
        <pt x="328" y="920" on="0"/>
        <pt x="384" y="920" on="1"/>
        <pt x="442" y="920" on="0"/>
        <pt x="442" y="864" on="1"/>
        <pt x="442" y="834" on="0"/>
        <pt x="412" y="808" on="0"/>
      </contour>
    </TTGlyph>
    <TTGlyph name="Adieresis.sc" xMin="9" yMin="0" xMax="507" yMax="731">
      <contour>
        <pt x="166" y="629" on="1"/>
        <pt x="140" y="629" on="0"/>
        <pt x="113" y="653" on="0"/>
        <pt x="113" y="680" on="1"/>
        <pt x="113" y="707" on="0"/>
        <pt x="140" y="731" on="0"/>
        <pt x="166" y="731" on="1"/>
        <pt x="220" y="731" on="0"/>
        <pt x="220" y="680" on="1"/>
        <pt x="220" y="653" on="0"/>
        <pt x="193" y="629" on="0"/>
      </contour>
      <contour>
        <pt x="351" y="629" on="1"/>
        <pt x="325" y="629" on="0"/>
        <pt x="298" y="653" on="0"/>
        <pt x="298" y="680" on="1"/>
        <pt x="298" y="707" on="0"/>
        <pt x="325" y="731" on="0"/>
        <pt x="351" y="731" on="1"/>
        <pt x="404" y="731" on="0"/>
        <pt x="404" y="680" on="1"/>
        <pt x="404" y="653" on="0"/>
        <pt x="377" y="629" on="0"/>
      </contour>
      <contour>
        <pt x="9" y="5" on="1"/>
        <pt x="192" y="577" on="1"/>
        <pt x="324" y="577" on="1"/>
        <pt x="507" y="5" on="1"/>
        <pt x="507" y="0" on="1"/>
        <pt x="421" y="0" on="1"/>
        <pt x="368" y="157" on="1"/>
        <pt x="147" y="157" on="1"/>
        <pt x="94" y="0" on="1"/>
        <pt x="9" y="0" on="1"/>
      </contour>
      <contour>
        <pt x="351" y="223" on="1"/>
        <pt x="286" y="422" on="1"/>
        <pt x="262" y="505" on="1"/>
        <pt x="254" y="505" on="1"/>
        <pt x="229" y="422" on="1"/>
        <pt x="163" y="223" on="1"/>
      </contour>
    </TTGlyph>
    <TTGlyph name="Agrave" xMin="5" yMin="0" xMax="562" yMax="939">
      <contour>
        <pt x="5" y="6" on="1"/>
        <pt x="214" y="740" on="1"/>
        <pt x="352" y="740" on="1"/>
        <pt x="562" y="6" on="1"/>
        <pt x="562" y="0" on="1"/>
        <pt x="472" y="0" on="1"/>
        <pt x="408" y="216" on="1"/>
        <pt x="157" y="216" on="1"/>
        <pt x="94" y="0" on="1"/>
        <pt x="5" y="0" on="1"/>
      </contour>
      <contour>
        <pt x="389" y="294" on="1"/>
        <pt x="316" y="550" on="1"/>
        <pt x="287" y="659" on="1"/>
        <pt x="279" y="659" on="1"/>
        <pt x="250" y="550" on="1"/>
        <pt x="176" y="294" on="1"/>
      </contour>
      <contour>
        <pt x="244" y="786" on="1"/>
        <pt x="145" y="939" on="1"/>
        <pt x="242" y="939" on="1"/>
        <pt x="315" y="799" on="1"/>
      </contour>
    </TTGlyph>
    <TTGlyph name="Agrave.sc" xMin="9" yMin="0" xMax="507" yMax="742">
      <contour>
        <pt x="9" y="5" on="1"/>
        <pt x="192" y="577" on="1"/>
        <pt x="324" y="577" on="1"/>
        <pt x="507" y="5" on="1"/>
        <pt x="507" y="0" on="1"/>
        <pt x="421" y="0" on="1"/>
        <pt x="368" y="157" on="1"/>
        <pt x="147" y="157" on="1"/>
        <pt x="94" y="0" on="1"/>
        <pt x="9" y="0" on="1"/>
      </contour>
      <contour>
        <pt x="351" y="223" on="1"/>
        <pt x="286" y="422" on="1"/>
        <pt x="262" y="505" on="1"/>
        <pt x="254" y="505" on="1"/>
        <pt x="229" y="422" on="1"/>
        <pt x="163" y="223" on="1"/>
      </contour>
      <contour>
        <pt x="222" y="615" on="1"/>
        <pt x="134" y="742" on="1"/>
        <pt x="226" y="742" on="1"/>
        <pt x="289" y="624" on="1"/>
      </contour>
    </TTGlyph>
    <TTGlyph name="Ainvertedbreve" xMin="5" yMin="0" xMax="562" yMax="968">
      <contour>
        <pt x="5" y="6" on="1"/>
        <pt x="214" y="740" on="1"/>
        <pt x="352" y="740" on="1"/>
        <pt x="562" y="6" on="1"/>
        <pt x="562" y="0" on="1"/>
        <pt x="472" y="0" on="1"/>
        <pt x="408" y="216" on="1"/>
        <pt x="157" y="216" on="1"/>
        <pt x="94" y="0" on="1"/>
        <pt x="5" y="0" on="1"/>
      </contour>
      <contour>
        <pt x="389" y="294" on="1"/>
        <pt x="316" y="550" on="1"/>
        <pt x="287" y="659" on="1"/>
        <pt x="279" y="659" on="1"/>
        <pt x="250" y="550" on="1"/>
        <pt x="176" y="294" on="1"/>
      </contour>
      <contour>
        <pt x="370" y="816" on="1"/>
        <pt x="370" y="915" on="0"/>
        <pt x="284" y="915" on="1"/>
        <pt x="197" y="915" on="0"/>
        <pt x="197" y="816" on="1"/>
        <pt x="128" y="816" on="1"/>
        <pt x="128" y="888" on="0"/>
        <pt x="209" y="968" on="0"/>
        <pt x="284" y="968" on="1"/>
        <pt x="358" y="968" on="0"/>
        <pt x="439" y="888" on="0"/>
        <pt x="439" y="816" on="1"/>
      </contour>
    </TTGlyph>
    <TTGlyph name="Ainvertedbreve.sc" xMin="9" yMin="0" xMax="507" yMax="758">
      <contour>
        <pt x="120" y="634" on="1"/>
        <pt x="120" y="693" on="0"/>
        <pt x="191" y="758" on="0"/>
        <pt x="259" y="758" on="1"/>
        <pt x="327" y="758" on="0"/>
        <pt x="399" y="693" on="0"/>
        <pt x="399" y="634" on="1"/>
        <pt x="333" y="634" on="1"/>
        <pt x="333" y="711" on="0"/>
        <pt x="259" y="711" on="1"/>
        <pt x="185" y="711" on="0"/>
        <pt x="185" y="634" on="1"/>
      </contour>
      <contour>
        <pt x="9" y="5" on="1"/>
        <pt x="192" y="577" on="1"/>
        <pt x="324" y="577" on="1"/>
        <pt x="507" y="5" on="1"/>
        <pt x="507" y="0" on="1"/>
        <pt x="421" y="0" on="1"/>
        <pt x="368" y="157" on="1"/>
        <pt x="147" y="157" on="1"/>
        <pt x="94" y="0" on="1"/>
        <pt x="9" y="0" on="1"/>
      </contour>
      <contour>
        <pt x="351" y="223" on="1"/>
        <pt x="286" y="422" on="1"/>
        <pt x="262" y="505" on="1"/>
        <pt x="254" y="505" on="1"/>
        <pt x="229" y="422" on="1"/>
        <pt x="163" y="223" on="1"/>
      </contour>
    </TTGlyph>
    <TTGlyph name="Amacron" xMin="5" yMin="0" xMax="562" yMax="907">
      <contour>
        <pt x="5" y="6" on="1"/>
        <pt x="214" y="740" on="1"/>
        <pt x="352" y="740" on="1"/>
        <pt x="562" y="6" on="1"/>
        <pt x="562" y="0" on="1"/>
        <pt x="472" y="0" on="1"/>
        <pt x="408" y="216" on="1"/>
        <pt x="157" y="216" on="1"/>
        <pt x="94" y="0" on="1"/>
        <pt x="5" y="0" on="1"/>
      </contour>
      <contour>
        <pt x="389" y="294" on="1"/>
        <pt x="316" y="550" on="1"/>
        <pt x="287" y="659" on="1"/>
        <pt x="279" y="659" on="1"/>
        <pt x="250" y="550" on="1"/>
        <pt x="176" y="294" on="1"/>
      </contour>
      <contour>
        <pt x="147" y="907" on="1"/>
        <pt x="407" y="907" on="1"/>
        <pt x="407" y="840" on="1"/>
        <pt x="147" y="840" on="1"/>
      </contour>
    </TTGlyph>
    <TTGlyph name="Amacron.sc" xMin="9" yMin="0" xMax="507" yMax="717">
      <contour>
        <pt x="9" y="5" on="1"/>
        <pt x="192" y="577" on="1"/>
        <pt x="324" y="577" on="1"/>
        <pt x="507" y="5" on="1"/>
        <pt x="507" y="0" on="1"/>
        <pt x="421" y="0" on="1"/>
        <pt x="368" y="157" on="1"/>
        <pt x="147" y="157" on="1"/>
        <pt x="94" y="0" on="1"/>
        <pt x="9" y="0" on="1"/>
      </contour>
      <contour>
        <pt x="351" y="223" on="1"/>
        <pt x="286" y="422" on="1"/>
        <pt x="262" y="505" on="1"/>
        <pt x="254" y="505" on="1"/>
        <pt x="229" y="422" on="1"/>
        <pt x="163" y="223" on="1"/>
      </contour>
      <contour>
        <pt x="136" y="717" on="1"/>
        <pt x="372" y="717" on="1"/>
        <pt x="372" y="655" on="1"/>
        <pt x="136" y="655" on="1"/>
      </contour>
    </TTGlyph>
    <TTGlyph name="Aogonek" xMin="5" yMin="-220" xMax="562" yMax="740">
      <contour>
        <pt x="499" y="-220" on="1"/>
        <pt x="399" y="-220" on="0"/>
        <pt x="399" y="-129" on="1"/>
        <pt x="399" y="-58" on="0"/>
        <pt x="485" y="0" on="1"/>
        <pt x="472" y="0" on="1"/>
        <pt x="408" y="216" on="1"/>
        <pt x="157" y="216" on="1"/>
        <pt x="94" y="0" on="1"/>
        <pt x="5" y="0" on="1"/>
        <pt x="5" y="6" on="1"/>
        <pt x="214" y="740" on="1"/>
        <pt x="352" y="740" on="1"/>
        <pt x="562" y="6" on="1"/>
        <pt x="562" y="-14" on="1"/>
        <pt x="513" y="-33" on="0"/>
        <pt x="466" y="-93" on="0"/>
        <pt x="466" y="-122" on="1"/>
        <pt x="466" y="-158" on="0"/>
        <pt x="509" y="-158" on="1"/>
        <pt x="538" y="-158" on="0"/>
        <pt x="562" y="-147" on="1"/>
        <pt x="562" y="-208" on="1"/>
        <pt x="546" y="-214" on="0"/>
        <pt x="516" y="-220" on="0"/>
      </contour>
      <contour>
        <pt x="389" y="294" on="1"/>
        <pt x="316" y="550" on="1"/>
        <pt x="287" y="659" on="1"/>
        <pt x="279" y="659" on="1"/>
        <pt x="250" y="550" on="1"/>
        <pt x="176" y="294" on="1"/>
      </contour>
    </TTGlyph>
    <TTGlyph name="Aogonek.sc" xMin="8" yMin="-169" xMax="507" yMax="577">
      <contour>
        <pt x="449" y="-169" on="1"/>
        <pt x="359" y="-169" on="0"/>
        <pt x="359" y="-97" on="1"/>
        <pt x="359" y="-69" on="0"/>
        <pt x="392" y="-23" on="0"/>
        <pt x="427" y="0" on="1"/>
        <pt x="421" y="0" on="1"/>
        <pt x="368" y="157" on="1"/>
        <pt x="147" y="157" on="1"/>
        <pt x="93" y="0" on="1"/>
        <pt x="8" y="0" on="1"/>
        <pt x="8" y="5" on="1"/>
        <pt x="191" y="577" on="1"/>
        <pt x="324" y="577" on="1"/>
        <pt x="507" y="5" on="1"/>
        <pt x="507" y="-9" on="1"/>
        <pt x="461" y="-25" on="0"/>
        <pt x="421" y="-68" on="0"/>
        <pt x="421" y="-87" on="1"/>
        <pt x="421" y="-113" on="0"/>
        <pt x="457" y="-113" on="1"/>
        <pt x="470" y="-113" on="0"/>
        <pt x="496" y="-109" on="0"/>
        <pt x="507" y="-104" on="1"/>
        <pt x="507" y="-160" on="1"/>
        <pt x="492" y="-164" on="0"/>
        <pt x="464" y="-169" on="0"/>
      </contour>
      <contour>
        <pt x="350" y="223" on="1"/>
        <pt x="286" y="426" on="1"/>
        <pt x="261" y="505" on="1"/>
        <pt x="253" y="505" on="1"/>
        <pt x="229" y="426" on="1"/>
        <pt x="162" y="223" on="1"/>
      </contour>
    </TTGlyph>
    <TTGlyph name="Aring" xMin="5" yMin="0" xMax="562" yMax="941">
      <contour>
        <pt x="5" y="6" on="1"/>
        <pt x="214" y="740" on="1"/>
        <pt x="236" y="740" on="1"/>
        <pt x="210" y="752" on="0"/>
        <pt x="181" y="803" on="0"/>
        <pt x="181" y="835" on="1"/>
        <pt x="181" y="880" on="0"/>
        <pt x="235" y="941" on="0"/>
        <pt x="283" y="941" on="1"/>
        <pt x="331" y="941" on="0"/>
        <pt x="385" y="880" on="0"/>
        <pt x="385" y="835" on="1"/>
        <pt x="385" y="803" on="0"/>
        <pt x="356" y="752" on="0"/>
        <pt x="330" y="740" on="1"/>
        <pt x="352" y="740" on="1"/>
        <pt x="562" y="6" on="1"/>
        <pt x="562" y="0" on="1"/>
        <pt x="472" y="0" on="1"/>
        <pt x="408" y="216" on="1"/>
        <pt x="157" y="216" on="1"/>
        <pt x="94" y="0" on="1"/>
        <pt x="5" y="0" on="1"/>
      </contour>
      <contour>
        <pt x="389" y="294" on="1"/>
        <pt x="316" y="550" on="1"/>
        <pt x="287" y="659" on="1"/>
        <pt x="279" y="659" on="1"/>
        <pt x="250" y="550" on="1"/>
        <pt x="176" y="294" on="1"/>
      </contour>
      <contour>
        <pt x="283" y="774" on="1"/>
        <pt x="311" y="774" on="0"/>
        <pt x="338" y="807" on="0"/>
        <pt x="338" y="835" on="1"/>
        <pt x="338" y="864" on="0"/>
        <pt x="312" y="897" on="0"/>
        <pt x="283" y="897" on="1"/>
        <pt x="254" y="897" on="0"/>
        <pt x="228" y="864" on="0"/>
        <pt x="228" y="835" on="1"/>
        <pt x="228" y="807" on="0"/>
        <pt x="254" y="774" on="0"/>
      </contour>
    </TTGlyph>
    <TTGlyph name="Aring.sc" xMin="9" yMin="0" xMax="507" yMax="780">
      <contour>
        <pt x="9" y="5" on="1"/>
        <pt x="192" y="577" on="1"/>
        <pt x="324" y="577" on="1"/>
        <pt x="507" y="5" on="1"/>
        <pt x="507" y="0" on="1"/>
        <pt x="421" y="0" on="1"/>
        <pt x="368" y="157" on="1"/>
        <pt x="147" y="157" on="1"/>
        <pt x="94" y="0" on="1"/>
        <pt x="9" y="0" on="1"/>
      </contour>
      <contour>
        <pt x="351" y="223" on="1"/>
        <pt x="286" y="422" on="1"/>
        <pt x="262" y="505" on="1"/>
        <pt x="254" y="505" on="1"/>
        <pt x="229" y="422" on="1"/>
        <pt x="163" y="223" on="1"/>
      </contour>
      <contour>
        <pt x="256" y="611" on="1"/>
        <pt x="214" y="611" on="0"/>
        <pt x="165" y="660" on="0"/>
        <pt x="165" y="695" on="1"/>
        <pt x="165" y="732" on="0"/>
        <pt x="214" y="780" on="0"/>
        <pt x="256" y="780" on="1"/>
        <pt x="298" y="780" on="0"/>
        <pt x="348" y="732" on="0"/>
        <pt x="348" y="695" on="1"/>
        <pt x="348" y="660" on="0"/>
        <pt x="298" y="611" on="0"/>
      </contour>
      <contour>
        <pt x="256" y="649" on="1"/>
        <pt x="305" y="649" on="0"/>
        <pt x="305" y="695" on="1"/>
        <pt x="305" y="718" on="0"/>
        <pt x="282" y="742" on="0"/>
        <pt x="256" y="742" on="1"/>
        <pt x="208" y="742" on="0"/>
        <pt x="208" y="695" on="1"/>
        <pt x="208" y="649" on="0"/>
      </contour>
    </TTGlyph>
    <TTGlyph name="Aringacute" xMin="5" yMin="0" xMax="562" yMax="955">
      <contour>
        <pt x="5" y="6" on="1"/>
        <pt x="193" y="650" on="1"/>
        <pt x="162" y="681" on="0"/>
        <pt x="162" y="734" on="1"/>
        <pt x="162" y="780" on="0"/>
        <pt x="211" y="845" on="0"/>
        <pt x="256" y="852" on="1"/>
        <pt x="312" y="955" on="1"/>
        <pt x="409" y="955" on="1"/>
        <pt x="336" y="843" on="1"/>
        <pt x="368" y="830" on="0"/>
        <pt x="403" y="772" on="0"/>
        <pt x="403" y="734" on="1"/>
        <pt x="403" y="710" on="0"/>
        <pt x="388" y="668" on="0"/>
        <pt x="373" y="653" on="1"/>
        <pt x="562" y="6" on="1"/>
        <pt x="562" y="0" on="1"/>
        <pt x="472" y="0" on="1"/>
        <pt x="409" y="214" on="1"/>
        <pt x="157" y="214" on="1"/>
        <pt x="94" y="0" on="1"/>
        <pt x="5" y="0" on="1"/>
      </contour>
      <contour>
        <pt x="282" y="668" on="1"/>
        <pt x="310" y="668" on="0"/>
        <pt x="343" y="705" on="0"/>
        <pt x="343" y="734" on="1"/>
        <pt x="343" y="763" on="0"/>
        <pt x="311" y="800" on="0"/>
        <pt x="282" y="800" on="1"/>
        <pt x="253" y="800" on="0"/>
        <pt x="222" y="763" on="0"/>
        <pt x="222" y="734" on="1"/>
        <pt x="222" y="705" on="0"/>
        <pt x="253" y="668" on="0"/>
      </contour>
      <contour>
        <pt x="388" y="297" on="1"/>
        <pt x="317" y="550" on="1"/>
        <pt x="301" y="612" on="1"/>
        <pt x="266" y="612" on="1"/>
        <pt x="250" y="550" on="1"/>
        <pt x="177" y="297" on="1"/>
      </contour>
    </TTGlyph>
    <TTGlyph name="Aringacute.sc" xMin="9" yMin="0" xMax="507" yMax="758">
      <contour>
        <pt x="9" y="5" on="1"/>
        <pt x="174" y="512" on="1"/>
        <pt x="160" y="524" on="0"/>
        <pt x="147" y="557" on="0"/>
        <pt x="147" y="577" on="1"/>
        <pt x="147" y="615" on="0"/>
        <pt x="190" y="669" on="0"/>
        <pt x="232" y="674" on="1"/>
        <pt x="280" y="758" on="1"/>
        <pt x="371" y="758" on="1"/>
        <pt x="307" y="665" on="1"/>
        <pt x="336" y="654" on="0"/>
        <pt x="366" y="608" on="0"/>
        <pt x="366" y="577" on="1"/>
        <pt x="366" y="558" on="0"/>
        <pt x="355" y="526" on="0"/>
        <pt x="341" y="514" on="1"/>
        <pt x="507" y="5" on="1"/>
        <pt x="507" y="0" on="1"/>
        <pt x="421" y="0" on="1"/>
        <pt x="367" y="157" on="1"/>
        <pt x="147" y="157" on="1"/>
        <pt x="93" y="0" on="1"/>
        <pt x="9" y="0" on="1"/>
      </contour>
      <contour>
        <pt x="256" y="526" on="1"/>
        <pt x="282" y="526" on="0"/>
        <pt x="310" y="555" on="0"/>
        <pt x="310" y="577" on="1"/>
        <pt x="310" y="600" on="0"/>
        <pt x="282" y="629" on="0"/>
        <pt x="256" y="629" on="1"/>
        <pt x="230" y="629" on="0"/>
        <pt x="203" y="600" on="0"/>
        <pt x="203" y="577" on="1"/>
        <pt x="203" y="555" on="0"/>
        <pt x="231" y="526" on="0"/>
      </contour>
      <contour>
        <pt x="351" y="223" on="1"/>
        <pt x="286" y="422" on="1"/>
        <pt x="272" y="476" on="1"/>
        <pt x="242" y="475" on="1"/>
        <pt x="229" y="422" on="1"/>
        <pt x="163" y="223" on="1"/>
      </contour>
    </TTGlyph>
    <TTGlyph name="Atilde" xMin="5" yMin="0" xMax="562" yMax="924">
      <contour>
        <pt x="5" y="6" on="1"/>
        <pt x="214" y="740" on="1"/>
        <pt x="352" y="740" on="1"/>
        <pt x="562" y="6" on="1"/>
        <pt x="562" y="0" on="1"/>
        <pt x="472" y="0" on="1"/>
        <pt x="408" y="216" on="1"/>
        <pt x="157" y="216" on="1"/>
        <pt x="94" y="0" on="1"/>
        <pt x="5" y="0" on="1"/>
      </contour>
      <contour>
        <pt x="389" y="294" on="1"/>
        <pt x="316" y="550" on="1"/>
        <pt x="287" y="659" on="1"/>
        <pt x="279" y="659" on="1"/>
        <pt x="250" y="550" on="1"/>
        <pt x="176" y="294" on="1"/>
      </contour>
      <contour>
        <pt x="125" y="844" on="1"/>
        <pt x="145" y="880" on="0"/>
        <pt x="204" y="924" on="0"/>
        <pt x="233" y="924" on="1"/>
        <pt x="252" y="924" on="0"/>
        <pt x="286" y="911" on="0"/>
        <pt x="317" y="896" on="0"/>
        <pt x="349" y="883" on="0"/>
        <pt x="366" y="883" on="1"/>
        <pt x="399" y="883" on="0"/>
        <pt x="428" y="922" on="1"/>
        <pt x="453" y="901" on="1"/>
        <pt x="436" y="862" on="0"/>
        <pt x="378" y="818" on="0"/>
        <pt x="348" y="818" on="1"/>
        <pt x="329" y="818" on="0"/>
        <pt x="296" y="831" on="0"/>
        <pt x="265" y="846" on="0"/>
        <pt x="233" y="859" on="0"/>
        <pt x="215" y="859" on="1"/>
        <pt x="180" y="859" on="0"/>
        <pt x="148" y="821" on="1"/>
      </contour>
    </TTGlyph>
    <TTGlyph name="Atilde.sc" xMin="9" yMin="0" xMax="507" yMax="729">
      <contour>
        <pt x="9" y="5" on="1"/>
        <pt x="192" y="577" on="1"/>
        <pt x="324" y="577" on="1"/>
        <pt x="507" y="5" on="1"/>
        <pt x="507" y="0" on="1"/>
        <pt x="421" y="0" on="1"/>
        <pt x="368" y="157" on="1"/>
        <pt x="147" y="157" on="1"/>
        <pt x="94" y="0" on="1"/>
        <pt x="9" y="0" on="1"/>
      </contour>
      <contour>
        <pt x="351" y="223" on="1"/>
        <pt x="286" y="422" on="1"/>
        <pt x="262" y="505" on="1"/>
        <pt x="254" y="505" on="1"/>
        <pt x="229" y="422" on="1"/>
        <pt x="163" y="223" on="1"/>
      </contour>
      <contour>
        <pt x="115" y="658" on="1"/>
        <pt x="134" y="691" on="0"/>
        <pt x="188" y="729" on="0"/>
        <pt x="214" y="729" on="1"/>
        <pt x="230" y="729" on="0"/>
        <pt x="260" y="719" on="0"/>
        <pt x="288" y="707" on="0"/>
        <pt x="317" y="697" on="0"/>
        <pt x="333" y="697" on="1"/>
        <pt x="350" y="697" on="0"/>
        <pt x="376" y="712" on="0"/>
        <pt x="390" y="728" on="1"/>
        <pt x="413" y="711" on="1"/>
        <pt x="396" y="676" on="0"/>
        <pt x="342" y="637" on="0"/>
        <pt x="316" y="637" on="1"/>
        <pt x="299" y="637" on="0"/>
        <pt x="270" y="647" on="0"/>
        <pt x="241" y="660" on="0"/>
        <pt x="212" y="670" on="0"/>
        <pt x="197" y="670" on="1"/>
        <pt x="163" y="670" on="0"/>
        <pt x="135" y="639" on="1"/>
      </contour>
    </TTGlyph>
    <TTGlyph name="B" xMin="70" yMin="-10" xMax="528" yMax="750">
      <contour>
        <pt x="261" y="-10" on="1"/>
        <pt x="238" y="-10" on="0"/>
        <pt x="186" y="-8" on="0"/>
        <pt x="135" y="-4" on="0"/>
        <pt x="88" y="2" on="0"/>
        <pt x="70" y="5" on="1"/>
        <pt x="70" y="736" on="1"/>
        <pt x="102" y="740" on="0"/>
        <pt x="153" y="745" on="0"/>
        <pt x="197" y="748" on="0"/>
        <pt x="235" y="750" on="0"/>
        <pt x="255" y="750" on="1"/>
        <pt x="385" y="750" on="0"/>
        <pt x="506" y="652" on="0"/>
        <pt x="506" y="548" on="1"/>
        <pt x="506" y="479" on="0"/>
        <pt x="448" y="394" on="0"/>
        <pt x="394" y="381" on="1"/>
        <pt x="394" y="377" on="1"/>
        <pt x="457" y="366" on="0"/>
        <pt x="528" y="272" on="0"/>
        <pt x="528" y="196" on="1"/>
        <pt x="528" y="93" on="0"/>
        <pt x="394" y="-10" on="0"/>
      </contour>
      <contour>
        <pt x="274" y="64" on="1"/>
        <pt x="430" y="66" on="0"/>
        <pt x="430" y="201" on="1"/>
        <pt x="430" y="274" on="0"/>
        <pt x="351" y="336" on="0"/>
        <pt x="257" y="336" on="1"/>
        <pt x="158" y="336" on="1"/>
        <pt x="158" y="73" on="1"/>
        <pt x="164" y="71" on="0"/>
        <pt x="190" y="68" on="0"/>
        <pt x="223" y="66" on="0"/>
        <pt x="258" y="64" on="0"/>
      </contour>
      <contour>
        <pt x="256" y="410" on="1"/>
        <pt x="298" y="410" on="0"/>
        <pt x="356" y="424" on="0"/>
        <pt x="392" y="455" on="0"/>
        <pt x="408" y="506" on="0"/>
        <pt x="408" y="543" on="1"/>
        <pt x="408" y="674" on="0"/>
        <pt x="263" y="674" on="1"/>
        <pt x="236" y="674" on="0"/>
        <pt x="187" y="671" on="0"/>
        <pt x="158" y="666" on="1"/>
        <pt x="158" y="410" on="1"/>
      </contour>
    </TTGlyph>
    <TTGlyph name="B.sc" xMin="66" yMin="-8" xMax="474" yMax="585">
      <contour>
        <pt x="237" y="-8" on="1"/>
        <pt x="196" y="-8" on="0"/>
        <pt x="100" y="-1" on="0"/>
        <pt x="66" y="4" on="1"/>
        <pt x="66" y="574" on="1"/>
        <pt x="94" y="577" on="0"/>
        <pt x="141" y="581" on="0"/>
        <pt x="180" y="584" on="0"/>
        <pt x="215" y="585" on="0"/>
        <pt x="232" y="585" on="1"/>
        <pt x="348" y="585" on="0"/>
        <pt x="456" y="508" on="0"/>
        <pt x="456" y="426" on="1"/>
        <pt x="456" y="373" on="0"/>
        <pt x="405" y="308" on="0"/>
        <pt x="355" y="297" on="1"/>
        <pt x="355" y="294" on="1"/>
        <pt x="412" y="285" on="0"/>
        <pt x="474" y="213" on="0"/>
        <pt x="474" y="155" on="1"/>
        <pt x="474" y="-8" on="0"/>
      </contour>
      <contour>
        <pt x="249" y="61" on="1"/>
        <pt x="386" y="61" on="0"/>
        <pt x="386" y="160" on="1"/>
        <pt x="386" y="213" on="0"/>
        <pt x="318" y="258" on="0"/>
        <pt x="238" y="258" on="1"/>
        <pt x="150" y="258" on="1"/>
        <pt x="150" y="67" on="1"/>
        <pt x="162" y="65" on="0"/>
        <pt x="220" y="61" on="0"/>
      </contour>
      <contour>
        <pt x="237" y="323" on="1"/>
        <pt x="308" y="323" on="0"/>
        <pt x="365" y="367" on="0"/>
        <pt x="365" y="421" on="1"/>
        <pt x="365" y="470" on="0"/>
        <pt x="305" y="515" on="0"/>
        <pt x="241" y="515" on="1"/>
        <pt x="218" y="515" on="0"/>
        <pt x="175" y="512" on="0"/>
        <pt x="150" y="509" on="1"/>
        <pt x="150" y="323" on="1"/>
      </contour>
    </TTGlyph>
    <TTGlyph name="C" xMin="40" yMin="-10" xMax="462" yMax="748">
      <contour>
        <pt x="345" y="-10" on="1"/>
        <pt x="266" y="-9" on="0"/>
        <pt x="151" y="36" on="0"/>
        <pt x="76" y="128" on="0"/>
        <pt x="40" y="271" on="0"/>
        <pt x="40" y="369" on="1"/>
        <pt x="40" y="470" on="0"/>
        <pt x="76" y="614" on="0"/>
        <pt x="150" y="705" on="0"/>
        <pt x="264" y="748" on="0"/>
        <pt x="343" y="748" on="1"/>
        <pt x="370" y="748" on="0"/>
        <pt x="429" y="743" on="0"/>
        <pt x="462" y="737" on="1"/>
        <pt x="462" y="658" on="1"/>
        <pt x="440" y="663" on="0"/>
        <pt x="383" y="667" on="0"/>
        <pt x="357" y="667" on="1"/>
        <pt x="297" y="667" on="0"/>
        <pt x="214" y="637" on="0"/>
        <pt x="162" y="568" on="0"/>
        <pt x="138" y="454" on="0"/>
        <pt x="138" y="369" on="1"/>
        <pt x="138" y="287" on="0"/>
        <pt x="162" y="174" on="0"/>
        <pt x="215" y="103" on="0"/>
        <pt x="297" y="72" on="0"/>
        <pt x="354" y="72" on="1"/>
        <pt x="374" y="72" on="0"/>
        <pt x="435" y="76" on="0"/>
        <pt x="462" y="81" on="1"/>
        <pt x="462" y="4" on="1"/>
        <pt x="439" y="-2" on="0"/>
        <pt x="382" y="-10" on="0"/>
      </contour>
    </TTGlyph>
    <TTGlyph name="C.sc" xMin="39" yMin="-8" xMax="413" yMax="584">
      <contour>
        <pt x="307" y="-8" on="1"/>
        <pt x="170" y="-7" on="0"/>
        <pt x="39" y="135" on="0"/>
        <pt x="39" y="288" on="1"/>
        <pt x="39" y="443" on="0"/>
        <pt x="168" y="584" on="0"/>
        <pt x="305" y="584" on="1"/>
        <pt x="329" y="584" on="0"/>
        <pt x="384" y="579" on="0"/>
        <pt x="413" y="574" on="1"/>
        <pt x="413" y="501" on="1"/>
        <pt x="391" y="504" on="0"/>
        <pt x="341" y="508" on="0"/>
        <pt x="318" y="508" on="1"/>
        <pt x="267" y="508" on="0"/>
        <pt x="197" y="486" on="0"/>
        <pt x="153" y="435" on="0"/>
        <pt x="133" y="351" on="0"/>
        <pt x="133" y="288" on="1"/>
        <pt x="133" y="226" on="0"/>
        <pt x="154" y="143" on="0"/>
        <pt x="198" y="91" on="0"/>
        <pt x="267" y="69" on="0"/>
        <pt x="316" y="69" on="1"/>
        <pt x="336" y="69" on="0"/>
        <pt x="390" y="73" on="0"/>
        <pt x="413" y="77" on="1"/>
        <pt x="413" y="6" on="1"/>
        <pt x="393" y="0" on="0"/>
        <pt x="339" y="-8" on="0"/>
      </contour>
    </TTGlyph>
    <TTGlyph name="Cacute" xMin="40" yMin="-10" xMax="462" yMax="939">
      <contour>
        <pt x="345" y="-10" on="1"/>
        <pt x="266" y="-9" on="0"/>
        <pt x="151" y="36" on="0"/>
        <pt x="76" y="128" on="0"/>
        <pt x="40" y="271" on="0"/>
        <pt x="40" y="369" on="1"/>
        <pt x="40" y="470" on="0"/>
        <pt x="76" y="614" on="0"/>
        <pt x="150" y="705" on="0"/>
        <pt x="264" y="748" on="0"/>
        <pt x="343" y="748" on="1"/>
        <pt x="370" y="748" on="0"/>
        <pt x="429" y="743" on="0"/>
        <pt x="462" y="737" on="1"/>
        <pt x="462" y="658" on="1"/>
        <pt x="440" y="663" on="0"/>
        <pt x="383" y="667" on="0"/>
        <pt x="357" y="667" on="1"/>
        <pt x="297" y="667" on="0"/>
        <pt x="214" y="637" on="0"/>
        <pt x="162" y="568" on="0"/>
        <pt x="138" y="454" on="0"/>
        <pt x="138" y="369" on="1"/>
        <pt x="138" y="287" on="0"/>
        <pt x="162" y="174" on="0"/>
        <pt x="215" y="103" on="0"/>
        <pt x="297" y="72" on="0"/>
        <pt x="354" y="72" on="1"/>
        <pt x="374" y="72" on="0"/>
        <pt x="435" y="76" on="0"/>
        <pt x="462" y="81" on="1"/>
        <pt x="462" y="4" on="1"/>
        <pt x="439" y="-2" on="0"/>
        <pt x="382" y="-10" on="0"/>
      </contour>
      <contour>
        <pt x="256" y="792" on="1"/>
        <pt x="328" y="939" on="1"/>
        <pt x="425" y="939" on="1"/>
        <pt x="326" y="786" on="1"/>
      </contour>
    </TTGlyph>
    <TTGlyph name="Cacute.sc" xMin="39" yMin="-8" xMax="413" yMax="742">
      <contour>
        <pt x="307" y="-8" on="1"/>
        <pt x="170" y="-7" on="0"/>
        <pt x="39" y="135" on="0"/>
        <pt x="39" y="288" on="1"/>
        <pt x="39" y="443" on="0"/>
        <pt x="168" y="584" on="0"/>
        <pt x="305" y="584" on="1"/>
        <pt x="329" y="584" on="0"/>
        <pt x="384" y="579" on="0"/>
        <pt x="413" y="574" on="1"/>
        <pt x="413" y="501" on="1"/>
        <pt x="391" y="504" on="0"/>
        <pt x="341" y="508" on="0"/>
        <pt x="318" y="508" on="1"/>
        <pt x="267" y="508" on="0"/>
        <pt x="197" y="486" on="0"/>
        <pt x="153" y="435" on="0"/>
        <pt x="133" y="351" on="0"/>
        <pt x="133" y="288" on="1"/>
        <pt x="133" y="226" on="0"/>
        <pt x="154" y="143" on="0"/>
        <pt x="198" y="91" on="0"/>
        <pt x="267" y="69" on="0"/>
        <pt x="316" y="69" on="1"/>
        <pt x="336" y="69" on="0"/>
        <pt x="390" y="73" on="0"/>
        <pt x="413" y="77" on="1"/>
        <pt x="413" y="6" on="1"/>
        <pt x="393" y="0" on="0"/>
        <pt x="339" y="-8" on="0"/>
      </contour>
      <contour>
        <pt x="226" y="620" on="1"/>
        <pt x="289" y="742" on="1"/>
        <pt x="381" y="742" on="1"/>
        <pt x="292" y="615" on="1"/>
      </contour>
    </TTGlyph>
    <TTGlyph name="Ccaron" xMin="40" yMin="-10" xMax="462" yMax="938">
      <contour>
        <pt x="345" y="-10" on="1"/>
        <pt x="266" y="-9" on="0"/>
        <pt x="151" y="36" on="0"/>
        <pt x="76" y="128" on="0"/>
        <pt x="40" y="271" on="0"/>
        <pt x="40" y="369" on="1"/>
        <pt x="40" y="470" on="0"/>
        <pt x="76" y="614" on="0"/>
        <pt x="150" y="705" on="0"/>
        <pt x="264" y="748" on="0"/>
        <pt x="343" y="748" on="1"/>
        <pt x="370" y="748" on="0"/>
        <pt x="429" y="743" on="0"/>
        <pt x="462" y="737" on="1"/>
        <pt x="462" y="658" on="1"/>
        <pt x="440" y="663" on="0"/>
        <pt x="383" y="667" on="0"/>
        <pt x="357" y="667" on="1"/>
        <pt x="297" y="667" on="0"/>
        <pt x="214" y="637" on="0"/>
        <pt x="162" y="568" on="0"/>
        <pt x="138" y="454" on="0"/>
        <pt x="138" y="369" on="1"/>
        <pt x="138" y="287" on="0"/>
        <pt x="162" y="174" on="0"/>
        <pt x="215" y="103" on="0"/>
        <pt x="297" y="72" on="0"/>
        <pt x="354" y="72" on="1"/>
        <pt x="374" y="72" on="0"/>
        <pt x="435" y="76" on="0"/>
        <pt x="462" y="81" on="1"/>
        <pt x="462" y="4" on="1"/>
        <pt x="439" y="-2" on="0"/>
        <pt x="382" y="-10" on="0"/>
      </contour>
      <contour>
        <pt x="162" y="938" on="1"/>
        <pt x="301" y="866" on="1"/>
        <pt x="441" y="938" on="1"/>
        <pt x="441" y="866" on="1"/>
        <pt x="302" y="794" on="1"/>
        <pt x="162" y="866" on="1"/>
      </contour>
    </TTGlyph>
    <TTGlyph name="Ccaron.sc" xMin="39" yMin="-8" xMax="413" yMax="740">
      <contour>
        <pt x="307" y="-8" on="1"/>
        <pt x="170" y="-7" on="0"/>
        <pt x="39" y="135" on="0"/>
        <pt x="39" y="288" on="1"/>
        <pt x="39" y="443" on="0"/>
        <pt x="168" y="584" on="0"/>
        <pt x="305" y="584" on="1"/>
        <pt x="329" y="584" on="0"/>
        <pt x="384" y="579" on="0"/>
        <pt x="413" y="574" on="1"/>
        <pt x="413" y="501" on="1"/>
        <pt x="391" y="504" on="0"/>
        <pt x="341" y="508" on="0"/>
        <pt x="318" y="508" on="1"/>
        <pt x="267" y="508" on="0"/>
        <pt x="197" y="486" on="0"/>
        <pt x="153" y="435" on="0"/>
        <pt x="133" y="351" on="0"/>
        <pt x="133" y="288" on="1"/>
        <pt x="133" y="226" on="0"/>
        <pt x="154" y="143" on="0"/>
        <pt x="198" y="91" on="0"/>
        <pt x="267" y="69" on="0"/>
        <pt x="316" y="69" on="1"/>
        <pt x="336" y="69" on="0"/>
        <pt x="390" y="73" on="0"/>
        <pt x="413" y="77" on="1"/>
        <pt x="413" y="6" on="1"/>
        <pt x="393" y="0" on="0"/>
        <pt x="339" y="-8" on="0"/>
      </contour>
      <contour>
        <pt x="143" y="740" on="1"/>
        <pt x="269" y="684" on="1"/>
        <pt x="395" y="740" on="1"/>
        <pt x="395" y="675" on="1"/>
        <pt x="269" y="618" on="1"/>
        <pt x="143" y="675" on="1"/>
      </contour>
    </TTGlyph>
    <TTGlyph name="Ccedilla" xMin="40" yMin="-220" xMax="462" yMax="748">
      <contour>
        <pt x="265" y="-220" on="1"/>
        <pt x="232" y="-220" on="0"/>
        <pt x="194" y="-209" on="1"/>
        <pt x="194" y="-146" on="1"/>
        <pt x="208" y="-151" on="0"/>
        <pt x="240" y="-156" on="0"/>
        <pt x="252" y="-156" on="1"/>
        <pt x="308" y="-156" on="0"/>
        <pt x="308" y="-101" on="1"/>
        <pt x="308" y="-59" on="0"/>
        <pt x="277" y="-5" on="1"/>
        <pt x="155" y="14" on="0"/>
        <pt x="40" y="195" on="0"/>
        <pt x="40" y="369" on="1"/>
        <pt x="40" y="470" on="0"/>
        <pt x="76" y="614" on="0"/>
        <pt x="150" y="705" on="0"/>
        <pt x="264" y="748" on="0"/>
        <pt x="343" y="748" on="1"/>
        <pt x="370" y="748" on="0"/>
        <pt x="429" y="743" on="0"/>
        <pt x="462" y="737" on="1"/>
        <pt x="462" y="658" on="1"/>
        <pt x="440" y="663" on="0"/>
        <pt x="383" y="667" on="0"/>
        <pt x="357" y="667" on="1"/>
        <pt x="297" y="667" on="0"/>
        <pt x="214" y="637" on="0"/>
        <pt x="162" y="568" on="0"/>
        <pt x="138" y="454" on="0"/>
        <pt x="138" y="369" on="1"/>
        <pt x="138" y="287" on="0"/>
        <pt x="162" y="174" on="0"/>
        <pt x="215" y="103" on="0"/>
        <pt x="297" y="72" on="0"/>
        <pt x="354" y="72" on="1"/>
        <pt x="374" y="72" on="0"/>
        <pt x="435" y="76" on="0"/>
        <pt x="462" y="81" on="1"/>
        <pt x="462" y="4" on="1"/>
        <pt x="439" y="-2" on="0"/>
        <pt x="382" y="-10" on="0"/>
        <pt x="346" y="-10" on="1"/>
        <pt x="360" y="-37" on="0"/>
        <pt x="375" y="-87" on="0"/>
        <pt x="375" y="-113" on="1"/>
        <pt x="375" y="-164" on="0"/>
        <pt x="318" y="-220" on="0"/>
      </contour>
    </TTGlyph>
    <TTGlyph name="Ccedilla.sc" xMin="39" yMin="-172" xMax="413" yMax="584">
      <contour>
        <pt x="238" y="-172" on="1"/>
        <pt x="224" y="-172" on="0"/>
        <pt x="191" y="-168" on="0"/>
        <pt x="174" y="-163" on="1"/>
        <pt x="174" y="-107" on="1"/>
        <pt x="190" y="-110" on="0"/>
        <pt x="218" y="-113" on="0"/>
        <pt x="227" y="-113" on="1"/>
        <pt x="274" y="-113" on="0"/>
        <pt x="274" y="-75" on="1"/>
        <pt x="274" y="-60" on="0"/>
        <pt x="260" y="-22" on="0"/>
        <pt x="249" y="-3" on="1"/>
        <pt x="140" y="11" on="0"/>
        <pt x="39" y="151" on="0"/>
        <pt x="39" y="288" on="1"/>
        <pt x="39" y="443" on="0"/>
        <pt x="168" y="584" on="0"/>
        <pt x="305" y="584" on="1"/>
        <pt x="329" y="584" on="0"/>
        <pt x="384" y="579" on="0"/>
        <pt x="413" y="574" on="1"/>
        <pt x="413" y="501" on="1"/>
        <pt x="391" y="504" on="0"/>
        <pt x="341" y="508" on="0"/>
        <pt x="318" y="508" on="1"/>
        <pt x="267" y="508" on="0"/>
        <pt x="197" y="486" on="0"/>
        <pt x="153" y="435" on="0"/>
        <pt x="133" y="351" on="0"/>
        <pt x="133" y="288" on="1"/>
        <pt x="133" y="226" on="0"/>
        <pt x="154" y="143" on="0"/>
        <pt x="198" y="91" on="0"/>
        <pt x="267" y="69" on="0"/>
        <pt x="316" y="69" on="1"/>
        <pt x="336" y="69" on="0"/>
        <pt x="390" y="73" on="0"/>
        <pt x="413" y="77" on="1"/>
        <pt x="413" y="6" on="1"/>
        <pt x="393" y="0" on="0"/>
        <pt x="340" y="-8" on="0"/>
        <pt x="313" y="-7" on="1"/>
        <pt x="336" y="-50" on="0"/>
        <pt x="336" y="-87" on="1"/>
        <pt x="336" y="-128" on="0"/>
        <pt x="287" y="-172" on="0"/>
      </contour>
    </TTGlyph>
    <TTGlyph name="Ccircumflex" xMin="40" yMin="-10" xMax="462" yMax="951">
      <contour>
        <pt x="345" y="-10" on="1"/>
        <pt x="266" y="-9" on="0"/>
        <pt x="151" y="36" on="0"/>
        <pt x="76" y="128" on="0"/>
        <pt x="40" y="271" on="0"/>
        <pt x="40" y="369" on="1"/>
        <pt x="40" y="470" on="0"/>
        <pt x="76" y="614" on="0"/>
        <pt x="150" y="705" on="0"/>
        <pt x="264" y="748" on="0"/>
        <pt x="343" y="748" on="1"/>
        <pt x="370" y="748" on="0"/>
        <pt x="429" y="743" on="0"/>
        <pt x="462" y="737" on="1"/>
        <pt x="462" y="658" on="1"/>
        <pt x="440" y="663" on="0"/>
        <pt x="383" y="667" on="0"/>
        <pt x="357" y="667" on="1"/>
        <pt x="297" y="667" on="0"/>
        <pt x="214" y="637" on="0"/>
        <pt x="162" y="568" on="0"/>
        <pt x="138" y="454" on="0"/>
        <pt x="138" y="369" on="1"/>
        <pt x="138" y="287" on="0"/>
        <pt x="162" y="174" on="0"/>
        <pt x="215" y="103" on="0"/>
        <pt x="297" y="72" on="0"/>
        <pt x="354" y="72" on="1"/>
        <pt x="374" y="72" on="0"/>
        <pt x="435" y="76" on="0"/>
        <pt x="462" y="81" on="1"/>
        <pt x="462" y="4" on="1"/>
        <pt x="439" y="-2" on="0"/>
        <pt x="382" y="-10" on="0"/>
      </contour>
      <contour>
        <pt x="155" y="879" on="1"/>
        <pt x="295" y="951" on="1"/>
        <pt x="435" y="879" on="1"/>
        <pt x="435" y="806" on="1"/>
        <pt x="295" y="878" on="1"/>
        <pt x="155" y="806" on="1"/>
      </contour>
    </TTGlyph>
    <TTGlyph name="Ccircumflex.sc" xMin="39" yMin="-8" xMax="413" yMax="747">
      <contour>
        <pt x="307" y="-8" on="1"/>
        <pt x="170" y="-7" on="0"/>
        <pt x="39" y="135" on="0"/>
        <pt x="39" y="288" on="1"/>
        <pt x="39" y="443" on="0"/>
        <pt x="168" y="584" on="0"/>
        <pt x="305" y="584" on="1"/>
        <pt x="329" y="584" on="0"/>
        <pt x="384" y="579" on="0"/>
        <pt x="413" y="574" on="1"/>
        <pt x="413" y="501" on="1"/>
        <pt x="391" y="504" on="0"/>
        <pt x="341" y="508" on="0"/>
        <pt x="318" y="508" on="1"/>
        <pt x="267" y="508" on="0"/>
        <pt x="197" y="486" on="0"/>
        <pt x="153" y="435" on="0"/>
        <pt x="133" y="351" on="0"/>
        <pt x="133" y="288" on="1"/>
        <pt x="133" y="226" on="0"/>
        <pt x="154" y="143" on="0"/>
        <pt x="198" y="91" on="0"/>
        <pt x="267" y="69" on="0"/>
        <pt x="316" y="69" on="1"/>
        <pt x="336" y="69" on="0"/>
        <pt x="390" y="73" on="0"/>
        <pt x="413" y="77" on="1"/>
        <pt x="413" y="6" on="1"/>
        <pt x="393" y="0" on="0"/>
        <pt x="339" y="-8" on="0"/>
      </contour>
      <contour>
        <pt x="137" y="691" on="1"/>
        <pt x="264" y="747" on="1"/>
        <pt x="390" y="691" on="1"/>
        <pt x="390" y="626" on="1"/>
        <pt x="264" y="682" on="1"/>
        <pt x="137" y="626" on="1"/>
      </contour>
    </TTGlyph>
    <TTGlyph name="Cdotaccent" xMin="40" yMin="-10" xMax="462" yMax="911">
      <contour>
        <pt x="295" y="799" on="1"/>
        <pt x="238" y="799" on="0"/>
        <pt x="238" y="854" on="1"/>
        <pt x="238" y="884" on="0"/>
        <pt x="267" y="911" on="0"/>
        <pt x="295" y="911" on="1"/>
        <pt x="353" y="911" on="0"/>
        <pt x="353" y="854" on="1"/>
        <pt x="353" y="825" on="0"/>
        <pt x="323" y="799" on="0"/>
      </contour>
      <contour>
        <pt x="345" y="-10" on="1"/>
        <pt x="266" y="-9" on="0"/>
        <pt x="151" y="36" on="0"/>
        <pt x="76" y="128" on="0"/>
        <pt x="40" y="271" on="0"/>
        <pt x="40" y="369" on="1"/>
        <pt x="40" y="470" on="0"/>
        <pt x="76" y="614" on="0"/>
        <pt x="150" y="705" on="0"/>
        <pt x="264" y="748" on="0"/>
        <pt x="343" y="748" on="1"/>
        <pt x="370" y="748" on="0"/>
        <pt x="429" y="743" on="0"/>
        <pt x="462" y="737" on="1"/>
        <pt x="462" y="658" on="1"/>
        <pt x="440" y="663" on="0"/>
        <pt x="383" y="667" on="0"/>
        <pt x="357" y="667" on="1"/>
        <pt x="297" y="667" on="0"/>
        <pt x="214" y="637" on="0"/>
        <pt x="162" y="568" on="0"/>
        <pt x="138" y="454" on="0"/>
        <pt x="138" y="369" on="1"/>
        <pt x="138" y="287" on="0"/>
        <pt x="162" y="174" on="0"/>
        <pt x="215" y="103" on="0"/>
        <pt x="297" y="72" on="0"/>
        <pt x="354" y="72" on="1"/>
        <pt x="374" y="72" on="0"/>
        <pt x="435" y="76" on="0"/>
        <pt x="462" y="81" on="1"/>
        <pt x="462" y="4" on="1"/>
        <pt x="439" y="-2" on="0"/>
        <pt x="382" y="-10" on="0"/>
      </contour>
    </TTGlyph>
    <TTGlyph name="Cdotaccent.sc" xMin="39" yMin="-8" xMax="413" yMax="725">
      <contour>
        <pt x="307" y="-8" on="1"/>
        <pt x="170" y="-7" on="0"/>
        <pt x="39" y="135" on="0"/>
        <pt x="39" y="288" on="1"/>
        <pt x="39" y="443" on="0"/>
        <pt x="168" y="584" on="0"/>
        <pt x="305" y="584" on="1"/>
        <pt x="329" y="584" on="0"/>
        <pt x="384" y="579" on="0"/>
        <pt x="413" y="574" on="1"/>
        <pt x="413" y="501" on="1"/>
        <pt x="391" y="504" on="0"/>
        <pt x="341" y="508" on="0"/>
        <pt x="318" y="508" on="1"/>
        <pt x="267" y="508" on="0"/>
        <pt x="197" y="486" on="0"/>
        <pt x="153" y="435" on="0"/>
        <pt x="133" y="351" on="0"/>
        <pt x="133" y="288" on="1"/>
        <pt x="133" y="226" on="0"/>
        <pt x="154" y="143" on="0"/>
        <pt x="198" y="91" on="0"/>
        <pt x="267" y="69" on="0"/>
        <pt x="316" y="69" on="1"/>
        <pt x="336" y="69" on="0"/>
        <pt x="390" y="73" on="0"/>
        <pt x="413" y="77" on="1"/>
        <pt x="413" y="6" on="1"/>
        <pt x="393" y="0" on="0"/>
        <pt x="339" y="-8" on="0"/>
      </contour>
      <contour>
        <pt x="264" y="623" on="1"/>
        <pt x="238" y="623" on="0"/>
        <pt x="211" y="647" on="0"/>
        <pt x="211" y="675" on="1"/>
        <pt x="211" y="725" on="0"/>
        <pt x="264" y="725" on="1"/>
        <pt x="318" y="725" on="0"/>
        <pt x="318" y="675" on="1"/>
        <pt x="318" y="647" on="0"/>
        <pt x="290" y="623" on="0"/>
      </contour>
    </TTGlyph>
    <TTGlyph name="D" xMin="70" yMin="-16" xMax="557" yMax="750">
      <contour>
        <pt x="206" y="-16" on="1"/>
        <pt x="176" y="-16" on="0"/>
        <pt x="111" y="-12" on="0"/>
        <pt x="70" y="-7" on="1"/>
        <pt x="70" y="735" on="1"/>
        <pt x="123" y="743" on="0"/>
        <pt x="200" y="750" on="0"/>
        <pt x="234" y="750" on="1"/>
        <pt x="403" y="750" on="0"/>
        <pt x="557" y="568" on="0"/>
        <pt x="557" y="369" on="1"/>
        <pt x="557" y="267" on="0"/>
        <pt x="517" y="122" on="0"/>
        <pt x="432" y="28" on="0"/>
        <pt x="299" y="-16" on="0"/>
      </contour>
      <contour>
        <pt x="234" y="65" on="1"/>
        <pt x="351" y="65" on="0"/>
        <pt x="458" y="207" on="0"/>
        <pt x="458" y="369" on="1"/>
        <pt x="458" y="451" on="0"/>
        <pt x="434" y="566" on="0"/>
        <pt x="383" y="638" on="0"/>
        <pt x="302" y="671" on="0"/>
        <pt x="245" y="671" on="1"/>
        <pt x="222" y="671" on="0"/>
        <pt x="183" y="667" on="0"/>
        <pt x="163" y="663" on="1"/>
        <pt x="163" y="70" on="1"/>
        <pt x="186" y="68" on="0"/>
        <pt x="219" y="65" on="0"/>
      </contour>
    </TTGlyph>
    <TTGlyph name="D.sc" xMin="66" yMin="-12" xMax="503" yMax="585">
      <contour>
        <pt x="192" y="-12" on="1"/>
        <pt x="163" y="-12" on="0"/>
        <pt x="102" y="-8" on="0"/>
        <pt x="66" y="-3" on="1"/>
        <pt x="66" y="575" on="1"/>
        <pt x="114" y="580" on="0"/>
        <pt x="184" y="585" on="0"/>
        <pt x="213" y="585" on="1"/>
        <pt x="366" y="585" on="0"/>
        <pt x="503" y="444" on="0"/>
        <pt x="503" y="288" on="1"/>
        <pt x="503" y="208" on="0"/>
        <pt x="468" y="94" on="0"/>
        <pt x="392" y="22" on="0"/>
        <pt x="274" y="-12" on="0"/>
      </contour>
      <contour>
        <pt x="219" y="64" on="1"/>
        <pt x="319" y="64" on="0"/>
        <pt x="409" y="166" on="0"/>
        <pt x="409" y="288" on="1"/>
        <pt x="409" y="349" on="0"/>
        <pt x="389" y="434" on="0"/>
        <pt x="345" y="487" on="0"/>
        <pt x="275" y="510" on="0"/>
        <pt x="225" y="510" on="1"/>
        <pt x="206" y="510" on="0"/>
        <pt x="171" y="508" on="0"/>
        <pt x="154" y="505" on="1"/>
        <pt x="154" y="68" on="1"/>
        <pt x="176" y="66" on="0"/>
        <pt x="205" y="64" on="0"/>
      </contour>
    </TTGlyph>
    <TTGlyph name="Dcaron" xMin="70" yMin="-16" xMax="557" yMax="938">
      <contour>
        <pt x="139" y="938" on="1"/>
        <pt x="278" y="866" on="1"/>
        <pt x="418" y="938" on="1"/>
        <pt x="418" y="866" on="1"/>
        <pt x="279" y="794" on="1"/>
        <pt x="139" y="866" on="1"/>
      </contour>
      <contour>
        <pt x="206" y="-16" on="1"/>
        <pt x="176" y="-16" on="0"/>
        <pt x="111" y="-12" on="0"/>
        <pt x="70" y="-7" on="1"/>
        <pt x="70" y="735" on="1"/>
        <pt x="123" y="743" on="0"/>
        <pt x="200" y="750" on="0"/>
        <pt x="234" y="750" on="1"/>
        <pt x="403" y="750" on="0"/>
        <pt x="557" y="568" on="0"/>
        <pt x="557" y="369" on="1"/>
        <pt x="557" y="267" on="0"/>
        <pt x="517" y="122" on="0"/>
        <pt x="432" y="28" on="0"/>
        <pt x="299" y="-16" on="0"/>
      </contour>
      <contour>
        <pt x="234" y="65" on="1"/>
        <pt x="351" y="65" on="0"/>
        <pt x="458" y="207" on="0"/>
        <pt x="458" y="369" on="1"/>
        <pt x="458" y="451" on="0"/>
        <pt x="434" y="566" on="0"/>
        <pt x="383" y="638" on="0"/>
        <pt x="302" y="671" on="0"/>
        <pt x="245" y="671" on="1"/>
        <pt x="222" y="671" on="0"/>
        <pt x="183" y="667" on="0"/>
        <pt x="163" y="663" on="1"/>
        <pt x="163" y="70" on="1"/>
        <pt x="186" y="68" on="0"/>
        <pt x="219" y="65" on="0"/>
      </contour>
    </TTGlyph>
    <TTGlyph name="Dcaron.sc" xMin="66" yMin="-12" xMax="503" yMax="740">
      <contour>
        <pt x="192" y="-12" on="1"/>
        <pt x="163" y="-12" on="0"/>
        <pt x="102" y="-8" on="0"/>
        <pt x="66" y="-3" on="1"/>
        <pt x="66" y="575" on="1"/>
        <pt x="114" y="580" on="0"/>
        <pt x="184" y="585" on="0"/>
        <pt x="213" y="585" on="1"/>
        <pt x="366" y="585" on="0"/>
        <pt x="503" y="444" on="0"/>
        <pt x="503" y="288" on="1"/>
        <pt x="503" y="208" on="0"/>
        <pt x="468" y="94" on="0"/>
        <pt x="392" y="22" on="0"/>
        <pt x="274" y="-12" on="0"/>
      </contour>
      <contour>
        <pt x="219" y="64" on="1"/>
        <pt x="319" y="64" on="0"/>
        <pt x="409" y="166" on="0"/>
        <pt x="409" y="288" on="1"/>
        <pt x="409" y="349" on="0"/>
        <pt x="389" y="434" on="0"/>
        <pt x="345" y="487" on="0"/>
        <pt x="275" y="510" on="0"/>
        <pt x="225" y="510" on="1"/>
        <pt x="206" y="510" on="0"/>
        <pt x="171" y="508" on="0"/>
        <pt x="154" y="505" on="1"/>
        <pt x="154" y="68" on="1"/>
        <pt x="176" y="66" on="0"/>
        <pt x="205" y="64" on="0"/>
      </contour>
      <contour>
        <pt x="128" y="675" on="1"/>
        <pt x="128" y="740" on="1"/>
        <pt x="256" y="684" on="1"/>
        <pt x="381" y="740" on="1"/>
        <pt x="381" y="675" on="1"/>
        <pt x="256" y="618" on="1"/>
      </contour>
    </TTGlyph>
    <TTGlyph name="Dcroat" xMin="-1" yMin="-16" xMax="572" yMax="750">
      <contour>
        <pt x="-1" y="408" on="1"/>
        <pt x="85" y="408" on="1"/>
        <pt x="85" y="735" on="1"/>
        <pt x="138" y="743" on="0"/>
        <pt x="215" y="750" on="0"/>
        <pt x="249" y="750" on="1"/>
        <pt x="418" y="750" on="0"/>
        <pt x="572" y="568" on="0"/>
        <pt x="572" y="369" on="1"/>
        <pt x="572" y="267" on="0"/>
        <pt x="532" y="122" on="0"/>
        <pt x="447" y="28" on="0"/>
        <pt x="314" y="-16" on="0"/>
        <pt x="221" y="-16" on="1"/>
        <pt x="191" y="-16" on="0"/>
        <pt x="126" y="-12" on="0"/>
        <pt x="85" y="-7" on="1"/>
        <pt x="85" y="332" on="1"/>
        <pt x="-1" y="332" on="1"/>
      </contour>
      <contour>
        <pt x="249" y="65" on="1"/>
        <pt x="366" y="65" on="0"/>
        <pt x="473" y="207" on="0"/>
        <pt x="473" y="369" on="1"/>
        <pt x="473" y="451" on="0"/>
        <pt x="449" y="566" on="0"/>
        <pt x="398" y="638" on="0"/>
        <pt x="317" y="671" on="0"/>
        <pt x="260" y="671" on="1"/>
        <pt x="237" y="671" on="0"/>
        <pt x="198" y="667" on="0"/>
        <pt x="178" y="663" on="1"/>
        <pt x="178" y="408" on="1"/>
        <pt x="307" y="408" on="1"/>
        <pt x="307" y="332" on="1"/>
        <pt x="178" y="332" on="1"/>
        <pt x="178" y="70" on="1"/>
        <pt x="201" y="68" on="0"/>
        <pt x="234" y="65" on="0"/>
      </contour>
    </TTGlyph>
    <TTGlyph name="Dcroat.sc" xMin="5" yMin="-12" xMax="516" yMax="585">
      <contour>
        <pt x="5" y="324" on="1"/>
        <pt x="79" y="324" on="1"/>
        <pt x="79" y="575" on="1"/>
        <pt x="127" y="580" on="0"/>
        <pt x="198" y="585" on="0"/>
        <pt x="228" y="585" on="1"/>
        <pt x="304" y="585" on="0"/>
        <pt x="413" y="551" on="0"/>
        <pt x="483" y="478" on="0"/>
        <pt x="516" y="366" on="0"/>
        <pt x="516" y="288" on="1"/>
        <pt x="516" y="208" on="0"/>
        <pt x="481" y="94" on="0"/>
        <pt x="406" y="22" on="0"/>
        <pt x="288" y="-12" on="0"/>
        <pt x="205" y="-12" on="1"/>
        <pt x="152" y="-12" on="0"/>
        <pt x="79" y="-3" on="1"/>
        <pt x="79" y="253" on="1"/>
        <pt x="5" y="253" on="1"/>
      </contour>
      <contour>
        <pt x="233" y="64" on="1"/>
        <pt x="283" y="64" on="0"/>
        <pt x="355" y="88" on="0"/>
        <pt x="402" y="142" on="0"/>
        <pt x="424" y="227" on="0"/>
        <pt x="424" y="288" on="1"/>
        <pt x="424" y="349" on="0"/>
        <pt x="404" y="434" on="0"/>
        <pt x="359" y="487" on="0"/>
        <pt x="289" y="510" on="0"/>
        <pt x="239" y="510" on="1"/>
        <pt x="219" y="510" on="0"/>
        <pt x="185" y="508" on="0"/>
        <pt x="168" y="505" on="1"/>
        <pt x="168" y="324" on="1"/>
        <pt x="278" y="324" on="1"/>
        <pt x="278" y="253" on="1"/>
        <pt x="168" y="253" on="1"/>
        <pt x="168" y="68" on="1"/>
        <pt x="188" y="66" on="0"/>
        <pt x="219" y="64" on="0"/>
      </contour>
    </TTGlyph>
    <TTGlyph name="Ddotbelow" xMin="70" yMin="-183" xMax="557" yMax="750">
      <contour>
        <pt x="279" y="-183" on="1"/>
        <pt x="253" y="-183" on="0"/>
        <pt x="228" y="-159" on="0"/>
        <pt x="228" y="-131" on="1"/>
        <pt x="228" y="-104" on="0"/>
        <pt x="253" y="-81" on="0"/>
        <pt x="279" y="-81" on="1"/>
        <pt x="305" y="-81" on="0"/>
        <pt x="331" y="-104" on="0"/>
        <pt x="331" y="-131" on="1"/>
        <pt x="331" y="-159" on="0"/>
        <pt x="305" y="-183" on="0"/>
      </contour>
      <contour>
        <pt x="206" y="-16" on="1"/>
        <pt x="176" y="-16" on="0"/>
        <pt x="111" y="-12" on="0"/>
        <pt x="70" y="-7" on="1"/>
        <pt x="70" y="735" on="1"/>
        <pt x="123" y="743" on="0"/>
        <pt x="200" y="750" on="0"/>
        <pt x="234" y="750" on="1"/>
        <pt x="403" y="750" on="0"/>
        <pt x="557" y="568" on="0"/>
        <pt x="557" y="369" on="1"/>
        <pt x="557" y="267" on="0"/>
        <pt x="517" y="122" on="0"/>
        <pt x="432" y="28" on="0"/>
        <pt x="299" y="-16" on="0"/>
      </contour>
      <contour>
        <pt x="234" y="65" on="1"/>
        <pt x="351" y="65" on="0"/>
        <pt x="458" y="207" on="0"/>
        <pt x="458" y="369" on="1"/>
        <pt x="458" y="451" on="0"/>
        <pt x="434" y="566" on="0"/>
        <pt x="383" y="638" on="0"/>
        <pt x="302" y="671" on="0"/>
        <pt x="245" y="671" on="1"/>
        <pt x="222" y="671" on="0"/>
        <pt x="183" y="667" on="0"/>
        <pt x="163" y="663" on="1"/>
        <pt x="163" y="70" on="1"/>
        <pt x="186" y="68" on="0"/>
        <pt x="219" y="65" on="0"/>
      </contour>
    </TTGlyph>
    <TTGlyph name="Ddotbelow.sc" xMin="66" yMin="-148" xMax="503" yMax="585">
      <contour>
        <pt x="192" y="-12" on="1"/>
        <pt x="163" y="-12" on="0"/>
        <pt x="102" y="-8" on="0"/>
        <pt x="66" y="-3" on="1"/>
        <pt x="66" y="575" on="1"/>
        <pt x="114" y="580" on="0"/>
        <pt x="184" y="585" on="0"/>
        <pt x="213" y="585" on="1"/>
        <pt x="366" y="585" on="0"/>
        <pt x="503" y="444" on="0"/>
        <pt x="503" y="288" on="1"/>
        <pt x="503" y="208" on="0"/>
        <pt x="468" y="94" on="0"/>
        <pt x="392" y="22" on="0"/>
        <pt x="274" y="-12" on="0"/>
      </contour>
      <contour>
        <pt x="219" y="64" on="1"/>
        <pt x="319" y="64" on="0"/>
        <pt x="409" y="166" on="0"/>
        <pt x="409" y="288" on="1"/>
        <pt x="409" y="349" on="0"/>
        <pt x="389" y="434" on="0"/>
        <pt x="345" y="487" on="0"/>
        <pt x="275" y="510" on="0"/>
        <pt x="225" y="510" on="1"/>
        <pt x="206" y="510" on="0"/>
        <pt x="171" y="508" on="0"/>
        <pt x="154" y="505" on="1"/>
        <pt x="154" y="68" on="1"/>
        <pt x="176" y="66" on="0"/>
        <pt x="205" y="64" on="0"/>
      </contour>
      <contour>
        <pt x="255" y="-148" on="1"/>
        <pt x="232" y="-148" on="0"/>
        <pt x="208" y="-128" on="0"/>
        <pt x="208" y="-105" on="1"/>
        <pt x="208" y="-81" on="0"/>
        <pt x="232" y="-60" on="0"/>
        <pt x="255" y="-60" on="1"/>
        <pt x="278" y="-60" on="0"/>
        <pt x="303" y="-81" on="0"/>
        <pt x="303" y="-105" on="1"/>
        <pt x="303" y="-128" on="0"/>
        <pt x="278" y="-148" on="0"/>
      </contour>
    </TTGlyph>
    <TTGlyph name="Delta" xMin="20" yMin="0" xMax="599" yMax="740">
      <contour>
        <pt x="249" y="740" on="1"/>
        <pt x="370" y="740" on="1"/>
        <pt x="599" y="0" on="1"/>
        <pt x="20" y="0" on="1"/>
      </contour>
      <contour>
        <pt x="486" y="82" on="1"/>
        <pt x="309" y="652" on="1"/>
        <pt x="132" y="82" on="1"/>
      </contour>
    </TTGlyph>
    <TTGlyph name="E" xMin="70" yMin="0" xMax="479" yMax="740">
      <contour>
        <pt x="70" y="740" on="1"/>
        <pt x="470" y="740" on="1"/>
        <pt x="470" y="658" on="1"/>
        <pt x="164" y="658" on="1"/>
        <pt x="164" y="415" on="1"/>
        <pt x="437" y="415" on="1"/>
        <pt x="437" y="333" on="1"/>
        <pt x="164" y="333" on="1"/>
        <pt x="164" y="82" on="1"/>
        <pt x="479" y="82" on="1"/>
        <pt x="479" y="0" on="1"/>
        <pt x="70" y="0" on="1"/>
      </contour>
    </TTGlyph>
    <TTGlyph name="E.sc" xMin="66" yMin="0" xMax="432" yMax="577">
      <contour>
        <pt x="66" y="577" on="1"/>
        <pt x="425" y="577" on="1"/>
        <pt x="425" y="502" on="1"/>
        <pt x="156" y="502" on="1"/>
        <pt x="156" y="328" on="1"/>
        <pt x="397" y="328" on="1"/>
        <pt x="397" y="254" on="1"/>
        <pt x="156" y="254" on="1"/>
        <pt x="156" y="76" on="1"/>
        <pt x="432" y="76" on="1"/>
        <pt x="432" y="0" on="1"/>
        <pt x="66" y="0" on="1"/>
      </contour>
    </TTGlyph>
    <TTGlyph name="Eacute" xMin="70" yMin="0" xMax="479" yMax="939">
      <contour>
        <pt x="231" y="792" on="1"/>
        <pt x="303" y="939" on="1"/>
        <pt x="400" y="939" on="1"/>
        <pt x="301" y="786" on="1"/>
      </contour>
      <contour>
        <pt x="70" y="740" on="1"/>
        <pt x="470" y="740" on="1"/>
        <pt x="470" y="658" on="1"/>
        <pt x="164" y="658" on="1"/>
        <pt x="164" y="415" on="1"/>
        <pt x="437" y="415" on="1"/>
        <pt x="437" y="333" on="1"/>
        <pt x="164" y="333" on="1"/>
        <pt x="164" y="82" on="1"/>
        <pt x="479" y="82" on="1"/>
        <pt x="479" y="0" on="1"/>
        <pt x="70" y="0" on="1"/>
      </contour>
    </TTGlyph>
    <TTGlyph name="Eacute.sc" xMin="66" yMin="0" xMax="432" yMax="742">
      <contour>
        <pt x="66" y="577" on="1"/>
        <pt x="425" y="577" on="1"/>
        <pt x="425" y="502" on="1"/>
        <pt x="156" y="502" on="1"/>
        <pt x="156" y="328" on="1"/>
        <pt x="397" y="328" on="1"/>
        <pt x="397" y="254" on="1"/>
        <pt x="156" y="254" on="1"/>
        <pt x="156" y="76" on="1"/>
        <pt x="432" y="76" on="1"/>
        <pt x="432" y="0" on="1"/>
        <pt x="66" y="0" on="1"/>
      </contour>
      <contour>
        <pt x="208" y="620" on="1"/>
        <pt x="271" y="742" on="1"/>
        <pt x="363" y="742" on="1"/>
        <pt x="275" y="615" on="1"/>
      </contour>
    </TTGlyph>
    <TTGlyph name="Ebreve" xMin="70" yMin="0" xMax="479" yMax="958">
      <contour>
        <pt x="272" y="806" on="1"/>
        <pt x="197" y="806" on="0"/>
        <pt x="116" y="887" on="0"/>
        <pt x="116" y="958" on="1"/>
        <pt x="185" y="958" on="1"/>
        <pt x="185" y="860" on="0"/>
        <pt x="272" y="860" on="1"/>
        <pt x="358" y="860" on="0"/>
        <pt x="358" y="958" on="1"/>
        <pt x="427" y="958" on="1"/>
        <pt x="427" y="888" on="0"/>
        <pt x="346" y="806" on="0"/>
      </contour>
      <contour>
        <pt x="70" y="740" on="1"/>
        <pt x="470" y="740" on="1"/>
        <pt x="470" y="658" on="1"/>
        <pt x="164" y="658" on="1"/>
        <pt x="164" y="415" on="1"/>
        <pt x="437" y="415" on="1"/>
        <pt x="437" y="333" on="1"/>
        <pt x="164" y="333" on="1"/>
        <pt x="164" y="82" on="1"/>
        <pt x="479" y="82" on="1"/>
        <pt x="479" y="0" on="1"/>
        <pt x="70" y="0" on="1"/>
      </contour>
    </TTGlyph>
    <TTGlyph name="Ebreve.sc" xMin="66" yMin="0" xMax="432" yMax="751">
      <contour>
        <pt x="247" y="626" on="1"/>
        <pt x="180" y="626" on="0"/>
        <pt x="107" y="693" on="0"/>
        <pt x="107" y="751" on="1"/>
        <pt x="172" y="751" on="1"/>
        <pt x="172" y="674" on="0"/>
        <pt x="247" y="674" on="1"/>
        <pt x="322" y="674" on="0"/>
        <pt x="322" y="751" on="1"/>
        <pt x="386" y="751" on="1"/>
        <pt x="386" y="693" on="0"/>
        <pt x="314" y="626" on="0"/>
      </contour>
      <contour>
        <pt x="66" y="577" on="1"/>
        <pt x="425" y="577" on="1"/>
        <pt x="425" y="502" on="1"/>
        <pt x="156" y="502" on="1"/>
        <pt x="156" y="328" on="1"/>
        <pt x="397" y="328" on="1"/>
        <pt x="397" y="254" on="1"/>
        <pt x="156" y="254" on="1"/>
        <pt x="156" y="76" on="1"/>
        <pt x="432" y="76" on="1"/>
        <pt x="432" y="0" on="1"/>
        <pt x="66" y="0" on="1"/>
      </contour>
    </TTGlyph>
    <TTGlyph name="Ecaron" xMin="70" yMin="0" xMax="479" yMax="938">
      <contour>
        <pt x="137" y="938" on="1"/>
        <pt x="276" y="866" on="1"/>
        <pt x="416" y="938" on="1"/>
        <pt x="416" y="866" on="1"/>
        <pt x="277" y="794" on="1"/>
        <pt x="137" y="866" on="1"/>
      </contour>
      <contour>
        <pt x="70" y="740" on="1"/>
        <pt x="470" y="740" on="1"/>
        <pt x="470" y="658" on="1"/>
        <pt x="164" y="658" on="1"/>
        <pt x="164" y="415" on="1"/>
        <pt x="437" y="415" on="1"/>
        <pt x="437" y="333" on="1"/>
        <pt x="164" y="333" on="1"/>
        <pt x="164" y="82" on="1"/>
        <pt x="479" y="82" on="1"/>
        <pt x="479" y="0" on="1"/>
        <pt x="70" y="0" on="1"/>
      </contour>
    </TTGlyph>
    <TTGlyph name="Ecaron.sc" xMin="66" yMin="0" xMax="432" yMax="740">
      <contour>
        <pt x="66" y="577" on="1"/>
        <pt x="425" y="577" on="1"/>
        <pt x="425" y="502" on="1"/>
        <pt x="156" y="502" on="1"/>
        <pt x="156" y="328" on="1"/>
        <pt x="397" y="328" on="1"/>
        <pt x="397" y="254" on="1"/>
        <pt x="156" y="254" on="1"/>
        <pt x="156" y="76" on="1"/>
        <pt x="432" y="76" on="1"/>
        <pt x="432" y="0" on="1"/>
        <pt x="66" y="0" on="1"/>
      </contour>
      <contour>
        <pt x="126" y="675" on="1"/>
        <pt x="126" y="740" on="1"/>
        <pt x="252" y="684" on="1"/>
        <pt x="378" y="740" on="1"/>
        <pt x="378" y="675" on="1"/>
        <pt x="252" y="618" on="1"/>
      </contour>
    </TTGlyph>
    <TTGlyph name="Ecircumflex" xMin="70" yMin="0" xMax="479" yMax="951">
      <contour>
        <pt x="70" y="740" on="1"/>
        <pt x="470" y="740" on="1"/>
        <pt x="470" y="658" on="1"/>
        <pt x="164" y="658" on="1"/>
        <pt x="164" y="415" on="1"/>
        <pt x="437" y="415" on="1"/>
        <pt x="437" y="333" on="1"/>
        <pt x="164" y="333" on="1"/>
        <pt x="164" y="82" on="1"/>
        <pt x="479" y="82" on="1"/>
        <pt x="479" y="0" on="1"/>
        <pt x="70" y="0" on="1"/>
      </contour>
      <contour>
        <pt x="130" y="879" on="1"/>
        <pt x="270" y="951" on="1"/>
        <pt x="410" y="879" on="1"/>
        <pt x="410" y="806" on="1"/>
        <pt x="270" y="878" on="1"/>
        <pt x="130" y="806" on="1"/>
      </contour>
    </TTGlyph>
    <TTGlyph name="Ecircumflex.sc" xMin="66" yMin="0" xMax="432" yMax="747">
      <contour>
        <pt x="66" y="577" on="1"/>
        <pt x="425" y="577" on="1"/>
        <pt x="425" y="502" on="1"/>
        <pt x="156" y="502" on="1"/>
        <pt x="156" y="328" on="1"/>
        <pt x="397" y="328" on="1"/>
        <pt x="397" y="254" on="1"/>
        <pt x="156" y="254" on="1"/>
        <pt x="156" y="76" on="1"/>
        <pt x="432" y="76" on="1"/>
        <pt x="432" y="0" on="1"/>
        <pt x="66" y="0" on="1"/>
      </contour>
      <contour>
        <pt x="121" y="691" on="1"/>
        <pt x="247" y="747" on="1"/>
        <pt x="373" y="691" on="1"/>
        <pt x="373" y="626" on="1"/>
        <pt x="247" y="682" on="1"/>
        <pt x="121" y="626" on="1"/>
      </contour>
    </TTGlyph>
    <TTGlyph name="Edblgrave" xMin="70" yMin="0" xMax="479" yMax="939">
      <contour>
        <pt x="70" y="740" on="1"/>
        <pt x="470" y="740" on="1"/>
        <pt x="470" y="658" on="1"/>
        <pt x="164" y="658" on="1"/>
        <pt x="164" y="415" on="1"/>
        <pt x="437" y="415" on="1"/>
        <pt x="437" y="333" on="1"/>
        <pt x="164" y="333" on="1"/>
        <pt x="164" y="82" on="1"/>
        <pt x="479" y="82" on="1"/>
        <pt x="479" y="0" on="1"/>
        <pt x="70" y="0" on="1"/>
      </contour>
      <contour>
        <pt x="170" y="786" on="1"/>
        <pt x="71" y="939" on="1"/>
        <pt x="153" y="939" on="1"/>
        <pt x="227" y="799" on="1"/>
      </contour>
      <contour>
        <pt x="325" y="786" on="1"/>
        <pt x="225" y="939" on="1"/>
        <pt x="308" y="939" on="1"/>
        <pt x="381" y="799" on="1"/>
      </contour>
    </TTGlyph>
    <TTGlyph name="Edblgrave.sc" xMin="66" yMin="0" xMax="432" yMax="742">
      <contour>
        <pt x="66" y="577" on="1"/>
        <pt x="425" y="577" on="1"/>
        <pt x="425" y="502" on="1"/>
        <pt x="156" y="502" on="1"/>
        <pt x="156" y="328" on="1"/>
        <pt x="397" y="328" on="1"/>
        <pt x="397" y="254" on="1"/>
        <pt x="156" y="254" on="1"/>
        <pt x="156" y="76" on="1"/>
        <pt x="432" y="76" on="1"/>
        <pt x="432" y="0" on="1"/>
        <pt x="66" y="0" on="1"/>
      </contour>
      <contour>
        <pt x="66" y="742" on="1"/>
        <pt x="146" y="742" on="1"/>
        <pt x="208" y="624" on="1"/>
        <pt x="155" y="614" on="1"/>
      </contour>
      <contour>
        <pt x="205" y="742" on="1"/>
        <pt x="284" y="742" on="1"/>
        <pt x="346" y="624" on="1"/>
        <pt x="293" y="614" on="1"/>
      </contour>
    </TTGlyph>
    <TTGlyph name="Edieresis" xMin="70" yMin="0" xMax="479" yMax="920">
      <contour>
        <pt x="168" y="808" on="1"/>
        <pt x="111" y="808" on="0"/>
        <pt x="111" y="864" on="1"/>
        <pt x="111" y="920" on="0"/>
        <pt x="168" y="920" on="1"/>
        <pt x="226" y="920" on="0"/>
        <pt x="226" y="864" on="1"/>
        <pt x="226" y="834" on="0"/>
        <pt x="196" y="808" on="0"/>
      </contour>
      <contour>
        <pt x="371" y="808" on="1"/>
        <pt x="315" y="808" on="0"/>
        <pt x="315" y="864" on="1"/>
        <pt x="315" y="920" on="0"/>
        <pt x="371" y="920" on="1"/>
        <pt x="429" y="920" on="0"/>
        <pt x="429" y="864" on="1"/>
        <pt x="429" y="834" on="0"/>
        <pt x="399" y="808" on="0"/>
      </contour>
      <contour>
        <pt x="70" y="740" on="1"/>
        <pt x="470" y="740" on="1"/>
        <pt x="470" y="658" on="1"/>
        <pt x="164" y="658" on="1"/>
        <pt x="164" y="415" on="1"/>
        <pt x="437" y="415" on="1"/>
        <pt x="437" y="333" on="1"/>
        <pt x="164" y="333" on="1"/>
        <pt x="164" y="82" on="1"/>
        <pt x="479" y="82" on="1"/>
        <pt x="479" y="0" on="1"/>
        <pt x="70" y="0" on="1"/>
      </contour>
    </TTGlyph>
    <TTGlyph name="Edieresis.sc" xMin="66" yMin="0" xMax="432" yMax="731">
      <contour>
        <pt x="154" y="629" on="1"/>
        <pt x="127" y="629" on="0"/>
        <pt x="101" y="653" on="0"/>
        <pt x="101" y="680" on="1"/>
        <pt x="101" y="707" on="0"/>
        <pt x="127" y="731" on="0"/>
        <pt x="154" y="731" on="1"/>
        <pt x="180" y="731" on="0"/>
        <pt x="208" y="706" on="0"/>
        <pt x="208" y="680" on="1"/>
        <pt x="208" y="653" on="0"/>
        <pt x="180" y="629" on="0"/>
      </contour>
      <contour>
        <pt x="339" y="629" on="1"/>
        <pt x="313" y="629" on="0"/>
        <pt x="286" y="653" on="0"/>
        <pt x="286" y="680" on="1"/>
        <pt x="286" y="707" on="0"/>
        <pt x="313" y="731" on="0"/>
        <pt x="339" y="731" on="1"/>
        <pt x="365" y="731" on="0"/>
        <pt x="393" y="706" on="0"/>
        <pt x="393" y="680" on="1"/>
        <pt x="393" y="653" on="0"/>
        <pt x="365" y="629" on="0"/>
      </contour>
      <contour>
        <pt x="66" y="577" on="1"/>
        <pt x="425" y="577" on="1"/>
        <pt x="425" y="502" on="1"/>
        <pt x="156" y="502" on="1"/>
        <pt x="156" y="328" on="1"/>
        <pt x="397" y="328" on="1"/>
        <pt x="397" y="254" on="1"/>
        <pt x="156" y="254" on="1"/>
        <pt x="156" y="76" on="1"/>
        <pt x="432" y="76" on="1"/>
        <pt x="432" y="0" on="1"/>
        <pt x="66" y="0" on="1"/>
      </contour>
    </TTGlyph>
    <TTGlyph name="Edotaccent" xMin="70" yMin="0" xMax="479" yMax="911">
      <contour>
        <pt x="270" y="799" on="1"/>
        <pt x="213" y="799" on="0"/>
        <pt x="213" y="854" on="1"/>
        <pt x="213" y="884" on="0"/>
        <pt x="242" y="911" on="0"/>
        <pt x="270" y="911" on="1"/>
        <pt x="328" y="911" on="0"/>
        <pt x="328" y="854" on="1"/>
        <pt x="328" y="825" on="0"/>
        <pt x="298" y="799" on="0"/>
      </contour>
      <contour>
        <pt x="70" y="740" on="1"/>
        <pt x="470" y="740" on="1"/>
        <pt x="470" y="658" on="1"/>
        <pt x="164" y="658" on="1"/>
        <pt x="164" y="415" on="1"/>
        <pt x="437" y="415" on="1"/>
        <pt x="437" y="333" on="1"/>
        <pt x="164" y="333" on="1"/>
        <pt x="164" y="82" on="1"/>
        <pt x="479" y="82" on="1"/>
        <pt x="479" y="0" on="1"/>
        <pt x="70" y="0" on="1"/>
      </contour>
    </TTGlyph>
    <TTGlyph name="Edotaccent.sc" xMin="66" yMin="0" xMax="432" yMax="725">
      <contour>
        <pt x="246" y="623" on="1"/>
        <pt x="219" y="623" on="0"/>
        <pt x="194" y="647" on="0"/>
        <pt x="194" y="675" on="1"/>
        <pt x="194" y="725" on="0"/>
        <pt x="246" y="725" on="1"/>
        <pt x="299" y="725" on="0"/>
        <pt x="299" y="675" on="1"/>
        <pt x="299" y="647" on="0"/>
        <pt x="272" y="623" on="0"/>
      </contour>
      <contour>
        <pt x="66" y="577" on="1"/>
        <pt x="425" y="577" on="1"/>
        <pt x="425" y="502" on="1"/>
        <pt x="156" y="502" on="1"/>
        <pt x="156" y="328" on="1"/>
        <pt x="397" y="328" on="1"/>
        <pt x="397" y="254" on="1"/>
        <pt x="156" y="254" on="1"/>
        <pt x="156" y="76" on="1"/>
        <pt x="432" y="76" on="1"/>
        <pt x="432" y="0" on="1"/>
        <pt x="66" y="0" on="1"/>
      </contour>
    </TTGlyph>
    <TTGlyph name="Edotbelow" xMin="70" yMin="-183" xMax="479" yMax="740">
      <contour>
        <pt x="70" y="740" on="1"/>
        <pt x="470" y="740" on="1"/>
        <pt x="470" y="658" on="1"/>
        <pt x="164" y="658" on="1"/>
        <pt x="164" y="415" on="1"/>
        <pt x="437" y="415" on="1"/>
        <pt x="437" y="333" on="1"/>
        <pt x="164" y="333" on="1"/>
        <pt x="164" y="82" on="1"/>
        <pt x="479" y="82" on="1"/>
        <pt x="479" y="0" on="1"/>
        <pt x="70" y="0" on="1"/>
      </contour>
      <contour>
        <pt x="283" y="-183" on="1"/>
        <pt x="257" y="-183" on="0"/>
        <pt x="232" y="-159" on="0"/>
        <pt x="232" y="-131" on="1"/>
        <pt x="232" y="-104" on="0"/>
        <pt x="257" y="-81" on="0"/>
        <pt x="283" y="-81" on="1"/>
        <pt x="309" y="-81" on="0"/>
        <pt x="335" y="-104" on="0"/>
        <pt x="335" y="-131" on="1"/>
        <pt x="335" y="-159" on="0"/>
        <pt x="309" y="-183" on="0"/>
      </contour>
    </TTGlyph>
    <TTGlyph name="Edotbelow.sc" xMin="66" yMin="-148" xMax="432" yMax="577">
      <contour>
        <pt x="257" y="-148" on="1"/>
        <pt x="234" y="-148" on="0"/>
        <pt x="211" y="-128" on="0"/>
        <pt x="211" y="-105" on="1"/>
        <pt x="211" y="-81" on="0"/>
        <pt x="234" y="-60" on="0"/>
        <pt x="257" y="-60" on="1"/>
        <pt x="281" y="-60" on="0"/>
        <pt x="305" y="-81" on="0"/>
        <pt x="305" y="-105" on="1"/>
        <pt x="305" y="-128" on="0"/>
        <pt x="281" y="-148" on="0"/>
      </contour>
      <contour>
        <pt x="66" y="577" on="1"/>
        <pt x="425" y="577" on="1"/>
        <pt x="425" y="502" on="1"/>
        <pt x="156" y="502" on="1"/>
        <pt x="156" y="328" on="1"/>
        <pt x="397" y="328" on="1"/>
        <pt x="397" y="254" on="1"/>
        <pt x="156" y="254" on="1"/>
        <pt x="156" y="76" on="1"/>
        <pt x="432" y="76" on="1"/>
        <pt x="432" y="0" on="1"/>
        <pt x="66" y="0" on="1"/>
      </contour>
    </TTGlyph>
    <TTGlyph name="Egrave" xMin="70" yMin="0" xMax="479" yMax="939">
      <contour>
        <pt x="231" y="786" on="1"/>
        <pt x="132" y="939" on="1"/>
        <pt x="229" y="939" on="1"/>
        <pt x="302" y="799" on="1"/>
      </contour>
      <contour>
        <pt x="70" y="740" on="1"/>
        <pt x="470" y="740" on="1"/>
        <pt x="470" y="658" on="1"/>
        <pt x="164" y="658" on="1"/>
        <pt x="164" y="415" on="1"/>
        <pt x="437" y="415" on="1"/>
        <pt x="437" y="333" on="1"/>
        <pt x="164" y="333" on="1"/>
        <pt x="164" y="82" on="1"/>
        <pt x="479" y="82" on="1"/>
        <pt x="479" y="0" on="1"/>
        <pt x="70" y="0" on="1"/>
      </contour>
    </TTGlyph>
    <TTGlyph name="Egrave.sc" xMin="66" yMin="0" xMax="432" yMax="742">
      <contour>
        <pt x="66" y="577" on="1"/>
        <pt x="425" y="577" on="1"/>
        <pt x="425" y="502" on="1"/>
        <pt x="156" y="502" on="1"/>
        <pt x="156" y="328" on="1"/>
        <pt x="397" y="328" on="1"/>
        <pt x="397" y="254" on="1"/>
        <pt x="156" y="254" on="1"/>
        <pt x="156" y="76" on="1"/>
        <pt x="432" y="76" on="1"/>
        <pt x="432" y="0" on="1"/>
        <pt x="66" y="0" on="1"/>
      </contour>
      <contour>
        <pt x="123" y="742" on="1"/>
        <pt x="214" y="742" on="1"/>
        <pt x="277" y="624" on="1"/>
        <pt x="211" y="615" on="1"/>
      </contour>
    </TTGlyph>
    <TTGlyph name="Einvertedbreve" xMin="70" yMin="0" xMax="479" yMax="968">
      <contour>
        <pt x="70" y="740" on="1"/>
        <pt x="470" y="740" on="1"/>
        <pt x="470" y="658" on="1"/>
        <pt x="164" y="658" on="1"/>
        <pt x="164" y="415" on="1"/>
        <pt x="437" y="415" on="1"/>
        <pt x="437" y="333" on="1"/>
        <pt x="164" y="333" on="1"/>
        <pt x="164" y="82" on="1"/>
        <pt x="479" y="82" on="1"/>
        <pt x="479" y="0" on="1"/>
        <pt x="70" y="0" on="1"/>
      </contour>
      <contour>
        <pt x="357" y="816" on="1"/>
        <pt x="357" y="915" on="0"/>
        <pt x="271" y="915" on="1"/>
        <pt x="184" y="915" on="0"/>
        <pt x="184" y="816" on="1"/>
        <pt x="115" y="816" on="1"/>
        <pt x="115" y="888" on="0"/>
        <pt x="196" y="968" on="0"/>
        <pt x="271" y="968" on="1"/>
        <pt x="345" y="968" on="0"/>
        <pt x="426" y="888" on="0"/>
        <pt x="426" y="816" on="1"/>
      </contour>
    </TTGlyph>
    <TTGlyph name="Einvertedbreve.sc" xMin="66" yMin="0" xMax="432" yMax="758">
      <contour>
        <pt x="107" y="634" on="1"/>
        <pt x="107" y="693" on="0"/>
        <pt x="178" y="758" on="0"/>
        <pt x="247" y="758" on="1"/>
        <pt x="313" y="758" on="0"/>
        <pt x="387" y="693" on="0"/>
        <pt x="387" y="634" on="1"/>
        <pt x="322" y="634" on="1"/>
        <pt x="322" y="711" on="0"/>
        <pt x="247" y="711" on="1"/>
        <pt x="171" y="711" on="0"/>
        <pt x="171" y="634" on="1"/>
      </contour>
      <contour>
        <pt x="66" y="577" on="1"/>
        <pt x="425" y="577" on="1"/>
        <pt x="425" y="502" on="1"/>
        <pt x="156" y="502" on="1"/>
        <pt x="156" y="328" on="1"/>
        <pt x="397" y="328" on="1"/>
        <pt x="397" y="254" on="1"/>
        <pt x="156" y="254" on="1"/>
        <pt x="156" y="76" on="1"/>
        <pt x="432" y="76" on="1"/>
        <pt x="432" y="0" on="1"/>
        <pt x="66" y="0" on="1"/>
      </contour>
    </TTGlyph>
    <TTGlyph name="Emacron" xMin="70" yMin="0" xMax="479" yMax="907">
      <contour>
        <pt x="134" y="907" on="1"/>
        <pt x="394" y="907" on="1"/>
        <pt x="394" y="840" on="1"/>
        <pt x="134" y="840" on="1"/>
      </contour>
      <contour>
        <pt x="70" y="740" on="1"/>
        <pt x="470" y="740" on="1"/>
        <pt x="470" y="658" on="1"/>
        <pt x="164" y="658" on="1"/>
        <pt x="164" y="415" on="1"/>
        <pt x="437" y="415" on="1"/>
        <pt x="437" y="333" on="1"/>
        <pt x="164" y="333" on="1"/>
        <pt x="164" y="82" on="1"/>
        <pt x="479" y="82" on="1"/>
        <pt x="479" y="0" on="1"/>
        <pt x="70" y="0" on="1"/>
      </contour>
    </TTGlyph>
    <TTGlyph name="Emacron.sc" xMin="66" yMin="0" xMax="432" yMax="717">
      <contour>
        <pt x="66" y="577" on="1"/>
        <pt x="425" y="577" on="1"/>
        <pt x="425" y="502" on="1"/>
        <pt x="156" y="502" on="1"/>
        <pt x="156" y="328" on="1"/>
        <pt x="397" y="328" on="1"/>
        <pt x="397" y="254" on="1"/>
        <pt x="156" y="254" on="1"/>
        <pt x="156" y="76" on="1"/>
        <pt x="432" y="76" on="1"/>
        <pt x="432" y="0" on="1"/>
        <pt x="66" y="0" on="1"/>
      </contour>
      <contour>
        <pt x="124" y="717" on="1"/>
        <pt x="360" y="717" on="1"/>
        <pt x="360" y="655" on="1"/>
        <pt x="124" y="655" on="1"/>
      </contour>
    </TTGlyph>
    <TTGlyph name="Eng" xMin="70" yMin="-190" xMax="589" yMax="740">
      <contour>
        <pt x="423" y="-169" on="1"/>
        <pt x="445" y="-118" on="0"/>
        <pt x="478" y="-18" on="0"/>
        <pt x="487" y="28" on="1"/>
        <pt x="206" y="491" on="1"/>
        <pt x="163" y="577" on="1"/>
        <pt x="155" y="576" on="1"/>
        <pt x="155" y="0" on="1"/>
        <pt x="70" y="0" on="1"/>
        <pt x="70" y="740" on="1"/>
        <pt x="154" y="740" on="1"/>
        <pt x="454" y="247" on="1"/>
        <pt x="496" y="164" on="1"/>
        <pt x="502" y="164" on="1"/>
        <pt x="502" y="740" on="1"/>
        <pt x="589" y="740" on="1"/>
        <pt x="589" y="79" on="1"/>
        <pt x="589" y="56" on="0"/>
        <pt x="573" y="-9" on="0"/>
        <pt x="546" y="-82" on="0"/>
        <pt x="509" y="-157" on="0"/>
        <pt x="488" y="-190" on="1"/>
      </contour>
    </TTGlyph>
    <TTGlyph name="Eng.sc" xMin="67" yMin="-152" xMax="529" yMax="577">
      <contour>
        <pt x="378" y="-132" on="1"/>
        <pt x="398" y="-90" on="0"/>
        <pt x="426" y="-10" on="0"/>
        <pt x="433" y="28" on="1"/>
        <pt x="192" y="357" on="1"/>
        <pt x="154" y="423" on="1"/>
        <pt x="148" y="423" on="1"/>
        <pt x="148" y="0" on="1"/>
        <pt x="67" y="0" on="1"/>
        <pt x="67" y="577" on="1"/>
        <pt x="145" y="577" on="1"/>
        <pt x="404" y="220" on="1"/>
        <pt x="441" y="155" on="1"/>
        <pt x="448" y="155" on="1"/>
        <pt x="448" y="577" on="1"/>
        <pt x="529" y="577" on="1"/>
        <pt x="529" y="70" on="1"/>
        <pt x="529" y="51" on="0"/>
        <pt x="515" y="-3" on="0"/>
        <pt x="491" y="-63" on="0"/>
        <pt x="458" y="-125" on="0"/>
        <pt x="439" y="-152" on="1"/>
      </contour>
    </TTGlyph>
    <TTGlyph name="Eogonek" xMin="70" yMin="-220" xMax="479" yMax="740">
      <contour>
        <pt x="70" y="740" on="1"/>
        <pt x="470" y="740" on="1"/>
        <pt x="470" y="658" on="1"/>
        <pt x="164" y="658" on="1"/>
        <pt x="164" y="415" on="1"/>
        <pt x="437" y="415" on="1"/>
        <pt x="437" y="333" on="1"/>
        <pt x="164" y="333" on="1"/>
        <pt x="164" y="82" on="1"/>
        <pt x="479" y="82" on="1"/>
        <pt x="479" y="-14" on="1"/>
        <pt x="430" y="-33" on="0"/>
        <pt x="383" y="-93" on="0"/>
        <pt x="383" y="-122" on="1"/>
        <pt x="383" y="-158" on="0"/>
        <pt x="426" y="-158" on="1"/>
        <pt x="455" y="-158" on="0"/>
        <pt x="479" y="-147" on="1"/>
        <pt x="479" y="-208" on="1"/>
        <pt x="463" y="-214" on="0"/>
        <pt x="433" y="-220" on="0"/>
        <pt x="416" y="-220" on="1"/>
        <pt x="316" y="-220" on="0"/>
        <pt x="316" y="-129" on="1"/>
        <pt x="316" y="-58" on="0"/>
        <pt x="402" y="0" on="1"/>
        <pt x="70" y="0" on="1"/>
      </contour>
    </TTGlyph>
    <TTGlyph name="Eogonek.sc" xMin="67" yMin="-172" xMax="433" yMax="577">
      <contour>
        <pt x="376" y="-172" on="1"/>
        <pt x="285" y="-172" on="0"/>
        <pt x="285" y="-99" on="1"/>
        <pt x="285" y="-70" on="0"/>
        <pt x="320" y="-23" on="0"/>
        <pt x="358" y="0" on="1"/>
        <pt x="67" y="0" on="1"/>
        <pt x="67" y="577" on="1"/>
        <pt x="425" y="577" on="1"/>
        <pt x="425" y="502" on="1"/>
        <pt x="156" y="502" on="1"/>
        <pt x="156" y="328" on="1"/>
        <pt x="397" y="328" on="1"/>
        <pt x="397" y="254" on="1"/>
        <pt x="156" y="254" on="1"/>
        <pt x="156" y="76" on="1"/>
        <pt x="432" y="76" on="1"/>
        <pt x="432" y="-9" on="1"/>
        <pt x="388" y="-26" on="0"/>
        <pt x="348" y="-71" on="0"/>
        <pt x="348" y="-91" on="1"/>
        <pt x="348" y="-117" on="0"/>
        <pt x="384" y="-117" on="1"/>
        <pt x="397" y="-117" on="0"/>
        <pt x="422" y="-111" on="0"/>
        <pt x="433" y="-108" on="1"/>
        <pt x="433" y="-162" on="1"/>
        <pt x="418" y="-167" on="0"/>
        <pt x="391" y="-172" on="0"/>
      </contour>
    </TTGlyph>
    <TTGlyph name="Eth" xMin="-1" yMin="-16" xMax="572" yMax="750">
      <contour>
        <pt x="-1" y="408" on="1"/>
        <pt x="85" y="408" on="1"/>
        <pt x="85" y="735" on="1"/>
        <pt x="138" y="743" on="0"/>
        <pt x="215" y="750" on="0"/>
        <pt x="249" y="750" on="1"/>
        <pt x="418" y="750" on="0"/>
        <pt x="572" y="568" on="0"/>
        <pt x="572" y="369" on="1"/>
        <pt x="572" y="267" on="0"/>
        <pt x="532" y="122" on="0"/>
        <pt x="447" y="28" on="0"/>
        <pt x="314" y="-16" on="0"/>
        <pt x="221" y="-16" on="1"/>
        <pt x="191" y="-16" on="0"/>
        <pt x="126" y="-12" on="0"/>
        <pt x="85" y="-7" on="1"/>
        <pt x="85" y="332" on="1"/>
        <pt x="-1" y="332" on="1"/>
      </contour>
      <contour>
        <pt x="249" y="65" on="1"/>
        <pt x="366" y="65" on="0"/>
        <pt x="473" y="207" on="0"/>
        <pt x="473" y="369" on="1"/>
        <pt x="473" y="451" on="0"/>
        <pt x="449" y="566" on="0"/>
        <pt x="398" y="638" on="0"/>
        <pt x="317" y="671" on="0"/>
        <pt x="260" y="671" on="1"/>
        <pt x="237" y="671" on="0"/>
        <pt x="198" y="667" on="0"/>
        <pt x="178" y="663" on="1"/>
        <pt x="178" y="408" on="1"/>
        <pt x="307" y="408" on="1"/>
        <pt x="307" y="332" on="1"/>
        <pt x="178" y="332" on="1"/>
        <pt x="178" y="70" on="1"/>
        <pt x="201" y="68" on="0"/>
        <pt x="234" y="65" on="0"/>
      </contour>
    </TTGlyph>
    <TTGlyph name="Eth.sc" xMin="5" yMin="-12" xMax="516" yMax="585">
      <contour>
        <pt x="5" y="324" on="1"/>
        <pt x="79" y="324" on="1"/>
        <pt x="79" y="575" on="1"/>
        <pt x="127" y="580" on="0"/>
        <pt x="198" y="585" on="0"/>
        <pt x="228" y="585" on="1"/>
        <pt x="304" y="585" on="0"/>
        <pt x="413" y="551" on="0"/>
        <pt x="483" y="478" on="0"/>
        <pt x="516" y="366" on="0"/>
        <pt x="516" y="288" on="1"/>
        <pt x="516" y="208" on="0"/>
        <pt x="481" y="94" on="0"/>
        <pt x="406" y="22" on="0"/>
        <pt x="288" y="-12" on="0"/>
        <pt x="205" y="-12" on="1"/>
        <pt x="152" y="-12" on="0"/>
        <pt x="79" y="-3" on="1"/>
        <pt x="79" y="253" on="1"/>
        <pt x="5" y="253" on="1"/>
      </contour>
      <contour>
        <pt x="233" y="64" on="1"/>
        <pt x="283" y="64" on="0"/>
        <pt x="355" y="88" on="0"/>
        <pt x="402" y="142" on="0"/>
        <pt x="424" y="227" on="0"/>
        <pt x="424" y="288" on="1"/>
        <pt x="424" y="349" on="0"/>
        <pt x="404" y="434" on="0"/>
        <pt x="359" y="487" on="0"/>
        <pt x="289" y="510" on="0"/>
        <pt x="239" y="510" on="1"/>
        <pt x="219" y="510" on="0"/>
        <pt x="185" y="508" on="0"/>
        <pt x="168" y="505" on="1"/>
        <pt x="168" y="324" on="1"/>
        <pt x="278" y="324" on="1"/>
        <pt x="278" y="253" on="1"/>
        <pt x="168" y="253" on="1"/>
        <pt x="168" y="68" on="1"/>
        <pt x="188" y="66" on="0"/>
        <pt x="219" y="64" on="0"/>
      </contour>
    </TTGlyph>
    <TTGlyph name="Etilde" xMin="70" yMin="0" xMax="479" yMax="924">
      <contour>
        <pt x="111" y="844" on="1"/>
        <pt x="131" y="880" on="0"/>
        <pt x="190" y="924" on="0"/>
        <pt x="219" y="924" on="1"/>
        <pt x="238" y="924" on="0"/>
        <pt x="272" y="911" on="0"/>
        <pt x="303" y="896" on="0"/>
        <pt x="335" y="883" on="0"/>
        <pt x="352" y="883" on="1"/>
        <pt x="385" y="883" on="0"/>
        <pt x="414" y="922" on="1"/>
        <pt x="439" y="901" on="1"/>
        <pt x="422" y="862" on="0"/>
        <pt x="364" y="818" on="0"/>
        <pt x="334" y="818" on="1"/>
        <pt x="315" y="818" on="0"/>
        <pt x="282" y="831" on="0"/>
        <pt x="251" y="846" on="0"/>
        <pt x="219" y="859" on="0"/>
        <pt x="201" y="859" on="1"/>
        <pt x="166" y="859" on="0"/>
        <pt x="134" y="821" on="1"/>
      </contour>
      <contour>
        <pt x="70" y="740" on="1"/>
        <pt x="470" y="740" on="1"/>
        <pt x="470" y="658" on="1"/>
        <pt x="164" y="658" on="1"/>
        <pt x="164" y="415" on="1"/>
        <pt x="437" y="415" on="1"/>
        <pt x="437" y="333" on="1"/>
        <pt x="164" y="333" on="1"/>
        <pt x="164" y="82" on="1"/>
        <pt x="479" y="82" on="1"/>
        <pt x="479" y="0" on="1"/>
        <pt x="70" y="0" on="1"/>
      </contour>
    </TTGlyph>
    <TTGlyph name="Etilde.sc" xMin="66" yMin="0" xMax="432" yMax="729">
      <contour>
        <pt x="103" y="658" on="1"/>
        <pt x="123" y="691" on="0"/>
        <pt x="176" y="729" on="0"/>
        <pt x="202" y="729" on="1"/>
        <pt x="219" y="729" on="0"/>
        <pt x="248" y="719" on="0"/>
        <pt x="277" y="707" on="0"/>
        <pt x="305" y="697" on="0"/>
        <pt x="321" y="697" on="1"/>
        <pt x="353" y="697" on="0"/>
        <pt x="378" y="728" on="1"/>
        <pt x="400" y="711" on="1"/>
        <pt x="383" y="676" on="0"/>
        <pt x="330" y="637" on="0"/>
        <pt x="304" y="637" on="1"/>
        <pt x="287" y="637" on="0"/>
        <pt x="257" y="647" on="0"/>
        <pt x="229" y="660" on="0"/>
        <pt x="200" y="670" on="0"/>
        <pt x="184" y="670" on="1"/>
        <pt x="151" y="670" on="0"/>
        <pt x="123" y="639" on="1"/>
      </contour>
      <contour>
        <pt x="66" y="577" on="1"/>
        <pt x="425" y="577" on="1"/>
        <pt x="425" y="502" on="1"/>
        <pt x="156" y="502" on="1"/>
        <pt x="156" y="328" on="1"/>
        <pt x="397" y="328" on="1"/>
        <pt x="397" y="254" on="1"/>
        <pt x="156" y="254" on="1"/>
        <pt x="156" y="76" on="1"/>
        <pt x="432" y="76" on="1"/>
        <pt x="432" y="0" on="1"/>
        <pt x="66" y="0" on="1"/>
      </contour>
    </TTGlyph>
    <TTGlyph name="Euro" xMin="35" yMin="-10" xMax="493" yMax="749">
      <contour>
        <pt x="35" y="484" on="1"/>
        <pt x="113" y="484" on="1"/>
        <pt x="133" y="622" on="0"/>
        <pt x="277" y="749" on="0"/>
        <pt x="410" y="749" on="1"/>
        <pt x="436" y="749" on="0"/>
        <pt x="475" y="745" on="0"/>
        <pt x="493" y="740" on="1"/>
        <pt x="472" y="663" on="1"/>
        <pt x="458" y="665" on="0"/>
        <pt x="435" y="666" on="0"/>
        <pt x="421" y="666" on="1"/>
        <pt x="373" y="666" on="0"/>
        <pt x="300" y="647" on="0"/>
        <pt x="248" y="603" on="0"/>
        <pt x="216" y="534" on="0"/>
        <pt x="209" y="484" on="1"/>
        <pt x="424" y="484" on="1"/>
        <pt x="404" y="423" on="1"/>
        <pt x="203" y="423" on="1"/>
        <pt x="202" y="410" on="0"/>
        <pt x="202" y="383" on="0"/>
        <pt x="202" y="369" on="1"/>
        <pt x="202" y="355" on="0"/>
        <pt x="202" y="328" on="0"/>
        <pt x="203" y="316" on="1"/>
        <pt x="392" y="316" on="1"/>
        <pt x="372" y="255" on="1"/>
        <pt x="209" y="255" on="1"/>
        <pt x="224" y="157" on="0"/>
        <pt x="323" y="72" on="0"/>
        <pt x="418" y="72" on="1"/>
        <pt x="449" y="72" on="0"/>
        <pt x="484" y="80" on="1"/>
        <pt x="484" y="-1" on="1"/>
        <pt x="454" y="-10" on="0"/>
        <pt x="410" y="-10" on="1"/>
        <pt x="279" y="-8" on="0"/>
        <pt x="133" y="119" on="0"/>
        <pt x="113" y="255" on="1"/>
        <pt x="35" y="255" on="1"/>
        <pt x="35" y="316" on="1"/>
        <pt x="107" y="316" on="1"/>
        <pt x="106" y="329" on="0"/>
        <pt x="106" y="355" on="0"/>
        <pt x="106" y="369" on="1"/>
        <pt x="106" y="383" on="0"/>
        <pt x="106" y="409" on="0"/>
        <pt x="107" y="423" on="1"/>
        <pt x="35" y="423" on="1"/>
      </contour>
    </TTGlyph>
    <TTGlyph name="Euro.tab" xMin="32" yMin="-10" xMax="495" yMax="749">
      <contour>
        <pt x="32" y="484" on="1"/>
        <pt x="111" y="484" on="1"/>
        <pt x="131" y="622" on="0"/>
        <pt x="277" y="749" on="0"/>
        <pt x="410" y="749" on="1"/>
        <pt x="437" y="749" on="0"/>
        <pt x="476" y="745" on="0"/>
        <pt x="495" y="740" on="1"/>
        <pt x="474" y="663" on="1"/>
        <pt x="460" y="665" on="0"/>
        <pt x="436" y="666" on="0"/>
        <pt x="421" y="666" on="1"/>
        <pt x="324" y="666" on="0"/>
        <pt x="223" y="583" on="0"/>
        <pt x="209" y="484" on="1"/>
        <pt x="424" y="484" on="1"/>
        <pt x="404" y="423" on="1"/>
        <pt x="201" y="423" on="1"/>
        <pt x="199" y="413" on="0"/>
        <pt x="199" y="380" on="0"/>
        <pt x="199" y="369" on="1"/>
        <pt x="199" y="358" on="0"/>
        <pt x="199" y="326" on="0"/>
        <pt x="201" y="316" on="1"/>
        <pt x="391" y="316" on="1"/>
        <pt x="371" y="255" on="1"/>
        <pt x="209" y="255" on="1"/>
        <pt x="224" y="158" on="0"/>
        <pt x="325" y="72" on="0"/>
        <pt x="419" y="72" on="1"/>
        <pt x="450" y="72" on="0"/>
        <pt x="485" y="80" on="1"/>
        <pt x="485" y="-1" on="1"/>
        <pt x="456" y="-10" on="0"/>
        <pt x="410" y="-10" on="1"/>
        <pt x="279" y="-8" on="0"/>
        <pt x="132" y="119" on="0"/>
        <pt x="111" y="255" on="1"/>
        <pt x="32" y="255" on="1"/>
        <pt x="32" y="316" on="1"/>
        <pt x="104" y="316" on="1"/>
        <pt x="103" y="329" on="0"/>
        <pt x="103" y="355" on="0"/>
        <pt x="103" y="369" on="1"/>
        <pt x="103" y="383" on="0"/>
        <pt x="103" y="410" on="0"/>
        <pt x="104" y="423" on="1"/>
        <pt x="32" y="423" on="1"/>
      </contour>
    </TTGlyph>
    <TTGlyph name="F" xMin="70" yMin="0" xMax="454" yMax="740">
      <contour>
        <pt x="70" y="740" on="1"/>
        <pt x="454" y="740" on="1"/>
        <pt x="454" y="658" on="1"/>
        <pt x="164" y="658" on="1"/>
        <pt x="164" y="407" on="1"/>
        <pt x="432" y="407" on="1"/>
        <pt x="432" y="325" on="1"/>
        <pt x="164" y="325" on="1"/>
        <pt x="164" y="0" on="1"/>
        <pt x="70" y="0" on="1"/>
      </contour>
    </TTGlyph>
    <TTGlyph name="F.sc" xMin="66" yMin="0" xMax="412" yMax="577">
      <contour>
        <pt x="66" y="577" on="1"/>
        <pt x="412" y="577" on="1"/>
        <pt x="412" y="501" on="1"/>
        <pt x="156" y="501" on="1"/>
        <pt x="156" y="322" on="1"/>
        <pt x="392" y="322" on="1"/>
        <pt x="392" y="245" on="1"/>
        <pt x="156" y="245" on="1"/>
        <pt x="156" y="0" on="1"/>
        <pt x="66" y="0" on="1"/>
      </contour>
    </TTGlyph>
    <TTGlyph name="F_B.sc" xMin="66" yMin="-8" xMax="906" yMax="585">
      <contour>
        <pt x="66" y="577" on="1"/>
        <pt x="412" y="577" on="1"/>
        <pt x="412" y="501" on="1"/>
        <pt x="156" y="501" on="1"/>
        <pt x="156" y="322" on="1"/>
        <pt x="392" y="322" on="1"/>
        <pt x="392" y="245" on="1"/>
        <pt x="156" y="245" on="1"/>
        <pt x="156" y="0" on="1"/>
        <pt x="66" y="0" on="1"/>
      </contour>
      <contour>
        <pt x="669" y="-8" on="1"/>
        <pt x="628" y="-8" on="0"/>
        <pt x="532" y="-1" on="0"/>
        <pt x="498" y="4" on="1"/>
        <pt x="498" y="574" on="1"/>
        <pt x="526" y="577" on="0"/>
        <pt x="573" y="581" on="0"/>
        <pt x="612" y="584" on="0"/>
        <pt x="647" y="585" on="0"/>
        <pt x="664" y="585" on="1"/>
        <pt x="780" y="585" on="0"/>
        <pt x="888" y="508" on="0"/>
        <pt x="888" y="426" on="1"/>
        <pt x="888" y="373" on="0"/>
        <pt x="837" y="308" on="0"/>
        <pt x="787" y="297" on="1"/>
        <pt x="787" y="294" on="1"/>
        <pt x="844" y="285" on="0"/>
        <pt x="906" y="213" on="0"/>
        <pt x="906" y="155" on="1"/>
        <pt x="906" y="-8" on="0"/>
      </contour>
      <contour>
        <pt x="681" y="61" on="1"/>
        <pt x="818" y="61" on="0"/>
        <pt x="818" y="160" on="1"/>
        <pt x="818" y="213" on="0"/>
        <pt x="750" y="258" on="0"/>
        <pt x="670" y="258" on="1"/>
        <pt x="582" y="258" on="1"/>
        <pt x="582" y="67" on="1"/>
        <pt x="594" y="65" on="0"/>
        <pt x="652" y="61" on="0"/>
      </contour>
      <contour>
        <pt x="669" y="323" on="1"/>
        <pt x="740" y="323" on="0"/>
        <pt x="797" y="367" on="0"/>
        <pt x="797" y="421" on="1"/>
        <pt x="797" y="470" on="0"/>
        <pt x="737" y="515" on="0"/>
        <pt x="673" y="515" on="1"/>
        <pt x="650" y="515" on="0"/>
        <pt x="607" y="512" on="0"/>
        <pt x="582" y="509" on="1"/>
        <pt x="582" y="323" on="1"/>
      </contour>
    </TTGlyph>
    <TTGlyph name="F_F.sc" xMin="66" yMin="0" xMax="843" yMax="577">
      <contour>
        <pt x="66" y="577" on="1"/>
        <pt x="412" y="577" on="1"/>
        <pt x="412" y="501" on="1"/>
        <pt x="156" y="501" on="1"/>
        <pt x="156" y="322" on="1"/>
        <pt x="392" y="322" on="1"/>
        <pt x="392" y="245" on="1"/>
        <pt x="156" y="245" on="1"/>
        <pt x="156" y="0" on="1"/>
        <pt x="66" y="0" on="1"/>
      </contour>
      <contour>
        <pt x="497" y="577" on="1"/>
        <pt x="843" y="577" on="1"/>
        <pt x="843" y="501" on="1"/>
        <pt x="587" y="501" on="1"/>
        <pt x="587" y="322" on="1"/>
        <pt x="823" y="322" on="1"/>
        <pt x="823" y="245" on="1"/>
        <pt x="587" y="245" on="1"/>
        <pt x="587" y="0" on="1"/>
        <pt x="497" y="0" on="1"/>
      </contour>
    </TTGlyph>
    <TTGlyph name="F_F_B.sc" xMin="66" yMin="-8" xMax="1336" yMax="585">
      <contour>
        <pt x="66" y="577" on="1"/>
        <pt x="412" y="577" on="1"/>
        <pt x="412" y="501" on="1"/>
        <pt x="156" y="501" on="1"/>
        <pt x="156" y="322" on="1"/>
        <pt x="392" y="322" on="1"/>
        <pt x="392" y="245" on="1"/>
        <pt x="156" y="245" on="1"/>
        <pt x="156" y="0" on="1"/>
        <pt x="66" y="0" on="1"/>
      </contour>
      <contour>
        <pt x="497" y="577" on="1"/>
        <pt x="843" y="577" on="1"/>
        <pt x="843" y="501" on="1"/>
        <pt x="587" y="501" on="1"/>
        <pt x="587" y="322" on="1"/>
        <pt x="823" y="322" on="1"/>
        <pt x="823" y="245" on="1"/>
        <pt x="587" y="245" on="1"/>
        <pt x="587" y="0" on="1"/>
        <pt x="497" y="0" on="1"/>
      </contour>
      <contour>
        <pt x="1099" y="-8" on="1"/>
        <pt x="1058" y="-8" on="0"/>
        <pt x="962" y="-1" on="0"/>
        <pt x="928" y="4" on="1"/>
        <pt x="928" y="574" on="1"/>
        <pt x="956" y="577" on="0"/>
        <pt x="1003" y="581" on="0"/>
        <pt x="1042" y="584" on="0"/>
        <pt x="1077" y="585" on="0"/>
        <pt x="1094" y="585" on="1"/>
        <pt x="1210" y="585" on="0"/>
        <pt x="1318" y="508" on="0"/>
        <pt x="1318" y="426" on="1"/>
        <pt x="1318" y="373" on="0"/>
        <pt x="1267" y="308" on="0"/>
        <pt x="1217" y="297" on="1"/>
        <pt x="1217" y="294" on="1"/>
        <pt x="1274" y="285" on="0"/>
        <pt x="1336" y="213" on="0"/>
        <pt x="1336" y="155" on="1"/>
        <pt x="1336" y="-8" on="0"/>
      </contour>
      <contour>
        <pt x="1111" y="61" on="1"/>
        <pt x="1248" y="61" on="0"/>
        <pt x="1248" y="160" on="1"/>
        <pt x="1248" y="213" on="0"/>
        <pt x="1180" y="258" on="0"/>
        <pt x="1100" y="258" on="1"/>
        <pt x="1012" y="258" on="1"/>
        <pt x="1012" y="67" on="1"/>
        <pt x="1024" y="65" on="0"/>
        <pt x="1082" y="61" on="0"/>
      </contour>
      <contour>
        <pt x="1099" y="323" on="1"/>
        <pt x="1170" y="323" on="0"/>
        <pt x="1227" y="367" on="0"/>
        <pt x="1227" y="421" on="1"/>
        <pt x="1227" y="470" on="0"/>
        <pt x="1167" y="515" on="0"/>
        <pt x="1103" y="515" on="1"/>
        <pt x="1080" y="515" on="0"/>
        <pt x="1037" y="512" on="0"/>
        <pt x="1012" y="509" on="1"/>
        <pt x="1012" y="323" on="1"/>
      </contour>
    </TTGlyph>
    <TTGlyph name="F_F_H.sc" xMin="66" yMin="0" xMax="1372" yMax="577">
      <contour>
        <pt x="66" y="577" on="1"/>
        <pt x="412" y="577" on="1"/>
        <pt x="412" y="501" on="1"/>
        <pt x="156" y="501" on="1"/>
        <pt x="156" y="322" on="1"/>
        <pt x="392" y="322" on="1"/>
        <pt x="392" y="245" on="1"/>
        <pt x="156" y="245" on="1"/>
        <pt x="156" y="0" on="1"/>
        <pt x="66" y="0" on="1"/>
      </contour>
      <contour>
        <pt x="497" y="577" on="1"/>
        <pt x="843" y="577" on="1"/>
        <pt x="843" y="501" on="1"/>
        <pt x="587" y="501" on="1"/>
        <pt x="587" y="322" on="1"/>
        <pt x="823" y="322" on="1"/>
        <pt x="823" y="245" on="1"/>
        <pt x="587" y="245" on="1"/>
        <pt x="587" y="0" on="1"/>
        <pt x="497" y="0" on="1"/>
      </contour>
      <contour>
        <pt x="927" y="577" on="1"/>
        <pt x="1017" y="577" on="1"/>
        <pt x="1017" y="334" on="1"/>
        <pt x="1282" y="334" on="1"/>
        <pt x="1282" y="577" on="1"/>
        <pt x="1372" y="577" on="1"/>
        <pt x="1372" y="0" on="1"/>
        <pt x="1282" y="0" on="1"/>
        <pt x="1282" y="256" on="1"/>
        <pt x="1017" y="256" on="1"/>
        <pt x="1017" y="0" on="1"/>
        <pt x="927" y="0" on="1"/>
      </contour>
    </TTGlyph>
    <TTGlyph name="F_F_I.sc" xMin="66" yMin="0" xMax="1017" yMax="577">
      <contour>
        <pt x="66" y="577" on="1"/>
        <pt x="412" y="577" on="1"/>
        <pt x="412" y="501" on="1"/>
        <pt x="156" y="501" on="1"/>
        <pt x="156" y="322" on="1"/>
        <pt x="392" y="322" on="1"/>
        <pt x="392" y="245" on="1"/>
        <pt x="156" y="245" on="1"/>
        <pt x="156" y="0" on="1"/>
        <pt x="66" y="0" on="1"/>
      </contour>
      <contour>
        <pt x="497" y="577" on="1"/>
        <pt x="843" y="577" on="1"/>
        <pt x="843" y="501" on="1"/>
        <pt x="587" y="501" on="1"/>
        <pt x="587" y="322" on="1"/>
        <pt x="823" y="322" on="1"/>
        <pt x="823" y="245" on="1"/>
        <pt x="587" y="245" on="1"/>
        <pt x="587" y="0" on="1"/>
        <pt x="497" y="0" on="1"/>
      </contour>
      <contour>
        <pt x="927" y="577" on="1"/>
        <pt x="1017" y="577" on="1"/>
        <pt x="1017" y="0" on="1"/>
        <pt x="927" y="0" on="1"/>
      </contour>
    </TTGlyph>
    <TTGlyph name="F_F_J.sc" xMin="66" yMin="-152" xMax="1029" yMax="577">
      <contour>
        <pt x="66" y="577" on="1"/>
        <pt x="412" y="577" on="1"/>
        <pt x="412" y="501" on="1"/>
        <pt x="156" y="501" on="1"/>
        <pt x="156" y="322" on="1"/>
        <pt x="392" y="322" on="1"/>
        <pt x="392" y="245" on="1"/>
        <pt x="156" y="245" on="1"/>
        <pt x="156" y="0" on="1"/>
        <pt x="66" y="0" on="1"/>
      </contour>
      <contour>
        <pt x="497" y="577" on="1"/>
        <pt x="843" y="577" on="1"/>
        <pt x="843" y="501" on="1"/>
        <pt x="587" y="501" on="1"/>
        <pt x="587" y="322" on="1"/>
        <pt x="823" y="322" on="1"/>
        <pt x="823" y="245" on="1"/>
        <pt x="587" y="245" on="1"/>
        <pt x="587" y="0" on="1"/>
        <pt x="497" y="0" on="1"/>
      </contour>
      <contour>
        <pt x="869" y="-124" on="1"/>
        <pt x="890" y="-84" on="0"/>
        <pt x="917" y="-19" on="0"/>
        <pt x="933" y="43" on="0"/>
        <pt x="939" y="107" on="0"/>
        <pt x="939" y="147" on="1"/>
        <pt x="939" y="577" on="1"/>
        <pt x="1029" y="577" on="1"/>
        <pt x="1029" y="140" on="1"/>
        <pt x="1029" y="102" on="0"/>
        <pt x="1018" y="31" on="0"/>
        <pt x="994" y="-39" on="0"/>
        <pt x="955" y="-112" on="0"/>
        <pt x="927" y="-152" on="1"/>
      </contour>
    </TTGlyph>
    <TTGlyph name="F_F_K.sc" xMin="66" yMin="0" xMax="1379" yMax="577">
      <contour>
        <pt x="66" y="577" on="1"/>
        <pt x="412" y="577" on="1"/>
        <pt x="412" y="501" on="1"/>
        <pt x="156" y="501" on="1"/>
        <pt x="156" y="322" on="1"/>
        <pt x="392" y="322" on="1"/>
        <pt x="392" y="245" on="1"/>
        <pt x="156" y="245" on="1"/>
        <pt x="156" y="0" on="1"/>
        <pt x="66" y="0" on="1"/>
      </contour>
      <contour>
        <pt x="497" y="577" on="1"/>
        <pt x="843" y="577" on="1"/>
        <pt x="843" y="501" on="1"/>
        <pt x="587" y="501" on="1"/>
        <pt x="587" y="322" on="1"/>
        <pt x="823" y="322" on="1"/>
        <pt x="823" y="245" on="1"/>
        <pt x="587" y="245" on="1"/>
        <pt x="587" y="0" on="1"/>
        <pt x="497" y="0" on="1"/>
      </contour>
      <contour>
        <pt x="927" y="577" on="1"/>
        <pt x="1017" y="577" on="1"/>
        <pt x="1017" y="333" on="1"/>
        <pt x="1090" y="333" on="1"/>
        <pt x="1259" y="577" on="1"/>
        <pt x="1362" y="577" on="1"/>
        <pt x="1184" y="317" on="1"/>
        <pt x="1145" y="296" on="1"/>
        <pt x="1145" y="292" on="1"/>
        <pt x="1185" y="272" on="1"/>
        <pt x="1379" y="0" on="1"/>
        <pt x="1278" y="0" on="1"/>
        <pt x="1091" y="256" on="1"/>
        <pt x="1017" y="256" on="1"/>
        <pt x="1017" y="0" on="1"/>
        <pt x="927" y="0" on="1"/>
      </contour>
    </TTGlyph>
    <TTGlyph name="F_F_L.sc" xMin="66" yMin="0" xMax="1235" yMax="577">
      <contour>
        <pt x="927" y="577" on="1"/>
        <pt x="1017" y="577" on="1"/>
        <pt x="1017" y="77" on="1"/>
        <pt x="1235" y="77" on="1"/>
        <pt x="1235" y="0" on="1"/>
        <pt x="927" y="0" on="1"/>
      </contour>
      <contour>
        <pt x="66" y="577" on="1"/>
        <pt x="412" y="577" on="1"/>
        <pt x="412" y="501" on="1"/>
        <pt x="156" y="501" on="1"/>
        <pt x="156" y="322" on="1"/>
        <pt x="392" y="322" on="1"/>
        <pt x="392" y="245" on="1"/>
        <pt x="156" y="245" on="1"/>
        <pt x="156" y="0" on="1"/>
        <pt x="66" y="0" on="1"/>
      </contour>
      <contour>
        <pt x="497" y="577" on="1"/>
        <pt x="843" y="577" on="1"/>
        <pt x="843" y="501" on="1"/>
        <pt x="587" y="501" on="1"/>
        <pt x="587" y="322" on="1"/>
        <pt x="823" y="322" on="1"/>
        <pt x="823" y="245" on="1"/>
        <pt x="587" y="245" on="1"/>
        <pt x="587" y="0" on="1"/>
        <pt x="497" y="0" on="1"/>
      </contour>
    </TTGlyph>
    <TTGlyph name="F_F_T.sc" xMin="66" yMin="0" xMax="1269" yMax="577">
      <contour>
        <pt x="1019" y="499" on="1"/>
        <pt x="858" y="499" on="1"/>
        <pt x="858" y="577" on="1"/>
        <pt x="1269" y="577" on="1"/>
        <pt x="1269" y="499" on="1"/>
        <pt x="1108" y="499" on="1"/>
        <pt x="1108" y="0" on="1"/>
        <pt x="1019" y="0" on="1"/>
      </contour>
      <contour>
        <pt x="66" y="577" on="1"/>
        <pt x="412" y="577" on="1"/>
        <pt x="412" y="501" on="1"/>
        <pt x="156" y="501" on="1"/>
        <pt x="156" y="322" on="1"/>
        <pt x="392" y="322" on="1"/>
        <pt x="392" y="245" on="1"/>
        <pt x="156" y="245" on="1"/>
        <pt x="156" y="0" on="1"/>
        <pt x="66" y="0" on="1"/>
      </contour>
      <contour>
        <pt x="497" y="577" on="1"/>
        <pt x="843" y="577" on="1"/>
        <pt x="843" y="501" on="1"/>
        <pt x="587" y="501" on="1"/>
        <pt x="587" y="322" on="1"/>
        <pt x="823" y="322" on="1"/>
        <pt x="823" y="245" on="1"/>
        <pt x="587" y="245" on="1"/>
        <pt x="587" y="0" on="1"/>
        <pt x="497" y="0" on="1"/>
      </contour>
    </TTGlyph>
    <TTGlyph name="F_H.sc" xMin="66" yMin="0" xMax="942" yMax="577">
      <contour>
        <pt x="66" y="577" on="1"/>
        <pt x="412" y="577" on="1"/>
        <pt x="412" y="501" on="1"/>
        <pt x="156" y="501" on="1"/>
        <pt x="156" y="322" on="1"/>
        <pt x="392" y="322" on="1"/>
        <pt x="392" y="245" on="1"/>
        <pt x="156" y="245" on="1"/>
        <pt x="156" y="0" on="1"/>
        <pt x="66" y="0" on="1"/>
      </contour>
      <contour>
        <pt x="497" y="577" on="1"/>
        <pt x="587" y="577" on="1"/>
        <pt x="587" y="334" on="1"/>
        <pt x="852" y="334" on="1"/>
        <pt x="852" y="577" on="1"/>
        <pt x="942" y="577" on="1"/>
        <pt x="942" y="0" on="1"/>
        <pt x="852" y="0" on="1"/>
        <pt x="852" y="256" on="1"/>
        <pt x="587" y="256" on="1"/>
        <pt x="587" y="0" on="1"/>
        <pt x="497" y="0" on="1"/>
      </contour>
    </TTGlyph>
    <TTGlyph name="F_I.sc" xMin="66" yMin="0" xMax="587" yMax="577">
      <contour>
        <pt x="66" y="577" on="1"/>
        <pt x="412" y="577" on="1"/>
        <pt x="412" y="501" on="1"/>
        <pt x="156" y="501" on="1"/>
        <pt x="156" y="322" on="1"/>
        <pt x="392" y="322" on="1"/>
        <pt x="392" y="245" on="1"/>
        <pt x="156" y="245" on="1"/>
        <pt x="156" y="0" on="1"/>
        <pt x="66" y="0" on="1"/>
      </contour>
      <contour>
        <pt x="497" y="577" on="1"/>
        <pt x="587" y="577" on="1"/>
        <pt x="587" y="0" on="1"/>
        <pt x="497" y="0" on="1"/>
      </contour>
    </TTGlyph>
    <TTGlyph name="F_J.sc" xMin="66" yMin="-152" xMax="598" yMax="577">
      <contour>
        <pt x="66" y="577" on="1"/>
        <pt x="412" y="577" on="1"/>
        <pt x="412" y="501" on="1"/>
        <pt x="156" y="501" on="1"/>
        <pt x="156" y="322" on="1"/>
        <pt x="392" y="322" on="1"/>
        <pt x="392" y="245" on="1"/>
        <pt x="156" y="245" on="1"/>
        <pt x="156" y="0" on="1"/>
        <pt x="66" y="0" on="1"/>
      </contour>
      <contour>
        <pt x="438" y="-124" on="1"/>
        <pt x="459" y="-84" on="0"/>
        <pt x="486" y="-19" on="0"/>
        <pt x="502" y="43" on="0"/>
        <pt x="508" y="107" on="0"/>
        <pt x="508" y="147" on="1"/>
        <pt x="508" y="577" on="1"/>
        <pt x="598" y="577" on="1"/>
        <pt x="598" y="140" on="1"/>
        <pt x="598" y="102" on="0"/>
        <pt x="587" y="31" on="0"/>
        <pt x="563" y="-39" on="0"/>
        <pt x="524" y="-112" on="0"/>
        <pt x="496" y="-152" on="1"/>
      </contour>
    </TTGlyph>
    <TTGlyph name="F_K.sc" xMin="66" yMin="0" xMax="949" yMax="577">
      <contour>
        <pt x="66" y="577" on="1"/>
        <pt x="412" y="577" on="1"/>
        <pt x="412" y="501" on="1"/>
        <pt x="156" y="501" on="1"/>
        <pt x="156" y="322" on="1"/>
        <pt x="392" y="322" on="1"/>
        <pt x="392" y="245" on="1"/>
        <pt x="156" y="245" on="1"/>
        <pt x="156" y="0" on="1"/>
        <pt x="66" y="0" on="1"/>
      </contour>
      <contour>
        <pt x="497" y="577" on="1"/>
        <pt x="587" y="577" on="1"/>
        <pt x="587" y="333" on="1"/>
        <pt x="660" y="333" on="1"/>
        <pt x="829" y="577" on="1"/>
        <pt x="932" y="577" on="1"/>
        <pt x="754" y="317" on="1"/>
        <pt x="715" y="296" on="1"/>
        <pt x="715" y="292" on="1"/>
        <pt x="755" y="272" on="1"/>
        <pt x="949" y="0" on="1"/>
        <pt x="848" y="0" on="1"/>
        <pt x="661" y="256" on="1"/>
        <pt x="587" y="256" on="1"/>
        <pt x="587" y="0" on="1"/>
        <pt x="497" y="0" on="1"/>
      </contour>
    </TTGlyph>
    <TTGlyph name="F_L.sc" xMin="66" yMin="0" xMax="805" yMax="577">
      <contour>
        <pt x="497" y="577" on="1"/>
        <pt x="587" y="577" on="1"/>
        <pt x="587" y="77" on="1"/>
        <pt x="805" y="77" on="1"/>
        <pt x="805" y="0" on="1"/>
        <pt x="497" y="0" on="1"/>
      </contour>
      <contour>
        <pt x="66" y="577" on="1"/>
        <pt x="412" y="577" on="1"/>
        <pt x="412" y="501" on="1"/>
        <pt x="156" y="501" on="1"/>
        <pt x="156" y="322" on="1"/>
        <pt x="392" y="322" on="1"/>
        <pt x="392" y="245" on="1"/>
        <pt x="156" y="245" on="1"/>
        <pt x="156" y="0" on="1"/>
        <pt x="66" y="0" on="1"/>
      </contour>
    </TTGlyph>
    <TTGlyph name="F_T.sc" xMin="66" yMin="0" xMax="838" yMax="577">
      <contour>
        <pt x="588" y="499" on="1"/>
        <pt x="427" y="499" on="1"/>
        <pt x="427" y="577" on="1"/>
        <pt x="838" y="577" on="1"/>
        <pt x="838" y="499" on="1"/>
        <pt x="677" y="499" on="1"/>
        <pt x="677" y="0" on="1"/>
        <pt x="588" y="0" on="1"/>
      </contour>
      <contour>
        <pt x="66" y="577" on="1"/>
        <pt x="412" y="577" on="1"/>
        <pt x="412" y="501" on="1"/>
        <pt x="156" y="501" on="1"/>
        <pt x="156" y="322" on="1"/>
        <pt x="392" y="322" on="1"/>
        <pt x="392" y="245" on="1"/>
        <pt x="156" y="245" on="1"/>
        <pt x="156" y="0" on="1"/>
        <pt x="66" y="0" on="1"/>
      </contour>
    </TTGlyph>
    <TTGlyph name="G" xMin="40" yMin="-10" xMax="511" yMax="748">
      <contour>
        <pt x="345" y="-10" on="1"/>
        <pt x="186" y="-9" on="0"/>
        <pt x="40" y="174" on="0"/>
        <pt x="40" y="369" on="1"/>
        <pt x="40" y="468" on="0"/>
        <pt x="78" y="612" on="0"/>
        <pt x="156" y="704" on="0"/>
        <pt x="278" y="748" on="0"/>
        <pt x="362" y="748" on="1"/>
        <pt x="391" y="748" on="0"/>
        <pt x="470" y="739" on="0"/>
        <pt x="508" y="731" on="1"/>
        <pt x="508" y="652" on="1"/>
        <pt x="468" y="660" on="0"/>
        <pt x="400" y="668" on="0"/>
        <pt x="371" y="668" on="1"/>
        <pt x="306" y="668" on="0"/>
        <pt x="218" y="636" on="0"/>
        <pt x="162" y="566" on="0"/>
        <pt x="138" y="451" on="0"/>
        <pt x="138" y="369" on="1"/>
        <pt x="138" y="288" on="0"/>
        <pt x="162" y="175" on="0"/>
        <pt x="214" y="104" on="0"/>
        <pt x="296" y="72" on="0"/>
        <pt x="354" y="72" on="1"/>
        <pt x="368" y="72" on="0"/>
        <pt x="404" y="74" on="0"/>
        <pt x="424" y="76" on="1"/>
        <pt x="424" y="376" on="1"/>
        <pt x="511" y="376" on="1"/>
        <pt x="511" y="5" on="1"/>
        <pt x="457" y="-3" on="0"/>
        <pt x="382" y="-10" on="0"/>
      </contour>
    </TTGlyph>
    <TTGlyph name="G.sc" xMin="39" yMin="-8" xMax="459" yMax="584">
      <contour>
        <pt x="307" y="-8" on="1"/>
        <pt x="168" y="-6" on="0"/>
        <pt x="39" y="136" on="0"/>
        <pt x="39" y="288" on="1"/>
        <pt x="39" y="441" on="0"/>
        <pt x="176" y="584" on="0"/>
        <pt x="324" y="584" on="1"/>
        <pt x="350" y="584" on="0"/>
        <pt x="421" y="577" on="0"/>
        <pt x="455" y="569" on="1"/>
        <pt x="455" y="495" on="1"/>
        <pt x="419" y="502" on="0"/>
        <pt x="358" y="508" on="0"/>
        <pt x="333" y="508" on="1"/>
        <pt x="277" y="508" on="0"/>
        <pt x="201" y="485" on="0"/>
        <pt x="154" y="433" on="0"/>
        <pt x="133" y="349" on="0"/>
        <pt x="133" y="288" on="1"/>
        <pt x="133" y="228" on="0"/>
        <pt x="153" y="145" on="0"/>
        <pt x="196" y="92" on="0"/>
        <pt x="266" y="69" on="0"/>
        <pt x="316" y="69" on="1"/>
        <pt x="324" y="69" on="0"/>
        <pt x="361" y="70" on="0"/>
        <pt x="376" y="72" on="1"/>
        <pt x="376" y="293" on="1"/>
        <pt x="459" y="293" on="1"/>
        <pt x="459" y="6" on="1"/>
        <pt x="411" y="-2" on="0"/>
        <pt x="340" y="-8" on="0"/>
      </contour>
    </TTGlyph>
    <TTGlyph name="Gacute" xMin="40" yMin="-10" xMax="511" yMax="939">
      <contour>
        <pt x="290" y="792" on="1"/>
        <pt x="362" y="939" on="1"/>
        <pt x="459" y="939" on="1"/>
        <pt x="360" y="786" on="1"/>
      </contour>
      <contour>
        <pt x="345" y="-10" on="1"/>
        <pt x="186" y="-9" on="0"/>
        <pt x="40" y="174" on="0"/>
        <pt x="40" y="369" on="1"/>
        <pt x="40" y="468" on="0"/>
        <pt x="78" y="612" on="0"/>
        <pt x="156" y="704" on="0"/>
        <pt x="278" y="748" on="0"/>
        <pt x="362" y="748" on="1"/>
        <pt x="391" y="748" on="0"/>
        <pt x="470" y="739" on="0"/>
        <pt x="508" y="731" on="1"/>
        <pt x="508" y="652" on="1"/>
        <pt x="468" y="660" on="0"/>
        <pt x="400" y="668" on="0"/>
        <pt x="371" y="668" on="1"/>
        <pt x="306" y="668" on="0"/>
        <pt x="218" y="636" on="0"/>
        <pt x="162" y="566" on="0"/>
        <pt x="138" y="451" on="0"/>
        <pt x="138" y="369" on="1"/>
        <pt x="138" y="288" on="0"/>
        <pt x="162" y="175" on="0"/>
        <pt x="214" y="104" on="0"/>
        <pt x="296" y="72" on="0"/>
        <pt x="354" y="72" on="1"/>
        <pt x="368" y="72" on="0"/>
        <pt x="404" y="74" on="0"/>
        <pt x="424" y="76" on="1"/>
        <pt x="424" y="376" on="1"/>
        <pt x="511" y="376" on="1"/>
        <pt x="511" y="5" on="1"/>
        <pt x="457" y="-3" on="0"/>
        <pt x="382" y="-10" on="0"/>
      </contour>
    </TTGlyph>
    <TTGlyph name="Gacute.sc" xMin="39" yMin="-8" xMax="459" yMax="742">
      <contour>
        <pt x="307" y="-8" on="1"/>
        <pt x="168" y="-6" on="0"/>
        <pt x="39" y="136" on="0"/>
        <pt x="39" y="288" on="1"/>
        <pt x="39" y="441" on="0"/>
        <pt x="176" y="584" on="0"/>
        <pt x="324" y="584" on="1"/>
        <pt x="350" y="584" on="0"/>
        <pt x="421" y="577" on="0"/>
        <pt x="455" y="569" on="1"/>
        <pt x="455" y="495" on="1"/>
        <pt x="419" y="502" on="0"/>
        <pt x="358" y="508" on="0"/>
        <pt x="333" y="508" on="1"/>
        <pt x="277" y="508" on="0"/>
        <pt x="201" y="485" on="0"/>
        <pt x="154" y="433" on="0"/>
        <pt x="133" y="349" on="0"/>
        <pt x="133" y="288" on="1"/>
        <pt x="133" y="228" on="0"/>
        <pt x="153" y="145" on="0"/>
        <pt x="196" y="92" on="0"/>
        <pt x="266" y="69" on="0"/>
        <pt x="316" y="69" on="1"/>
        <pt x="324" y="69" on="0"/>
        <pt x="361" y="70" on="0"/>
        <pt x="376" y="72" on="1"/>
        <pt x="376" y="293" on="1"/>
        <pt x="459" y="293" on="1"/>
        <pt x="459" y="6" on="1"/>
        <pt x="411" y="-2" on="0"/>
        <pt x="340" y="-8" on="0"/>
      </contour>
      <contour>
        <pt x="256" y="620" on="1"/>
        <pt x="320" y="742" on="1"/>
        <pt x="411" y="742" on="1"/>
        <pt x="323" y="615" on="1"/>
      </contour>
    </TTGlyph>
    <TTGlyph name="Gbreve" xMin="40" yMin="-10" xMax="511" yMax="958">
      <contour>
        <pt x="332" y="806" on="1"/>
        <pt x="257" y="806" on="0"/>
        <pt x="176" y="887" on="0"/>
        <pt x="176" y="958" on="1"/>
        <pt x="245" y="958" on="1"/>
        <pt x="245" y="860" on="0"/>
        <pt x="332" y="860" on="1"/>
        <pt x="418" y="860" on="0"/>
        <pt x="418" y="958" on="1"/>
        <pt x="487" y="958" on="1"/>
        <pt x="487" y="888" on="0"/>
        <pt x="406" y="806" on="0"/>
      </contour>
      <contour>
        <pt x="345" y="-10" on="1"/>
        <pt x="186" y="-9" on="0"/>
        <pt x="40" y="174" on="0"/>
        <pt x="40" y="369" on="1"/>
        <pt x="40" y="468" on="0"/>
        <pt x="78" y="612" on="0"/>
        <pt x="156" y="704" on="0"/>
        <pt x="278" y="748" on="0"/>
        <pt x="362" y="748" on="1"/>
        <pt x="391" y="748" on="0"/>
        <pt x="470" y="739" on="0"/>
        <pt x="508" y="731" on="1"/>
        <pt x="508" y="652" on="1"/>
        <pt x="468" y="660" on="0"/>
        <pt x="400" y="668" on="0"/>
        <pt x="371" y="668" on="1"/>
        <pt x="306" y="668" on="0"/>
        <pt x="218" y="636" on="0"/>
        <pt x="162" y="566" on="0"/>
        <pt x="138" y="451" on="0"/>
        <pt x="138" y="369" on="1"/>
        <pt x="138" y="288" on="0"/>
        <pt x="162" y="175" on="0"/>
        <pt x="214" y="104" on="0"/>
        <pt x="296" y="72" on="0"/>
        <pt x="354" y="72" on="1"/>
        <pt x="368" y="72" on="0"/>
        <pt x="404" y="74" on="0"/>
        <pt x="424" y="76" on="1"/>
        <pt x="424" y="376" on="1"/>
        <pt x="511" y="376" on="1"/>
        <pt x="511" y="5" on="1"/>
        <pt x="457" y="-3" on="0"/>
        <pt x="382" y="-10" on="0"/>
      </contour>
    </TTGlyph>
    <TTGlyph name="Gbreve.sc" xMin="39" yMin="-8" xMax="459" yMax="751">
      <contour>
        <pt x="307" y="-8" on="1"/>
        <pt x="168" y="-6" on="0"/>
        <pt x="39" y="136" on="0"/>
        <pt x="39" y="288" on="1"/>
        <pt x="39" y="441" on="0"/>
        <pt x="176" y="584" on="0"/>
        <pt x="324" y="584" on="1"/>
        <pt x="350" y="584" on="0"/>
        <pt x="421" y="577" on="0"/>
        <pt x="455" y="569" on="1"/>
        <pt x="455" y="495" on="1"/>
        <pt x="419" y="502" on="0"/>
        <pt x="358" y="508" on="0"/>
        <pt x="333" y="508" on="1"/>
        <pt x="277" y="508" on="0"/>
        <pt x="201" y="485" on="0"/>
        <pt x="154" y="433" on="0"/>
        <pt x="133" y="349" on="0"/>
        <pt x="133" y="288" on="1"/>
        <pt x="133" y="228" on="0"/>
        <pt x="153" y="145" on="0"/>
        <pt x="196" y="92" on="0"/>
        <pt x="266" y="69" on="0"/>
        <pt x="316" y="69" on="1"/>
        <pt x="324" y="69" on="0"/>
        <pt x="361" y="70" on="0"/>
        <pt x="376" y="72" on="1"/>
        <pt x="376" y="293" on="1"/>
        <pt x="459" y="293" on="1"/>
        <pt x="459" y="6" on="1"/>
        <pt x="411" y="-2" on="0"/>
        <pt x="340" y="-8" on="0"/>
      </contour>
      <contour>
        <pt x="295" y="626" on="1"/>
        <pt x="228" y="626" on="0"/>
        <pt x="156" y="693" on="0"/>
        <pt x="156" y="751" on="1"/>
        <pt x="221" y="751" on="1"/>
        <pt x="221" y="674" on="0"/>
        <pt x="295" y="674" on="1"/>
        <pt x="370" y="674" on="0"/>
        <pt x="370" y="751" on="1"/>
        <pt x="436" y="751" on="1"/>
        <pt x="436" y="693" on="0"/>
        <pt x="363" y="626" on="0"/>
      </contour>
    </TTGlyph>
    <TTGlyph name="Gcircumflex" xMin="40" yMin="-10" xMax="511" yMax="951">
      <contour>
        <pt x="345" y="-10" on="1"/>
        <pt x="186" y="-9" on="0"/>
        <pt x="40" y="174" on="0"/>
        <pt x="40" y="369" on="1"/>
        <pt x="40" y="468" on="0"/>
        <pt x="78" y="612" on="0"/>
        <pt x="156" y="704" on="0"/>
        <pt x="278" y="748" on="0"/>
        <pt x="362" y="748" on="1"/>
        <pt x="391" y="748" on="0"/>
        <pt x="470" y="739" on="0"/>
        <pt x="508" y="731" on="1"/>
        <pt x="508" y="652" on="1"/>
        <pt x="468" y="660" on="0"/>
        <pt x="400" y="668" on="0"/>
        <pt x="371" y="668" on="1"/>
        <pt x="306" y="668" on="0"/>
        <pt x="218" y="636" on="0"/>
        <pt x="162" y="566" on="0"/>
        <pt x="138" y="451" on="0"/>
        <pt x="138" y="369" on="1"/>
        <pt x="138" y="288" on="0"/>
        <pt x="162" y="175" on="0"/>
        <pt x="214" y="104" on="0"/>
        <pt x="296" y="72" on="0"/>
        <pt x="354" y="72" on="1"/>
        <pt x="368" y="72" on="0"/>
        <pt x="404" y="74" on="0"/>
        <pt x="424" y="76" on="1"/>
        <pt x="424" y="376" on="1"/>
        <pt x="511" y="376" on="1"/>
        <pt x="511" y="5" on="1"/>
        <pt x="457" y="-3" on="0"/>
        <pt x="382" y="-10" on="0"/>
      </contour>
      <contour>
        <pt x="190" y="879" on="1"/>
        <pt x="330" y="951" on="1"/>
        <pt x="470" y="879" on="1"/>
        <pt x="470" y="806" on="1"/>
        <pt x="330" y="878" on="1"/>
        <pt x="190" y="806" on="1"/>
      </contour>
    </TTGlyph>
    <TTGlyph name="Gcircumflex.sc" xMin="39" yMin="-8" xMax="459" yMax="747">
      <contour>
        <pt x="307" y="-8" on="1"/>
        <pt x="168" y="-6" on="0"/>
        <pt x="39" y="136" on="0"/>
        <pt x="39" y="288" on="1"/>
        <pt x="39" y="441" on="0"/>
        <pt x="176" y="584" on="0"/>
        <pt x="324" y="584" on="1"/>
        <pt x="350" y="584" on="0"/>
        <pt x="421" y="577" on="0"/>
        <pt x="455" y="569" on="1"/>
        <pt x="455" y="495" on="1"/>
        <pt x="419" y="502" on="0"/>
        <pt x="358" y="508" on="0"/>
        <pt x="333" y="508" on="1"/>
        <pt x="277" y="508" on="0"/>
        <pt x="201" y="485" on="0"/>
        <pt x="154" y="433" on="0"/>
        <pt x="133" y="349" on="0"/>
        <pt x="133" y="288" on="1"/>
        <pt x="133" y="228" on="0"/>
        <pt x="153" y="145" on="0"/>
        <pt x="196" y="92" on="0"/>
        <pt x="266" y="69" on="0"/>
        <pt x="316" y="69" on="1"/>
        <pt x="324" y="69" on="0"/>
        <pt x="361" y="70" on="0"/>
        <pt x="376" y="72" on="1"/>
        <pt x="376" y="293" on="1"/>
        <pt x="459" y="293" on="1"/>
        <pt x="459" y="6" on="1"/>
        <pt x="411" y="-2" on="0"/>
        <pt x="340" y="-8" on="0"/>
      </contour>
      <contour>
        <pt x="168" y="691" on="1"/>
        <pt x="294" y="747" on="1"/>
        <pt x="420" y="691" on="1"/>
        <pt x="420" y="626" on="1"/>
        <pt x="294" y="682" on="1"/>
        <pt x="168" y="626" on="1"/>
      </contour>
    </TTGlyph>
    <TTGlyph name="Gcommaaccent" xMin="40" yMin="-220" xMax="511" yMax="748">
      <contour>
        <pt x="295" y="-67" on="1"/>
        <pt x="390" y="-67" on="1"/>
        <pt x="322" y="-220" on="1"/>
        <pt x="248" y="-220" on="1"/>
      </contour>
      <contour>
        <pt x="345" y="-10" on="1"/>
        <pt x="186" y="-9" on="0"/>
        <pt x="40" y="174" on="0"/>
        <pt x="40" y="369" on="1"/>
        <pt x="40" y="468" on="0"/>
        <pt x="78" y="612" on="0"/>
        <pt x="156" y="704" on="0"/>
        <pt x="278" y="748" on="0"/>
        <pt x="362" y="748" on="1"/>
        <pt x="391" y="748" on="0"/>
        <pt x="470" y="739" on="0"/>
        <pt x="508" y="731" on="1"/>
        <pt x="508" y="652" on="1"/>
        <pt x="468" y="660" on="0"/>
        <pt x="400" y="668" on="0"/>
        <pt x="371" y="668" on="1"/>
        <pt x="306" y="668" on="0"/>
        <pt x="218" y="636" on="0"/>
        <pt x="162" y="566" on="0"/>
        <pt x="138" y="451" on="0"/>
        <pt x="138" y="369" on="1"/>
        <pt x="138" y="288" on="0"/>
        <pt x="162" y="175" on="0"/>
        <pt x="214" y="104" on="0"/>
        <pt x="296" y="72" on="0"/>
        <pt x="354" y="72" on="1"/>
        <pt x="368" y="72" on="0"/>
        <pt x="404" y="74" on="0"/>
        <pt x="424" y="76" on="1"/>
        <pt x="424" y="376" on="1"/>
        <pt x="511" y="376" on="1"/>
        <pt x="511" y="5" on="1"/>
        <pt x="457" y="-3" on="0"/>
        <pt x="382" y="-10" on="0"/>
      </contour>
    </TTGlyph>
    <TTGlyph name="Gcommaaccent.sc" xMin="39" yMin="-172" xMax="459" yMax="584">
      <contour>
        <pt x="307" y="-8" on="1"/>
        <pt x="168" y="-6" on="0"/>
        <pt x="39" y="136" on="0"/>
        <pt x="39" y="288" on="1"/>
        <pt x="39" y="441" on="0"/>
        <pt x="176" y="584" on="0"/>
        <pt x="324" y="584" on="1"/>
        <pt x="350" y="584" on="0"/>
        <pt x="421" y="577" on="0"/>
        <pt x="455" y="569" on="1"/>
        <pt x="455" y="495" on="1"/>
        <pt x="419" y="502" on="0"/>
        <pt x="358" y="508" on="0"/>
        <pt x="333" y="508" on="1"/>
        <pt x="277" y="508" on="0"/>
        <pt x="201" y="485" on="0"/>
        <pt x="154" y="433" on="0"/>
        <pt x="133" y="349" on="0"/>
        <pt x="133" y="288" on="1"/>
        <pt x="133" y="228" on="0"/>
        <pt x="153" y="145" on="0"/>
        <pt x="196" y="92" on="0"/>
        <pt x="266" y="69" on="0"/>
        <pt x="316" y="69" on="1"/>
        <pt x="324" y="69" on="0"/>
        <pt x="361" y="70" on="0"/>
        <pt x="376" y="72" on="1"/>
        <pt x="376" y="293" on="1"/>
        <pt x="459" y="293" on="1"/>
        <pt x="459" y="6" on="1"/>
        <pt x="411" y="-2" on="0"/>
        <pt x="340" y="-8" on="0"/>
      </contour>
      <contour>
        <pt x="259" y="-53" on="1"/>
        <pt x="350" y="-53" on="1"/>
        <pt x="289" y="-172" on="1"/>
        <pt x="219" y="-172" on="1"/>
      </contour>
    </TTGlyph>
    <TTGlyph name="Gdotaccent" xMin="40" yMin="-10" xMax="511" yMax="911">
      <contour>
        <pt x="329" y="799" on="1"/>
        <pt x="272" y="799" on="0"/>
        <pt x="272" y="854" on="1"/>
        <pt x="272" y="884" on="0"/>
        <pt x="301" y="911" on="0"/>
        <pt x="329" y="911" on="1"/>
        <pt x="387" y="911" on="0"/>
        <pt x="387" y="854" on="1"/>
        <pt x="387" y="825" on="0"/>
        <pt x="357" y="799" on="0"/>
      </contour>
      <contour>
        <pt x="345" y="-10" on="1"/>
        <pt x="186" y="-9" on="0"/>
        <pt x="40" y="174" on="0"/>
        <pt x="40" y="369" on="1"/>
        <pt x="40" y="468" on="0"/>
        <pt x="78" y="612" on="0"/>
        <pt x="156" y="704" on="0"/>
        <pt x="278" y="748" on="0"/>
        <pt x="362" y="748" on="1"/>
        <pt x="391" y="748" on="0"/>
        <pt x="470" y="739" on="0"/>
        <pt x="508" y="731" on="1"/>
        <pt x="508" y="652" on="1"/>
        <pt x="468" y="660" on="0"/>
        <pt x="400" y="668" on="0"/>
        <pt x="371" y="668" on="1"/>
        <pt x="306" y="668" on="0"/>
        <pt x="218" y="636" on="0"/>
        <pt x="162" y="566" on="0"/>
        <pt x="138" y="451" on="0"/>
        <pt x="138" y="369" on="1"/>
        <pt x="138" y="288" on="0"/>
        <pt x="162" y="175" on="0"/>
        <pt x="214" y="104" on="0"/>
        <pt x="296" y="72" on="0"/>
        <pt x="354" y="72" on="1"/>
        <pt x="368" y="72" on="0"/>
        <pt x="404" y="74" on="0"/>
        <pt x="424" y="76" on="1"/>
        <pt x="424" y="376" on="1"/>
        <pt x="511" y="376" on="1"/>
        <pt x="511" y="5" on="1"/>
        <pt x="457" y="-3" on="0"/>
        <pt x="382" y="-10" on="0"/>
      </contour>
    </TTGlyph>
    <TTGlyph name="Gdotaccent.sc" xMin="39" yMin="-8" xMax="459" yMax="725">
      <contour>
        <pt x="307" y="-8" on="1"/>
        <pt x="168" y="-6" on="0"/>
        <pt x="39" y="136" on="0"/>
        <pt x="39" y="288" on="1"/>
        <pt x="39" y="441" on="0"/>
        <pt x="176" y="584" on="0"/>
        <pt x="324" y="584" on="1"/>
        <pt x="350" y="584" on="0"/>
        <pt x="421" y="577" on="0"/>
        <pt x="455" y="569" on="1"/>
        <pt x="455" y="495" on="1"/>
        <pt x="419" y="502" on="0"/>
        <pt x="358" y="508" on="0"/>
        <pt x="333" y="508" on="1"/>
        <pt x="277" y="508" on="0"/>
        <pt x="201" y="485" on="0"/>
        <pt x="154" y="433" on="0"/>
        <pt x="133" y="349" on="0"/>
        <pt x="133" y="288" on="1"/>
        <pt x="133" y="228" on="0"/>
        <pt x="153" y="145" on="0"/>
        <pt x="196" y="92" on="0"/>
        <pt x="266" y="69" on="0"/>
        <pt x="316" y="69" on="1"/>
        <pt x="324" y="69" on="0"/>
        <pt x="361" y="70" on="0"/>
        <pt x="376" y="72" on="1"/>
        <pt x="376" y="293" on="1"/>
        <pt x="459" y="293" on="1"/>
        <pt x="459" y="6" on="1"/>
        <pt x="411" y="-2" on="0"/>
        <pt x="340" y="-8" on="0"/>
      </contour>
      <contour>
        <pt x="294" y="623" on="1"/>
        <pt x="268" y="623" on="0"/>
        <pt x="241" y="647" on="0"/>
        <pt x="241" y="675" on="1"/>
        <pt x="241" y="725" on="0"/>
        <pt x="294" y="725" on="1"/>
        <pt x="349" y="725" on="0"/>
        <pt x="349" y="675" on="1"/>
        <pt x="349" y="647" on="0"/>
        <pt x="320" y="623" on="0"/>
      </contour>
    </TTGlyph>
    <TTGlyph name="H" xMin="70" yMin="0" xMax="565" yMax="740">
      <contour>
        <pt x="70" y="740" on="1"/>
        <pt x="164" y="740" on="1"/>
        <pt x="164" y="419" on="1"/>
        <pt x="471" y="419" on="1"/>
        <pt x="471" y="740" on="1"/>
        <pt x="565" y="740" on="1"/>
        <pt x="565" y="0" on="1"/>
        <pt x="471" y="0" on="1"/>
        <pt x="471" y="336" on="1"/>
        <pt x="164" y="336" on="1"/>
        <pt x="164" y="0" on="1"/>
        <pt x="70" y="0" on="1"/>
      </contour>
    </TTGlyph>
    <TTGlyph name="H.sc" xMin="66" yMin="0" xMax="511" yMax="577">
      <contour>
        <pt x="66" y="577" on="1"/>
        <pt x="156" y="577" on="1"/>
        <pt x="156" y="334" on="1"/>
        <pt x="421" y="334" on="1"/>
        <pt x="421" y="577" on="1"/>
        <pt x="511" y="577" on="1"/>
        <pt x="511" y="0" on="1"/>
        <pt x="421" y="0" on="1"/>
        <pt x="421" y="256" on="1"/>
        <pt x="156" y="256" on="1"/>
        <pt x="156" y="0" on="1"/>
        <pt x="66" y="0" on="1"/>
      </contour>
    </TTGlyph>
    <TTGlyph name="Hbar" xMin="0" yMin="0" xMax="671" yMax="740">
      <contour>
        <pt x="0" y="594" on="1"/>
        <pt x="85" y="594" on="1"/>
        <pt x="85" y="740" on="1"/>
        <pt x="179" y="740" on="1"/>
        <pt x="179" y="594" on="1"/>
        <pt x="486" y="594" on="1"/>
        <pt x="486" y="740" on="1"/>
        <pt x="580" y="740" on="1"/>
        <pt x="580" y="594" on="1"/>
        <pt x="671" y="594" on="1"/>
        <pt x="671" y="545" on="1"/>
        <pt x="580" y="545" on="1"/>
        <pt x="580" y="0" on="1"/>
        <pt x="486" y="0" on="1"/>
        <pt x="486" y="336" on="1"/>
        <pt x="179" y="336" on="1"/>
        <pt x="179" y="0" on="1"/>
        <pt x="85" y="0" on="1"/>
        <pt x="85" y="545" on="1"/>
        <pt x="0" y="545" on="1"/>
      </contour>
      <contour>
        <pt x="486" y="419" on="1"/>
        <pt x="486" y="545" on="1"/>
        <pt x="179" y="545" on="1"/>
        <pt x="179" y="419" on="1"/>
      </contour>
    </TTGlyph>
    <TTGlyph name="Hbar.sc" xMin="5" yMin="0" xMax="599" yMax="577">
      <contour>
        <pt x="5" y="468" on="1"/>
        <pt x="78" y="468" on="1"/>
        <pt x="78" y="577" on="1"/>
        <pt x="168" y="577" on="1"/>
        <pt x="168" y="468" on="1"/>
        <pt x="432" y="468" on="1"/>
        <pt x="432" y="577" on="1"/>
        <pt x="522" y="577" on="1"/>
        <pt x="522" y="468" on="1"/>
        <pt x="599" y="468" on="1"/>
        <pt x="599" y="423" on="1"/>
        <pt x="522" y="423" on="1"/>
        <pt x="522" y="0" on="1"/>
        <pt x="432" y="0" on="1"/>
        <pt x="432" y="256" on="1"/>
        <pt x="168" y="256" on="1"/>
        <pt x="168" y="0" on="1"/>
        <pt x="78" y="0" on="1"/>
        <pt x="78" y="423" on="1"/>
        <pt x="5" y="423" on="1"/>
      </contour>
      <contour>
        <pt x="432" y="334" on="1"/>
        <pt x="432" y="423" on="1"/>
        <pt x="168" y="423" on="1"/>
        <pt x="168" y="334" on="1"/>
      </contour>
    </TTGlyph>
    <TTGlyph name="Hcircumflex" xMin="70" yMin="0" xMax="565" yMax="951">
      <contour>
        <pt x="70" y="740" on="1"/>
        <pt x="164" y="740" on="1"/>
        <pt x="164" y="419" on="1"/>
        <pt x="471" y="419" on="1"/>
        <pt x="471" y="740" on="1"/>
        <pt x="565" y="740" on="1"/>
        <pt x="565" y="0" on="1"/>
        <pt x="471" y="0" on="1"/>
        <pt x="471" y="336" on="1"/>
        <pt x="164" y="336" on="1"/>
        <pt x="164" y="0" on="1"/>
        <pt x="70" y="0" on="1"/>
      </contour>
      <contour>
        <pt x="169" y="879" on="1"/>
        <pt x="309" y="951" on="1"/>
        <pt x="449" y="879" on="1"/>
        <pt x="449" y="806" on="1"/>
        <pt x="309" y="878" on="1"/>
        <pt x="169" y="806" on="1"/>
      </contour>
    </TTGlyph>
    <TTGlyph name="Hcircumflex.sc" xMin="66" yMin="0" xMax="511" yMax="747">
      <contour>
        <pt x="66" y="577" on="1"/>
        <pt x="156" y="577" on="1"/>
        <pt x="156" y="334" on="1"/>
        <pt x="421" y="334" on="1"/>
        <pt x="421" y="577" on="1"/>
        <pt x="511" y="577" on="1"/>
        <pt x="511" y="0" on="1"/>
        <pt x="421" y="0" on="1"/>
        <pt x="421" y="256" on="1"/>
        <pt x="156" y="256" on="1"/>
        <pt x="156" y="0" on="1"/>
        <pt x="66" y="0" on="1"/>
      </contour>
      <contour>
        <pt x="157" y="691" on="1"/>
        <pt x="283" y="747" on="1"/>
        <pt x="408" y="691" on="1"/>
        <pt x="408" y="626" on="1"/>
        <pt x="283" y="682" on="1"/>
        <pt x="157" y="626" on="1"/>
      </contour>
    </TTGlyph>
    <TTGlyph name="Hdotbelow" xMin="70" yMin="-183" xMax="565" yMax="740">
      <contour>
        <pt x="70" y="740" on="1"/>
        <pt x="164" y="740" on="1"/>
        <pt x="164" y="419" on="1"/>
        <pt x="471" y="419" on="1"/>
        <pt x="471" y="740" on="1"/>
        <pt x="565" y="740" on="1"/>
        <pt x="565" y="0" on="1"/>
        <pt x="471" y="0" on="1"/>
        <pt x="471" y="336" on="1"/>
        <pt x="164" y="336" on="1"/>
        <pt x="164" y="0" on="1"/>
        <pt x="70" y="0" on="1"/>
      </contour>
      <contour>
        <pt x="322" y="-183" on="1"/>
        <pt x="296" y="-183" on="0"/>
        <pt x="271" y="-159" on="0"/>
        <pt x="271" y="-131" on="1"/>
        <pt x="271" y="-104" on="0"/>
        <pt x="296" y="-81" on="0"/>
        <pt x="322" y="-81" on="1"/>
        <pt x="348" y="-81" on="0"/>
        <pt x="374" y="-104" on="0"/>
        <pt x="374" y="-131" on="1"/>
        <pt x="374" y="-159" on="0"/>
        <pt x="348" y="-183" on="0"/>
      </contour>
    </TTGlyph>
    <TTGlyph name="Hdotbelow.sc" xMin="66" yMin="-148" xMax="511" yMax="577">
      <contour>
        <pt x="66" y="577" on="1"/>
        <pt x="156" y="577" on="1"/>
        <pt x="156" y="334" on="1"/>
        <pt x="421" y="334" on="1"/>
        <pt x="421" y="577" on="1"/>
        <pt x="511" y="577" on="1"/>
        <pt x="511" y="0" on="1"/>
        <pt x="421" y="0" on="1"/>
        <pt x="421" y="256" on="1"/>
        <pt x="156" y="256" on="1"/>
        <pt x="156" y="0" on="1"/>
        <pt x="66" y="0" on="1"/>
      </contour>
      <contour>
        <pt x="293" y="-148" on="1"/>
        <pt x="269" y="-148" on="0"/>
        <pt x="245" y="-128" on="0"/>
        <pt x="245" y="-105" on="1"/>
        <pt x="245" y="-81" on="0"/>
        <pt x="269" y="-60" on="0"/>
        <pt x="293" y="-60" on="1"/>
        <pt x="316" y="-60" on="0"/>
        <pt x="340" y="-81" on="0"/>
        <pt x="340" y="-105" on="1"/>
        <pt x="340" y="-128" on="0"/>
        <pt x="316" y="-148" on="0"/>
      </contour>
    </TTGlyph>
    <TTGlyph name="I" xMin="70" yMin="0" xMax="164" yMax="740">
      <contour>
        <pt x="70" y="740" on="1"/>
        <pt x="164" y="740" on="1"/>
        <pt x="164" y="0" on="1"/>
        <pt x="70" y="0" on="1"/>
      </contour>
    </TTGlyph>
    <TTGlyph name="I.sc" xMin="66" yMin="0" xMax="156" yMax="577">
      <contour>
        <pt x="66" y="577" on="1"/>
        <pt x="156" y="577" on="1"/>
        <pt x="156" y="0" on="1"/>
        <pt x="66" y="0" on="1"/>
      </contour>
    </TTGlyph>
    <TTGlyph name="IJ" xMin="70" yMin="-190" xMax="400" yMax="740">
      <contour>
        <pt x="70" y="740" on="1"/>
        <pt x="164" y="740" on="1"/>
        <pt x="164" y="0" on="1"/>
        <pt x="70" y="0" on="1"/>
      </contour>
      <contour>
        <pt x="224" y="-159" on="1"/>
        <pt x="248" y="-106" on="0"/>
        <pt x="280" y="-23" on="0"/>
        <pt x="299" y="55" on="0"/>
        <pt x="306" y="136" on="0"/>
        <pt x="306" y="186" on="1"/>
        <pt x="306" y="740" on="1"/>
        <pt x="400" y="740" on="1"/>
        <pt x="400" y="180" on="1"/>
        <pt x="400" y="132" on="0"/>
        <pt x="387" y="41" on="0"/>
        <pt x="359" y="-48" on="0"/>
        <pt x="316" y="-140" on="0"/>
        <pt x="285" y="-190" on="1"/>
      </contour>
    </TTGlyph>
    <TTGlyph name="Iacute" xMin="70" yMin="0" xMax="249" yMax="939">
      <contour>
        <pt x="70" y="740" on="1"/>
        <pt x="164" y="740" on="1"/>
        <pt x="164" y="0" on="1"/>
        <pt x="70" y="0" on="1"/>
      </contour>
      <contour>
        <pt x="80" y="792" on="1"/>
        <pt x="152" y="939" on="1"/>
        <pt x="249" y="939" on="1"/>
        <pt x="150" y="786" on="1"/>
      </contour>
    </TTGlyph>
    <TTGlyph name="Iacute.sc" xMin="66" yMin="0" xMax="230" yMax="742">
      <contour>
        <pt x="66" y="577" on="1"/>
        <pt x="156" y="577" on="1"/>
        <pt x="156" y="0" on="1"/>
        <pt x="66" y="0" on="1"/>
      </contour>
      <contour>
        <pt x="75" y="620" on="1"/>
        <pt x="139" y="742" on="1"/>
        <pt x="230" y="742" on="1"/>
        <pt x="142" y="615" on="1"/>
      </contour>
    </TTGlyph>
    <TTGlyph name="Ibreve" xMin="-35" yMin="0" xMax="276" yMax="958">
      <contour>
        <pt x="70" y="740" on="1"/>
        <pt x="164" y="740" on="1"/>
        <pt x="164" y="0" on="1"/>
        <pt x="70" y="0" on="1"/>
      </contour>
      <contour>
        <pt x="121" y="806" on="1"/>
        <pt x="46" y="806" on="0"/>
        <pt x="-35" y="887" on="0"/>
        <pt x="-35" y="958" on="1"/>
        <pt x="34" y="958" on="1"/>
        <pt x="34" y="860" on="0"/>
        <pt x="121" y="860" on="1"/>
        <pt x="207" y="860" on="0"/>
        <pt x="207" y="958" on="1"/>
        <pt x="276" y="958" on="1"/>
        <pt x="276" y="888" on="0"/>
        <pt x="195" y="806" on="0"/>
      </contour>
    </TTGlyph>
    <TTGlyph name="Ibreve.sc" xMin="-26" yMin="0" xMax="253" yMax="751">
      <contour>
        <pt x="66" y="577" on="1"/>
        <pt x="156" y="577" on="1"/>
        <pt x="156" y="0" on="1"/>
        <pt x="66" y="0" on="1"/>
      </contour>
      <contour>
        <pt x="114" y="626" on="1"/>
        <pt x="45" y="626" on="0"/>
        <pt x="-26" y="693" on="0"/>
        <pt x="-26" y="751" on="1"/>
        <pt x="39" y="751" on="1"/>
        <pt x="39" y="674" on="0"/>
        <pt x="114" y="674" on="1"/>
        <pt x="188" y="674" on="0"/>
        <pt x="188" y="751" on="1"/>
        <pt x="253" y="751" on="1"/>
        <pt x="253" y="693" on="0"/>
        <pt x="180" y="626" on="0"/>
      </contour>
    </TTGlyph>
    <TTGlyph name="Icircumflex" xMin="-22" yMin="0" xMax="258" yMax="951">
      <contour>
        <pt x="70" y="740" on="1"/>
        <pt x="164" y="740" on="1"/>
        <pt x="164" y="0" on="1"/>
        <pt x="70" y="0" on="1"/>
      </contour>
      <contour>
        <pt x="-22" y="879" on="1"/>
        <pt x="118" y="951" on="1"/>
        <pt x="258" y="879" on="1"/>
        <pt x="258" y="806" on="1"/>
        <pt x="118" y="878" on="1"/>
        <pt x="-22" y="806" on="1"/>
      </contour>
    </TTGlyph>
    <TTGlyph name="Icircumflex.sc" xMin="-13" yMin="0" xMax="239" yMax="747">
      <contour>
        <pt x="66" y="577" on="1"/>
        <pt x="156" y="577" on="1"/>
        <pt x="156" y="0" on="1"/>
        <pt x="66" y="0" on="1"/>
      </contour>
      <contour>
        <pt x="-13" y="691" on="1"/>
        <pt x="113" y="747" on="1"/>
        <pt x="239" y="691" on="1"/>
        <pt x="239" y="626" on="1"/>
        <pt x="113" y="682" on="1"/>
        <pt x="-13" y="626" on="1"/>
      </contour>
    </TTGlyph>
    <TTGlyph name="Idblgrave" xMin="-81" yMin="0" xMax="229" yMax="939">
      <contour>
        <pt x="70" y="740" on="1"/>
        <pt x="164" y="740" on="1"/>
        <pt x="164" y="0" on="1"/>
        <pt x="70" y="0" on="1"/>
      </contour>
      <contour>
        <pt x="18" y="786" on="1"/>
        <pt x="-81" y="939" on="1"/>
        <pt x="1" y="939" on="1"/>
        <pt x="75" y="799" on="1"/>
      </contour>
      <contour>
        <pt x="173" y="786" on="1"/>
        <pt x="73" y="939" on="1"/>
        <pt x="156" y="939" on="1"/>
        <pt x="229" y="799" on="1"/>
      </contour>
    </TTGlyph>
    <TTGlyph name="Idblgrave.sc" xMin="-66" yMin="0" xMax="213" yMax="742">
      <contour>
        <pt x="66" y="577" on="1"/>
        <pt x="156" y="577" on="1"/>
        <pt x="156" y="0" on="1"/>
        <pt x="66" y="0" on="1"/>
      </contour>
      <contour>
        <pt x="23" y="614" on="1"/>
        <pt x="-66" y="742" on="1"/>
        <pt x="13" y="742" on="1"/>
        <pt x="76" y="624" on="1"/>
      </contour>
      <contour>
        <pt x="160" y="614" on="1"/>
        <pt x="71" y="742" on="1"/>
        <pt x="150" y="742" on="1"/>
        <pt x="213" y="624" on="1"/>
      </contour>
    </TTGlyph>
    <TTGlyph name="Idieresis" xMin="-40" yMin="0" xMax="278" yMax="920">
      <contour>
        <pt x="70" y="740" on="1"/>
        <pt x="164" y="740" on="1"/>
        <pt x="164" y="0" on="1"/>
        <pt x="70" y="0" on="1"/>
      </contour>
      <contour>
        <pt x="17" y="808" on="1"/>
        <pt x="-40" y="808" on="0"/>
        <pt x="-40" y="864" on="1"/>
        <pt x="-40" y="920" on="0"/>
        <pt x="17" y="920" on="1"/>
        <pt x="75" y="920" on="0"/>
        <pt x="75" y="864" on="1"/>
        <pt x="75" y="834" on="0"/>
        <pt x="45" y="808" on="0"/>
      </contour>
      <contour>
        <pt x="220" y="808" on="1"/>
        <pt x="164" y="808" on="0"/>
        <pt x="164" y="864" on="1"/>
        <pt x="164" y="920" on="0"/>
        <pt x="220" y="920" on="1"/>
        <pt x="278" y="920" on="0"/>
        <pt x="278" y="864" on="1"/>
        <pt x="278" y="834" on="0"/>
        <pt x="248" y="808" on="0"/>
      </contour>
    </TTGlyph>
    <TTGlyph name="Idieresis.sc" xMin="-33" yMin="0" xMax="259" yMax="731">
      <contour>
        <pt x="66" y="577" on="1"/>
        <pt x="156" y="577" on="1"/>
        <pt x="156" y="0" on="1"/>
        <pt x="66" y="0" on="1"/>
      </contour>
      <contour>
        <pt x="21" y="629" on="1"/>
        <pt x="-6" y="629" on="0"/>
        <pt x="-33" y="653" on="0"/>
        <pt x="-33" y="680" on="1"/>
        <pt x="-33" y="707" on="0"/>
        <pt x="-6" y="731" on="0"/>
        <pt x="21" y="731" on="1"/>
        <pt x="74" y="731" on="0"/>
        <pt x="74" y="680" on="1"/>
        <pt x="74" y="653" on="0"/>
        <pt x="47" y="629" on="0"/>
      </contour>
      <contour>
        <pt x="205" y="629" on="1"/>
        <pt x="179" y="629" on="0"/>
        <pt x="152" y="653" on="0"/>
        <pt x="152" y="680" on="1"/>
        <pt x="152" y="707" on="0"/>
        <pt x="179" y="731" on="0"/>
        <pt x="205" y="731" on="1"/>
        <pt x="259" y="731" on="0"/>
        <pt x="259" y="680" on="1"/>
        <pt x="259" y="653" on="0"/>
        <pt x="231" y="629" on="0"/>
      </contour>
    </TTGlyph>
    <TTGlyph name="Idotaccent" xMin="62" yMin="0" xMax="177" yMax="911">
      <contour>
        <pt x="70" y="740" on="1"/>
        <pt x="164" y="740" on="1"/>
        <pt x="164" y="0" on="1"/>
        <pt x="70" y="0" on="1"/>
      </contour>
      <contour>
        <pt x="119" y="799" on="1"/>
        <pt x="62" y="799" on="0"/>
        <pt x="62" y="854" on="1"/>
        <pt x="62" y="884" on="0"/>
        <pt x="91" y="911" on="0"/>
        <pt x="119" y="911" on="1"/>
        <pt x="177" y="911" on="0"/>
        <pt x="177" y="854" on="1"/>
        <pt x="177" y="825" on="0"/>
        <pt x="147" y="799" on="0"/>
      </contour>
    </TTGlyph>
    <TTGlyph name="Idotaccent.sc" xMin="60" yMin="0" xMax="167" yMax="725">
      <contour>
        <pt x="66" y="577" on="1"/>
        <pt x="156" y="577" on="1"/>
        <pt x="156" y="0" on="1"/>
        <pt x="66" y="0" on="1"/>
      </contour>
      <contour>
        <pt x="112" y="623" on="1"/>
        <pt x="86" y="623" on="0"/>
        <pt x="60" y="647" on="0"/>
        <pt x="60" y="675" on="1"/>
        <pt x="60" y="725" on="0"/>
        <pt x="112" y="725" on="1"/>
        <pt x="167" y="725" on="0"/>
        <pt x="167" y="675" on="1"/>
        <pt x="167" y="647" on="0"/>
        <pt x="139" y="623" on="0"/>
      </contour>
    </TTGlyph>
    <TTGlyph name="Idotbelow" xMin="67" yMin="-183" xMax="170" yMax="740">
      <contour>
        <pt x="70" y="740" on="1"/>
        <pt x="164" y="740" on="1"/>
        <pt x="164" y="0" on="1"/>
        <pt x="70" y="0" on="1"/>
      </contour>
      <contour>
        <pt x="118" y="-183" on="1"/>
        <pt x="92" y="-183" on="0"/>
        <pt x="67" y="-159" on="0"/>
        <pt x="67" y="-131" on="1"/>
        <pt x="67" y="-104" on="0"/>
        <pt x="92" y="-81" on="0"/>
        <pt x="118" y="-81" on="1"/>
        <pt x="144" y="-81" on="0"/>
        <pt x="170" y="-104" on="0"/>
        <pt x="170" y="-131" on="1"/>
        <pt x="170" y="-159" on="0"/>
        <pt x="144" y="-183" on="0"/>
      </contour>
    </TTGlyph>
    <TTGlyph name="Idotbelow.sc" xMin="66" yMin="-148" xMax="161" yMax="577">
      <contour>
        <pt x="66" y="577" on="1"/>
        <pt x="156" y="577" on="1"/>
        <pt x="156" y="0" on="1"/>
        <pt x="66" y="0" on="1"/>
      </contour>
      <contour>
        <pt x="112" y="-148" on="1"/>
        <pt x="89" y="-148" on="0"/>
        <pt x="66" y="-128" on="0"/>
        <pt x="66" y="-105" on="1"/>
        <pt x="66" y="-81" on="0"/>
        <pt x="89" y="-60" on="0"/>
        <pt x="112" y="-60" on="1"/>
        <pt x="135" y="-60" on="0"/>
        <pt x="161" y="-81" on="0"/>
        <pt x="161" y="-105" on="1"/>
        <pt x="161" y="-128" on="0"/>
        <pt x="135" y="-148" on="0"/>
      </contour>
    </TTGlyph>
    <TTGlyph name="Igrave" xMin="-19" yMin="0" xMax="164" yMax="939">
      <contour>
        <pt x="70" y="740" on="1"/>
        <pt x="164" y="740" on="1"/>
        <pt x="164" y="0" on="1"/>
        <pt x="70" y="0" on="1"/>
      </contour>
      <contour>
        <pt x="80" y="786" on="1"/>
        <pt x="-19" y="939" on="1"/>
        <pt x="78" y="939" on="1"/>
        <pt x="151" y="799" on="1"/>
      </contour>
    </TTGlyph>
    <TTGlyph name="Igrave.sc" xMin="-11" yMin="0" xMax="157" yMax="742">
      <contour>
        <pt x="66" y="577" on="1"/>
        <pt x="157" y="577" on="1"/>
        <pt x="157" y="0" on="1"/>
        <pt x="66" y="0" on="1"/>
      </contour>
      <contour>
        <pt x="77" y="615" on="1"/>
        <pt x="-11" y="742" on="1"/>
        <pt x="81" y="742" on="1"/>
        <pt x="144" y="624" on="1"/>
      </contour>
    </TTGlyph>
    <TTGlyph name="Iinvertedbreve" xMin="-36" yMin="0" xMax="275" yMax="968">
      <contour>
        <pt x="70" y="740" on="1"/>
        <pt x="164" y="740" on="1"/>
        <pt x="164" y="0" on="1"/>
        <pt x="70" y="0" on="1"/>
      </contour>
      <contour>
        <pt x="206" y="816" on="1"/>
        <pt x="206" y="915" on="0"/>
        <pt x="120" y="915" on="1"/>
        <pt x="33" y="915" on="0"/>
        <pt x="33" y="816" on="1"/>
        <pt x="-36" y="816" on="1"/>
        <pt x="-36" y="888" on="0"/>
        <pt x="45" y="968" on="0"/>
        <pt x="120" y="968" on="1"/>
        <pt x="194" y="968" on="0"/>
        <pt x="275" y="888" on="0"/>
        <pt x="275" y="816" on="1"/>
      </contour>
    </TTGlyph>
    <TTGlyph name="Iinvertedbreve.sc" xMin="-26" yMin="0" xMax="253" yMax="758">
      <contour>
        <pt x="66" y="577" on="1"/>
        <pt x="156" y="577" on="1"/>
        <pt x="156" y="0" on="1"/>
        <pt x="66" y="0" on="1"/>
      </contour>
      <contour>
        <pt x="188" y="634" on="1"/>
        <pt x="188" y="711" on="0"/>
        <pt x="113" y="711" on="1"/>
        <pt x="39" y="711" on="0"/>
        <pt x="39" y="634" on="1"/>
        <pt x="-26" y="634" on="1"/>
        <pt x="-26" y="693" on="0"/>
        <pt x="45" y="758" on="0"/>
        <pt x="113" y="758" on="1"/>
        <pt x="181" y="758" on="0"/>
        <pt x="253" y="693" on="0"/>
        <pt x="253" y="634" on="1"/>
      </contour>
    </TTGlyph>
    <TTGlyph name="Imacron" xMin="-17" yMin="0" xMax="243" yMax="907">
      <contour>
        <pt x="70" y="740" on="1"/>
        <pt x="164" y="740" on="1"/>
        <pt x="164" y="0" on="1"/>
        <pt x="70" y="0" on="1"/>
      </contour>
      <contour>
        <pt x="-17" y="907" on="1"/>
        <pt x="243" y="907" on="1"/>
        <pt x="243" y="840" on="1"/>
        <pt x="-17" y="840" on="1"/>
      </contour>
    </TTGlyph>
    <TTGlyph name="Imacron.sc" xMin="-10" yMin="0" xMax="226" yMax="717">
      <contour>
        <pt x="66" y="577" on="1"/>
        <pt x="156" y="577" on="1"/>
        <pt x="156" y="0" on="1"/>
        <pt x="66" y="0" on="1"/>
      </contour>
      <contour>
        <pt x="-10" y="717" on="1"/>
        <pt x="226" y="717" on="1"/>
        <pt x="226" y="655" on="1"/>
        <pt x="-10" y="655" on="1"/>
      </contour>
    </TTGlyph>
    <TTGlyph name="Iogonek" xMin="1" yMin="-220" xMax="164" yMax="740">
      <contour>
        <pt x="70" y="740" on="1"/>
        <pt x="164" y="740" on="1"/>
        <pt x="164" y="-14" on="1"/>
        <pt x="115" y="-33" on="0"/>
        <pt x="68" y="-93" on="0"/>
        <pt x="68" y="-122" on="1"/>
        <pt x="68" y="-158" on="0"/>
        <pt x="111" y="-158" on="1"/>
        <pt x="140" y="-158" on="0"/>
        <pt x="164" y="-147" on="1"/>
        <pt x="164" y="-208" on="1"/>
        <pt x="148" y="-214" on="0"/>
        <pt x="118" y="-220" on="0"/>
        <pt x="101" y="-220" on="1"/>
        <pt x="1" y="-220" on="0"/>
        <pt x="1" y="-129" on="1"/>
        <pt x="1" y="-58" on="0"/>
        <pt x="87" y="0" on="1"/>
        <pt x="70" y="0" on="1"/>
      </contour>
    </TTGlyph>
    <TTGlyph name="Iogonek.sc" xMin="8" yMin="-172" xMax="156" yMax="577">
      <contour>
        <pt x="67" y="577" on="1"/>
        <pt x="156" y="577" on="1"/>
        <pt x="156" y="-9" on="1"/>
        <pt x="112" y="-26" on="0"/>
        <pt x="71" y="-71" on="0"/>
        <pt x="71" y="-91" on="1"/>
        <pt x="71" y="-117" on="0"/>
        <pt x="108" y="-117" on="1"/>
        <pt x="120" y="-117" on="0"/>
        <pt x="146" y="-111" on="0"/>
        <pt x="156" y="-108" on="1"/>
        <pt x="156" y="-162" on="1"/>
        <pt x="142" y="-167" on="0"/>
        <pt x="115" y="-172" on="0"/>
        <pt x="100" y="-172" on="1"/>
        <pt x="55" y="-172" on="0"/>
        <pt x="8" y="-135" on="0"/>
        <pt x="8" y="-99" on="1"/>
        <pt x="8" y="-70" on="0"/>
        <pt x="44" y="-23" on="0"/>
        <pt x="82" y="0" on="1"/>
        <pt x="67" y="0" on="1"/>
      </contour>
    </TTGlyph>
    <TTGlyph name="Itilde" xMin="-40" yMin="0" xMax="288" yMax="924">
      <contour>
        <pt x="70" y="740" on="1"/>
        <pt x="164" y="740" on="1"/>
        <pt x="164" y="0" on="1"/>
        <pt x="70" y="0" on="1"/>
      </contour>
      <contour>
        <pt x="-40" y="844" on="1"/>
        <pt x="-20" y="880" on="0"/>
        <pt x="39" y="924" on="0"/>
        <pt x="68" y="924" on="1"/>
        <pt x="87" y="924" on="0"/>
        <pt x="121" y="911" on="0"/>
        <pt x="152" y="896" on="0"/>
        <pt x="184" y="883" on="0"/>
        <pt x="201" y="883" on="1"/>
        <pt x="234" y="883" on="0"/>
        <pt x="263" y="922" on="1"/>
        <pt x="288" y="901" on="1"/>
        <pt x="271" y="862" on="0"/>
        <pt x="213" y="818" on="0"/>
        <pt x="183" y="818" on="1"/>
        <pt x="164" y="818" on="0"/>
        <pt x="131" y="831" on="0"/>
        <pt x="100" y="846" on="0"/>
        <pt x="68" y="859" on="0"/>
        <pt x="50" y="859" on="1"/>
        <pt x="15" y="859" on="0"/>
        <pt x="-17" y="821" on="1"/>
      </contour>
    </TTGlyph>
    <TTGlyph name="Itilde.sc" xMin="-31" yMin="0" xMax="266" yMax="729">
      <contour>
        <pt x="66" y="577" on="1"/>
        <pt x="156" y="577" on="1"/>
        <pt x="156" y="0" on="1"/>
        <pt x="66" y="0" on="1"/>
      </contour>
      <contour>
        <pt x="-31" y="658" on="1"/>
        <pt x="-11" y="691" on="0"/>
        <pt x="42" y="729" on="0"/>
        <pt x="68" y="729" on="1"/>
        <pt x="85" y="729" on="0"/>
        <pt x="115" y="719" on="0"/>
        <pt x="143" y="707" on="0"/>
        <pt x="172" y="697" on="0"/>
        <pt x="188" y="697" on="1"/>
        <pt x="219" y="697" on="0"/>
        <pt x="244" y="728" on="1"/>
        <pt x="266" y="711" on="1"/>
        <pt x="249" y="676" on="0"/>
        <pt x="197" y="637" on="0"/>
        <pt x="170" y="637" on="1"/>
        <pt x="153" y="637" on="0"/>
        <pt x="123" y="647" on="0"/>
        <pt x="95" y="660" on="0"/>
        <pt x="66" y="670" on="0"/>
        <pt x="50" y="670" on="1"/>
        <pt x="17" y="670" on="0"/>
        <pt x="-11" y="639" on="1"/>
      </contour>
    </TTGlyph>
    <TTGlyph name="J" xMin="-10" yMin="-190" xMax="166" yMax="740">
      <contour>
        <pt x="-10" y="-159" on="1"/>
        <pt x="14" y="-106" on="0"/>
        <pt x="46" y="-23" on="0"/>
        <pt x="65" y="55" on="0"/>
        <pt x="72" y="136" on="0"/>
        <pt x="72" y="186" on="1"/>
        <pt x="72" y="740" on="1"/>
        <pt x="166" y="740" on="1"/>
        <pt x="166" y="180" on="1"/>
        <pt x="166" y="132" on="0"/>
        <pt x="153" y="41" on="0"/>
        <pt x="125" y="-48" on="0"/>
        <pt x="82" y="-140" on="0"/>
        <pt x="51" y="-190" on="1"/>
      </contour>
    </TTGlyph>
    <TTGlyph name="J.sc" xMin="-2" yMin="-152" xMax="158" yMax="577">
      <contour>
        <pt x="-2" y="-124" on="1"/>
        <pt x="19" y="-84" on="0"/>
        <pt x="46" y="-19" on="0"/>
        <pt x="62" y="43" on="0"/>
        <pt x="68" y="107" on="0"/>
        <pt x="68" y="147" on="1"/>
        <pt x="68" y="577" on="1"/>
        <pt x="158" y="577" on="1"/>
        <pt x="158" y="140" on="1"/>
        <pt x="158" y="102" on="0"/>
        <pt x="147" y="31" on="0"/>
        <pt x="123" y="-39" on="0"/>
        <pt x="84" y="-112" on="0"/>
        <pt x="56" y="-152" on="1"/>
      </contour>
    </TTGlyph>
    <TTGlyph name="Jcircumflex" xMin="-23" yMin="-190" xMax="257" yMax="951">
      <contour>
        <pt x="-10" y="-159" on="1"/>
        <pt x="14" y="-106" on="0"/>
        <pt x="46" y="-23" on="0"/>
        <pt x="65" y="55" on="0"/>
        <pt x="72" y="136" on="0"/>
        <pt x="72" y="186" on="1"/>
        <pt x="72" y="740" on="1"/>
        <pt x="166" y="740" on="1"/>
        <pt x="166" y="180" on="1"/>
        <pt x="166" y="132" on="0"/>
        <pt x="153" y="41" on="0"/>
        <pt x="125" y="-48" on="0"/>
        <pt x="82" y="-140" on="0"/>
        <pt x="51" y="-190" on="1"/>
      </contour>
      <contour>
        <pt x="-23" y="879" on="1"/>
        <pt x="117" y="951" on="1"/>
        <pt x="257" y="879" on="1"/>
        <pt x="257" y="806" on="1"/>
        <pt x="117" y="878" on="1"/>
        <pt x="-23" y="806" on="1"/>
      </contour>
    </TTGlyph>
    <TTGlyph name="Jcircumflex.sc" xMin="-13" yMin="-152" xMax="238" yMax="747">
      <contour>
        <pt x="-1" y="-124" on="1"/>
        <pt x="20" y="-84" on="0"/>
        <pt x="46" y="-19" on="0"/>
        <pt x="62" y="43" on="0"/>
        <pt x="68" y="107" on="0"/>
        <pt x="68" y="147" on="1"/>
        <pt x="68" y="577" on="1"/>
        <pt x="158" y="577" on="1"/>
        <pt x="158" y="140" on="1"/>
        <pt x="158" y="102" on="0"/>
        <pt x="147" y="31" on="0"/>
        <pt x="123" y="-39" on="0"/>
        <pt x="84" y="-112" on="0"/>
        <pt x="56" y="-152" on="1"/>
      </contour>
      <contour>
        <pt x="-13" y="691" on="1"/>
        <pt x="113" y="747" on="1"/>
        <pt x="238" y="691" on="1"/>
        <pt x="238" y="626" on="1"/>
        <pt x="113" y="682" on="1"/>
        <pt x="-13" y="626" on="1"/>
      </contour>
    </TTGlyph>
    <TTGlyph name="K" xMin="70" yMin="0" xMax="575" yMax="740">
      <contour>
        <pt x="70" y="740" on="1"/>
        <pt x="164" y="740" on="1"/>
        <pt x="164" y="418" on="1"/>
        <pt x="245" y="418" on="1"/>
        <pt x="447" y="740" on="1"/>
        <pt x="555" y="740" on="1"/>
        <pt x="345" y="406" on="1"/>
        <pt x="309" y="380" on="1"/>
        <pt x="309" y="375" on="1"/>
        <pt x="347" y="350" on="1"/>
        <pt x="575" y="0" on="1"/>
        <pt x="468" y="0" on="1"/>
        <pt x="247" y="335" on="1"/>
        <pt x="164" y="335" on="1"/>
        <pt x="164" y="0" on="1"/>
        <pt x="70" y="0" on="1"/>
      </contour>
    </TTGlyph>
    <TTGlyph name="K.sc" xMin="66" yMin="0" xMax="518" yMax="577">
      <contour>
        <pt x="66" y="577" on="1"/>
        <pt x="156" y="577" on="1"/>
        <pt x="156" y="333" on="1"/>
        <pt x="229" y="333" on="1"/>
        <pt x="398" y="577" on="1"/>
        <pt x="501" y="577" on="1"/>
        <pt x="323" y="317" on="1"/>
        <pt x="284" y="296" on="1"/>
        <pt x="284" y="292" on="1"/>
        <pt x="324" y="272" on="1"/>
        <pt x="518" y="0" on="1"/>
        <pt x="417" y="0" on="1"/>
        <pt x="230" y="256" on="1"/>
        <pt x="156" y="256" on="1"/>
        <pt x="156" y="0" on="1"/>
        <pt x="66" y="0" on="1"/>
      </contour>
    </TTGlyph>
    <TTGlyph name="Kcommaaccent" xMin="70" yMin="-220" xMax="575" yMax="740">
      <contour>
        <pt x="253" y="-67" on="1"/>
        <pt x="348" y="-67" on="1"/>
        <pt x="280" y="-220" on="1"/>
        <pt x="206" y="-220" on="1"/>
      </contour>
      <contour>
        <pt x="70" y="740" on="1"/>
        <pt x="164" y="740" on="1"/>
        <pt x="164" y="418" on="1"/>
        <pt x="245" y="418" on="1"/>
        <pt x="447" y="740" on="1"/>
        <pt x="555" y="740" on="1"/>
        <pt x="345" y="406" on="1"/>
        <pt x="309" y="380" on="1"/>
        <pt x="309" y="375" on="1"/>
        <pt x="347" y="350" on="1"/>
        <pt x="575" y="0" on="1"/>
        <pt x="468" y="0" on="1"/>
        <pt x="247" y="335" on="1"/>
        <pt x="164" y="335" on="1"/>
        <pt x="164" y="0" on="1"/>
        <pt x="70" y="0" on="1"/>
      </contour>
    </TTGlyph>
    <TTGlyph name="Kcommaaccent.sc" xMin="66" yMin="-172" xMax="518" yMax="577">
      <contour>
        <pt x="66" y="577" on="1"/>
        <pt x="156" y="577" on="1"/>
        <pt x="156" y="333" on="1"/>
        <pt x="229" y="333" on="1"/>
        <pt x="398" y="577" on="1"/>
        <pt x="501" y="577" on="1"/>
        <pt x="323" y="317" on="1"/>
        <pt x="284" y="296" on="1"/>
        <pt x="284" y="292" on="1"/>
        <pt x="324" y="272" on="1"/>
        <pt x="518" y="0" on="1"/>
        <pt x="417" y="0" on="1"/>
        <pt x="230" y="256" on="1"/>
        <pt x="156" y="256" on="1"/>
        <pt x="156" y="0" on="1"/>
        <pt x="66" y="0" on="1"/>
      </contour>
      <contour>
        <pt x="227" y="-53" on="1"/>
        <pt x="318" y="-53" on="1"/>
        <pt x="257" y="-172" on="1"/>
        <pt x="186" y="-172" on="1"/>
      </contour>
    </TTGlyph>
    <TTGlyph name="L" xMin="70" yMin="0" xMax="409" yMax="740">
      <contour>
        <pt x="70" y="740" on="1"/>
        <pt x="164" y="740" on="1"/>
        <pt x="164" y="82" on="1"/>
        <pt x="409" y="82" on="1"/>
        <pt x="409" y="0" on="1"/>
        <pt x="70" y="0" on="1"/>
      </contour>
    </TTGlyph>
    <TTGlyph name="L.sc" xMin="66" yMin="0" xMax="374" yMax="577">
      <contour>
        <pt x="66" y="577" on="1"/>
        <pt x="156" y="577" on="1"/>
        <pt x="156" y="77" on="1"/>
        <pt x="374" y="77" on="1"/>
        <pt x="374" y="0" on="1"/>
        <pt x="66" y="0" on="1"/>
      </contour>
    </TTGlyph>
    <TTGlyph name="Lacute" xMin="70" yMin="0" xMax="409" yMax="939">
      <contour>
        <pt x="89" y="792" on="1"/>
        <pt x="161" y="939" on="1"/>
        <pt x="258" y="939" on="1"/>
        <pt x="159" y="786" on="1"/>
      </contour>
      <contour>
        <pt x="70" y="740" on="1"/>
        <pt x="164" y="740" on="1"/>
        <pt x="164" y="82" on="1"/>
        <pt x="409" y="82" on="1"/>
        <pt x="409" y="0" on="1"/>
        <pt x="70" y="0" on="1"/>
      </contour>
    </TTGlyph>
    <TTGlyph name="Lacute.sc" xMin="66" yMin="0" xMax="374" yMax="742">
      <contour>
        <pt x="66" y="577" on="1"/>
        <pt x="156" y="577" on="1"/>
        <pt x="156" y="77" on="1"/>
        <pt x="374" y="77" on="1"/>
        <pt x="374" y="0" on="1"/>
        <pt x="66" y="0" on="1"/>
      </contour>
      <contour>
        <pt x="83" y="620" on="1"/>
        <pt x="146" y="742" on="1"/>
        <pt x="238" y="742" on="1"/>
        <pt x="149" y="615" on="1"/>
      </contour>
    </TTGlyph>
    <TTGlyph name="Lcaron" xMin="70" yMin="0" xMax="413" yMax="765">
      <contour>
        <pt x="336" y="765" on="1"/>
        <pt x="413" y="765" on="1"/>
        <pt x="383" y="537" on="1"/>
        <pt x="336" y="537" on="1"/>
      </contour>
      <contour>
        <pt x="70" y="740" on="1"/>
        <pt x="164" y="740" on="1"/>
        <pt x="164" y="82" on="1"/>
        <pt x="409" y="82" on="1"/>
        <pt x="409" y="0" on="1"/>
        <pt x="70" y="0" on="1"/>
      </contour>
    </TTGlyph>
    <TTGlyph name="Lcaron.sc" xMin="67" yMin="0" xMax="380" yMax="604">
      <contour>
        <pt x="67" y="577" on="1"/>
        <pt x="156" y="577" on="1"/>
        <pt x="156" y="77" on="1"/>
        <pt x="374" y="77" on="1"/>
        <pt x="374" y="0" on="1"/>
        <pt x="67" y="0" on="1"/>
      </contour>
      <contour>
        <pt x="307" y="604" on="1"/>
        <pt x="380" y="604" on="1"/>
        <pt x="352" y="427" on="1"/>
        <pt x="307" y="427" on="1"/>
      </contour>
    </TTGlyph>
    <TTGlyph name="Lcommaaccent" xMin="70" yMin="-220" xMax="409" yMax="740">
      <contour>
        <pt x="203" y="-67" on="1"/>
        <pt x="298" y="-67" on="1"/>
        <pt x="230" y="-220" on="1"/>
        <pt x="156" y="-220" on="1"/>
      </contour>
      <contour>
        <pt x="70" y="740" on="1"/>
        <pt x="164" y="740" on="1"/>
        <pt x="164" y="82" on="1"/>
        <pt x="409" y="82" on="1"/>
        <pt x="409" y="0" on="1"/>
        <pt x="70" y="0" on="1"/>
      </contour>
    </TTGlyph>
    <TTGlyph name="Lcommaaccent.sc" xMin="66" yMin="-172" xMax="374" yMax="577">
      <contour>
        <pt x="66" y="577" on="1"/>
        <pt x="156" y="577" on="1"/>
        <pt x="156" y="77" on="1"/>
        <pt x="374" y="77" on="1"/>
        <pt x="374" y="0" on="1"/>
        <pt x="66" y="0" on="1"/>
      </contour>
      <contour>
        <pt x="182" y="-53" on="1"/>
        <pt x="273" y="-53" on="1"/>
        <pt x="213" y="-172" on="1"/>
        <pt x="142" y="-172" on="1"/>
      </contour>
    </TTGlyph>
    <TTGlyph name="Ldot" xMin="70" yMin="0" xMax="409" yMax="740">
      <contour>
        <pt x="70" y="740" on="1"/>
        <pt x="164" y="740" on="1"/>
        <pt x="164" y="82" on="1"/>
        <pt x="409" y="82" on="1"/>
        <pt x="409" y="0" on="1"/>
        <pt x="70" y="0" on="1"/>
      </contour>
      <contour>
        <pt x="327" y="314" on="1"/>
        <pt x="299" y="314" on="0"/>
        <pt x="271" y="340" on="0"/>
        <pt x="271" y="370" on="1"/>
        <pt x="271" y="400" on="0"/>
        <pt x="299" y="426" on="0"/>
        <pt x="327" y="426" on="1"/>
        <pt x="385" y="426" on="0"/>
        <pt x="385" y="370" on="1"/>
        <pt x="385" y="314" on="0"/>
      </contour>
    </TTGlyph>
    <TTGlyph name="Ldot.sc" xMin="66" yMin="0" xMax="374" yMax="577">
      <contour>
        <pt x="66" y="577" on="1"/>
        <pt x="156" y="577" on="1"/>
        <pt x="156" y="77" on="1"/>
        <pt x="374" y="77" on="1"/>
        <pt x="374" y="0" on="1"/>
        <pt x="66" y="0" on="1"/>
      </contour>
      <contour>
        <pt x="303" y="238" on="1"/>
        <pt x="251" y="238" on="0"/>
        <pt x="251" y="290" on="1"/>
        <pt x="251" y="340" on="0"/>
        <pt x="303" y="340" on="1"/>
        <pt x="329" y="340" on="0"/>
        <pt x="357" y="317" on="0"/>
        <pt x="357" y="290" on="1"/>
        <pt x="357" y="238" on="0"/>
      </contour>
    </TTGlyph>
    <TTGlyph name="Lslash" xMin="10" yMin="0" xMax="430" yMax="740">
      <contour>
        <pt x="10" y="303" on="1"/>
        <pt x="91" y="365" on="1"/>
        <pt x="91" y="740" on="1"/>
        <pt x="185" y="740" on="1"/>
        <pt x="185" y="436" on="1"/>
        <pt x="285" y="513" on="1"/>
        <pt x="285" y="432" on="1"/>
        <pt x="185" y="355" on="1"/>
        <pt x="185" y="82" on="1"/>
        <pt x="430" y="82" on="1"/>
        <pt x="430" y="0" on="1"/>
        <pt x="91" y="0" on="1"/>
        <pt x="91" y="284" on="1"/>
        <pt x="10" y="222" on="1"/>
      </contour>
    </TTGlyph>
    <TTGlyph name="Lslash.sc" xMin="16" yMin="0" xMax="392" yMax="577">
      <contour>
        <pt x="16" y="247" on="1"/>
        <pt x="85" y="297" on="1"/>
        <pt x="85" y="577" on="1"/>
        <pt x="176" y="577" on="1"/>
        <pt x="176" y="345" on="1"/>
        <pt x="264" y="407" on="1"/>
        <pt x="264" y="335" on="1"/>
        <pt x="176" y="273" on="1"/>
        <pt x="176" y="77" on="1"/>
        <pt x="392" y="77" on="1"/>
        <pt x="392" y="0" on="1"/>
        <pt x="85" y="0" on="1"/>
        <pt x="85" y="224" on="1"/>
        <pt x="16" y="174" on="1"/>
      </contour>
    </TTGlyph>
    <TTGlyph name="M" xMin="70" yMin="0" xMax="742" yMax="740">
      <contour>
        <pt x="70" y="740" on="1"/>
        <pt x="201" y="740" on="1"/>
        <pt x="374" y="256" on="1"/>
        <pt x="402" y="150" on="1"/>
        <pt x="409" y="150" on="1"/>
        <pt x="438" y="256" on="1"/>
        <pt x="611" y="740" on="1"/>
        <pt x="742" y="740" on="1"/>
        <pt x="742" y="0" on="1"/>
        <pt x="652" y="0" on="1"/>
        <pt x="652" y="599" on="1"/>
        <pt x="647" y="599" on="1"/>
        <pt x="613" y="490" on="1"/>
        <pt x="449" y="35" on="1"/>
        <pt x="361" y="35" on="1"/>
        <pt x="197" y="490" on="1"/>
        <pt x="163" y="599" on="1"/>
        <pt x="158" y="599" on="1"/>
        <pt x="158" y="0" on="1"/>
        <pt x="70" y="0" on="1"/>
      </contour>
    </TTGlyph>
    <TTGlyph name="M.sc" xMin="66" yMin="0" xMax="667" yMax="577">
      <contour>
        <pt x="66" y="577" on="1"/>
        <pt x="191" y="577" on="1"/>
        <pt x="339" y="213" on="1"/>
        <pt x="363" y="137" on="1"/>
        <pt x="369" y="137" on="1"/>
        <pt x="394" y="213" on="1"/>
        <pt x="542" y="577" on="1"/>
        <pt x="667" y="577" on="1"/>
        <pt x="667" y="0" on="1"/>
        <pt x="582" y="0" on="1"/>
        <pt x="582" y="457" on="1"/>
        <pt x="577" y="457" on="1"/>
        <pt x="541" y="360" on="1"/>
        <pt x="407" y="28" on="1"/>
        <pt x="325" y="28" on="1"/>
        <pt x="191" y="360" on="1"/>
        <pt x="156" y="457" on="1"/>
        <pt x="151" y="457" on="1"/>
        <pt x="151" y="0" on="1"/>
        <pt x="66" y="0" on="1"/>
      </contour>
    </TTGlyph>
    <TTGlyph name="N" xMin="70" yMin="0" xMax="589" yMax="740">
      <contour>
        <pt x="70" y="740" on="1"/>
        <pt x="155" y="740" on="1"/>
        <pt x="454" y="249" on="1"/>
        <pt x="496" y="167" on="1"/>
        <pt x="503" y="167" on="1"/>
        <pt x="503" y="740" on="1"/>
        <pt x="589" y="740" on="1"/>
        <pt x="589" y="0" on="1"/>
        <pt x="503" y="0" on="1"/>
        <pt x="205" y="489" on="1"/>
        <pt x="162" y="575" on="1"/>
        <pt x="155" y="574" on="1"/>
        <pt x="155" y="0" on="1"/>
        <pt x="70" y="0" on="1"/>
      </contour>
    </TTGlyph>
    <TTGlyph name="N.sc" xMin="66" yMin="0" xMax="529" yMax="577">
      <contour>
        <pt x="66" y="577" on="1"/>
        <pt x="145" y="577" on="1"/>
        <pt x="400" y="213" on="1"/>
        <pt x="441" y="147" on="1"/>
        <pt x="447" y="148" on="1"/>
        <pt x="447" y="577" on="1"/>
        <pt x="529" y="577" on="1"/>
        <pt x="529" y="0" on="1"/>
        <pt x="450" y="0" on="1"/>
        <pt x="196" y="365" on="1"/>
        <pt x="154" y="430" on="1"/>
        <pt x="148" y="430" on="1"/>
        <pt x="148" y="0" on="1"/>
        <pt x="66" y="0" on="1"/>
      </contour>
    </TTGlyph>
    <TTGlyph name="Nacute" xMin="70" yMin="0" xMax="589" yMax="939">
      <contour>
        <pt x="289" y="792" on="1"/>
        <pt x="361" y="939" on="1"/>
        <pt x="458" y="939" on="1"/>
        <pt x="359" y="786" on="1"/>
      </contour>
      <contour>
        <pt x="70" y="740" on="1"/>
        <pt x="155" y="740" on="1"/>
        <pt x="454" y="249" on="1"/>
        <pt x="496" y="167" on="1"/>
        <pt x="503" y="167" on="1"/>
        <pt x="503" y="740" on="1"/>
        <pt x="589" y="740" on="1"/>
        <pt x="589" y="0" on="1"/>
        <pt x="503" y="0" on="1"/>
        <pt x="205" y="489" on="1"/>
        <pt x="162" y="575" on="1"/>
        <pt x="155" y="574" on="1"/>
        <pt x="155" y="0" on="1"/>
        <pt x="70" y="0" on="1"/>
      </contour>
    </TTGlyph>
    <TTGlyph name="Nacute.sc" xMin="66" yMin="0" xMax="529" yMax="742">
      <contour>
        <pt x="66" y="577" on="1"/>
        <pt x="145" y="577" on="1"/>
        <pt x="400" y="213" on="1"/>
        <pt x="441" y="147" on="1"/>
        <pt x="447" y="148" on="1"/>
        <pt x="447" y="577" on="1"/>
        <pt x="529" y="577" on="1"/>
        <pt x="529" y="0" on="1"/>
        <pt x="450" y="0" on="1"/>
        <pt x="196" y="365" on="1"/>
        <pt x="154" y="430" on="1"/>
        <pt x="148" y="430" on="1"/>
        <pt x="148" y="0" on="1"/>
        <pt x="66" y="0" on="1"/>
      </contour>
      <contour>
        <pt x="258" y="620" on="1"/>
        <pt x="322" y="742" on="1"/>
        <pt x="413" y="742" on="1"/>
        <pt x="325" y="615" on="1"/>
      </contour>
    </TTGlyph>
    <TTGlyph name="Ncaron" xMin="70" yMin="0" xMax="589" yMax="938">
      <contour>
        <pt x="195" y="938" on="1"/>
        <pt x="334" y="866" on="1"/>
        <pt x="474" y="938" on="1"/>
        <pt x="474" y="866" on="1"/>
        <pt x="335" y="794" on="1"/>
        <pt x="195" y="866" on="1"/>
      </contour>
      <contour>
        <pt x="70" y="740" on="1"/>
        <pt x="155" y="740" on="1"/>
        <pt x="454" y="249" on="1"/>
        <pt x="496" y="167" on="1"/>
        <pt x="503" y="167" on="1"/>
        <pt x="503" y="740" on="1"/>
        <pt x="589" y="740" on="1"/>
        <pt x="589" y="0" on="1"/>
        <pt x="503" y="0" on="1"/>
        <pt x="205" y="489" on="1"/>
        <pt x="162" y="575" on="1"/>
        <pt x="155" y="574" on="1"/>
        <pt x="155" y="0" on="1"/>
        <pt x="70" y="0" on="1"/>
      </contour>
    </TTGlyph>
    <TTGlyph name="Ncaron.sc" xMin="66" yMin="0" xMax="529" yMax="740">
      <contour>
        <pt x="66" y="577" on="1"/>
        <pt x="145" y="577" on="1"/>
        <pt x="400" y="213" on="1"/>
        <pt x="441" y="147" on="1"/>
        <pt x="447" y="148" on="1"/>
        <pt x="447" y="577" on="1"/>
        <pt x="529" y="577" on="1"/>
        <pt x="529" y="0" on="1"/>
        <pt x="450" y="0" on="1"/>
        <pt x="196" y="365" on="1"/>
        <pt x="154" y="430" on="1"/>
        <pt x="148" y="430" on="1"/>
        <pt x="148" y="0" on="1"/>
        <pt x="66" y="0" on="1"/>
      </contour>
      <contour>
        <pt x="176" y="675" on="1"/>
        <pt x="176" y="740" on="1"/>
        <pt x="302" y="684" on="1"/>
        <pt x="428" y="740" on="1"/>
        <pt x="428" y="675" on="1"/>
        <pt x="303" y="618" on="1"/>
      </contour>
    </TTGlyph>
    <TTGlyph name="Ncommaaccent" xMin="70" yMin="-220" xMax="589" yMax="740">
      <contour>
        <pt x="307" y="-67" on="1"/>
        <pt x="402" y="-67" on="1"/>
        <pt x="334" y="-220" on="1"/>
        <pt x="260" y="-220" on="1"/>
      </contour>
      <contour>
        <pt x="70" y="740" on="1"/>
        <pt x="155" y="740" on="1"/>
        <pt x="454" y="249" on="1"/>
        <pt x="496" y="167" on="1"/>
        <pt x="503" y="167" on="1"/>
        <pt x="503" y="740" on="1"/>
        <pt x="589" y="740" on="1"/>
        <pt x="589" y="0" on="1"/>
        <pt x="503" y="0" on="1"/>
        <pt x="205" y="489" on="1"/>
        <pt x="162" y="575" on="1"/>
        <pt x="155" y="574" on="1"/>
        <pt x="155" y="0" on="1"/>
        <pt x="70" y="0" on="1"/>
      </contour>
    </TTGlyph>
    <TTGlyph name="Ncommaaccent.sc" xMin="66" yMin="-172" xMax="529" yMax="577">
      <contour>
        <pt x="66" y="577" on="1"/>
        <pt x="145" y="577" on="1"/>
        <pt x="400" y="213" on="1"/>
        <pt x="441" y="147" on="1"/>
        <pt x="447" y="148" on="1"/>
        <pt x="447" y="577" on="1"/>
        <pt x="529" y="577" on="1"/>
        <pt x="529" y="0" on="1"/>
        <pt x="450" y="0" on="1"/>
        <pt x="196" y="365" on="1"/>
        <pt x="154" y="430" on="1"/>
        <pt x="148" y="430" on="1"/>
        <pt x="148" y="0" on="1"/>
        <pt x="66" y="0" on="1"/>
      </contour>
      <contour>
        <pt x="272" y="-53" on="1"/>
        <pt x="363" y="-53" on="1"/>
        <pt x="303" y="-172" on="1"/>
        <pt x="231" y="-172" on="1"/>
      </contour>
    </TTGlyph>
    <TTGlyph name="Ndotaccent" xMin="70" yMin="0" xMax="589" yMax="911">
      <contour>
        <pt x="328" y="799" on="1"/>
        <pt x="271" y="799" on="0"/>
        <pt x="271" y="854" on="1"/>
        <pt x="271" y="884" on="0"/>
        <pt x="300" y="911" on="0"/>
        <pt x="328" y="911" on="1"/>
        <pt x="386" y="911" on="0"/>
        <pt x="386" y="854" on="1"/>
        <pt x="386" y="825" on="0"/>
        <pt x="356" y="799" on="0"/>
      </contour>
      <contour>
        <pt x="70" y="740" on="1"/>
        <pt x="155" y="740" on="1"/>
        <pt x="454" y="249" on="1"/>
        <pt x="496" y="167" on="1"/>
        <pt x="503" y="167" on="1"/>
        <pt x="503" y="740" on="1"/>
        <pt x="589" y="740" on="1"/>
        <pt x="589" y="0" on="1"/>
        <pt x="503" y="0" on="1"/>
        <pt x="205" y="489" on="1"/>
        <pt x="162" y="575" on="1"/>
        <pt x="155" y="574" on="1"/>
        <pt x="155" y="0" on="1"/>
        <pt x="70" y="0" on="1"/>
      </contour>
    </TTGlyph>
    <TTGlyph name="Ndotaccent.sc" xMin="66" yMin="0" xMax="529" yMax="725">
      <contour>
        <pt x="66" y="577" on="1"/>
        <pt x="145" y="577" on="1"/>
        <pt x="400" y="213" on="1"/>
        <pt x="441" y="147" on="1"/>
        <pt x="447" y="148" on="1"/>
        <pt x="447" y="577" on="1"/>
        <pt x="529" y="577" on="1"/>
        <pt x="529" y="0" on="1"/>
        <pt x="450" y="0" on="1"/>
        <pt x="196" y="365" on="1"/>
        <pt x="154" y="430" on="1"/>
        <pt x="148" y="430" on="1"/>
        <pt x="148" y="0" on="1"/>
        <pt x="66" y="0" on="1"/>
      </contour>
      <contour>
        <pt x="297" y="623" on="1"/>
        <pt x="270" y="623" on="0"/>
        <pt x="243" y="647" on="0"/>
        <pt x="243" y="675" on="1"/>
        <pt x="243" y="725" on="0"/>
        <pt x="297" y="725" on="1"/>
        <pt x="350" y="725" on="0"/>
        <pt x="350" y="675" on="1"/>
        <pt x="350" y="647" on="0"/>
        <pt x="323" y="623" on="0"/>
      </contour>
    </TTGlyph>
    <TTGlyph name="Ntilde" xMin="70" yMin="0" xMax="589" yMax="924">
      <contour>
        <pt x="170" y="844" on="1"/>
        <pt x="190" y="880" on="0"/>
        <pt x="249" y="924" on="0"/>
        <pt x="278" y="924" on="1"/>
        <pt x="297" y="924" on="0"/>
        <pt x="331" y="911" on="0"/>
        <pt x="362" y="896" on="0"/>
        <pt x="394" y="883" on="0"/>
        <pt x="411" y="883" on="1"/>
        <pt x="444" y="883" on="0"/>
        <pt x="473" y="922" on="1"/>
        <pt x="498" y="901" on="1"/>
        <pt x="481" y="862" on="0"/>
        <pt x="423" y="818" on="0"/>
        <pt x="393" y="818" on="1"/>
        <pt x="374" y="818" on="0"/>
        <pt x="341" y="831" on="0"/>
        <pt x="310" y="846" on="0"/>
        <pt x="278" y="859" on="0"/>
        <pt x="260" y="859" on="1"/>
        <pt x="225" y="859" on="0"/>
        <pt x="193" y="821" on="1"/>
      </contour>
      <contour>
        <pt x="70" y="740" on="1"/>
        <pt x="155" y="740" on="1"/>
        <pt x="454" y="249" on="1"/>
        <pt x="496" y="167" on="1"/>
        <pt x="503" y="167" on="1"/>
        <pt x="503" y="740" on="1"/>
        <pt x="589" y="740" on="1"/>
        <pt x="589" y="0" on="1"/>
        <pt x="503" y="0" on="1"/>
        <pt x="205" y="489" on="1"/>
        <pt x="162" y="575" on="1"/>
        <pt x="155" y="574" on="1"/>
        <pt x="155" y="0" on="1"/>
        <pt x="70" y="0" on="1"/>
      </contour>
    </TTGlyph>
    <TTGlyph name="Ntilde.sc" xMin="66" yMin="0" xMax="529" yMax="729">
      <contour>
        <pt x="153" y="658" on="1"/>
        <pt x="172" y="691" on="0"/>
        <pt x="226" y="729" on="0"/>
        <pt x="252" y="729" on="1"/>
        <pt x="269" y="729" on="0"/>
        <pt x="299" y="719" on="0"/>
        <pt x="328" y="707" on="0"/>
        <pt x="357" y="697" on="0"/>
        <pt x="373" y="697" on="1"/>
        <pt x="402" y="697" on="0"/>
        <pt x="429" y="728" on="1"/>
        <pt x="450" y="711" on="1"/>
        <pt x="433" y="676" on="0"/>
        <pt x="381" y="637" on="0"/>
        <pt x="354" y="637" on="1"/>
        <pt x="337" y="637" on="0"/>
        <pt x="307" y="647" on="0"/>
        <pt x="279" y="660" on="0"/>
        <pt x="250" y="670" on="0"/>
        <pt x="234" y="670" on="1"/>
        <pt x="203" y="670" on="0"/>
        <pt x="173" y="639" on="1"/>
      </contour>
      <contour>
        <pt x="66" y="577" on="1"/>
        <pt x="145" y="577" on="1"/>
        <pt x="400" y="213" on="1"/>
        <pt x="441" y="147" on="1"/>
        <pt x="447" y="148" on="1"/>
        <pt x="447" y="577" on="1"/>
        <pt x="529" y="577" on="1"/>
        <pt x="529" y="0" on="1"/>
        <pt x="450" y="0" on="1"/>
        <pt x="196" y="365" on="1"/>
        <pt x="154" y="430" on="1"/>
        <pt x="148" y="430" on="1"/>
        <pt x="148" y="0" on="1"/>
        <pt x="66" y="0" on="1"/>
      </contour>
    </TTGlyph>
    <TTGlyph name="O" xMin="40" yMin="-10" xMax="585" yMax="750">
      <contour>
        <pt x="312" y="-10" on="1"/>
        <pt x="40" y="-10" on="0"/>
        <pt x="40" y="369" on="1"/>
        <pt x="40" y="562" on="0"/>
        <pt x="174" y="750" on="0"/>
        <pt x="312" y="750" on="1"/>
        <pt x="450" y="750" on="0"/>
        <pt x="585" y="562" on="0"/>
        <pt x="585" y="369" on="1"/>
        <pt x="585" y="-10" on="0"/>
      </contour>
      <contour>
        <pt x="312" y="72" on="1"/>
        <pt x="359" y="72" on="0"/>
        <pt x="426" y="105" on="0"/>
        <pt x="468" y="177" on="0"/>
        <pt x="488" y="290" on="0"/>
        <pt x="488" y="369" on="1"/>
        <pt x="488" y="527" on="0"/>
        <pt x="404" y="669" on="0"/>
        <pt x="312" y="669" on="1"/>
        <pt x="219" y="669" on="0"/>
        <pt x="137" y="528" on="0"/>
        <pt x="137" y="369" on="1"/>
        <pt x="137" y="290" on="0"/>
        <pt x="157" y="177" on="0"/>
        <pt x="199" y="105" on="0"/>
        <pt x="265" y="72" on="0"/>
      </contour>
    </TTGlyph>
    <TTGlyph name="O.sc" xMin="39" yMin="-8" xMax="526" yMax="585">
      <contour>
        <pt x="282" y="-8" on="1"/>
        <pt x="39" y="-8" on="0"/>
        <pt x="39" y="288" on="1"/>
        <pt x="39" y="585" on="0"/>
        <pt x="282" y="585" on="1"/>
        <pt x="406" y="585" on="0"/>
        <pt x="526" y="439" on="0"/>
        <pt x="526" y="288" on="1"/>
        <pt x="526" y="-8" on="0"/>
      </contour>
      <contour>
        <pt x="282" y="69" on="1"/>
        <pt x="362" y="69" on="0"/>
        <pt x="434" y="170" on="0"/>
        <pt x="434" y="288" on="1"/>
        <pt x="434" y="406" on="0"/>
        <pt x="363" y="509" on="0"/>
        <pt x="282" y="509" on="1"/>
        <pt x="242" y="509" on="0"/>
        <pt x="185" y="485" on="0"/>
        <pt x="148" y="432" on="0"/>
        <pt x="131" y="348" on="0"/>
        <pt x="131" y="288" on="1"/>
        <pt x="131" y="229" on="0"/>
        <pt x="148" y="145" on="0"/>
        <pt x="185" y="93" on="0"/>
        <pt x="242" y="69" on="0"/>
      </contour>
    </TTGlyph>
    <TTGlyph name="OE" xMin="40" yMin="-5" xMax="783" yMax="745">
      <contour>
        <pt x="319" y="-5" on="1"/>
        <pt x="181" y="-5" on="0"/>
        <pt x="40" y="181" on="0"/>
        <pt x="40" y="369" on="1"/>
        <pt x="40" y="558" on="0"/>
        <pt x="182" y="745" on="0"/>
        <pt x="319" y="745" on="1"/>
        <pt x="341" y="745" on="0"/>
        <pt x="392" y="742" on="0"/>
        <pt x="410" y="740" on="1"/>
        <pt x="774" y="740" on="1"/>
        <pt x="774" y="658" on="1"/>
        <pt x="502" y="658" on="1"/>
        <pt x="502" y="416" on="1"/>
        <pt x="750" y="416" on="1"/>
        <pt x="750" y="338" on="1"/>
        <pt x="502" y="338" on="1"/>
        <pt x="502" y="82" on="1"/>
        <pt x="783" y="82" on="1"/>
        <pt x="783" y="0" on="1"/>
        <pt x="410" y="0" on="1"/>
        <pt x="392" y="-3" on="0"/>
        <pt x="341" y="-5" on="0"/>
      </contour>
      <contour>
        <pt x="329" y="77" on="1"/>
        <pt x="346" y="77" on="0"/>
        <pt x="390" y="79" on="0"/>
        <pt x="407" y="82" on="1"/>
        <pt x="407" y="657" on="1"/>
        <pt x="389" y="660" on="0"/>
        <pt x="345" y="663" on="0"/>
        <pt x="328" y="663" on="1"/>
        <pt x="276" y="663" on="0"/>
        <pt x="203" y="630" on="0"/>
        <pt x="156" y="558" on="0"/>
        <pt x="135" y="447" on="0"/>
        <pt x="135" y="369" on="1"/>
        <pt x="135" y="291" on="0"/>
        <pt x="156" y="180" on="0"/>
        <pt x="202" y="109" on="0"/>
        <pt x="276" y="77" on="0"/>
      </contour>
    </TTGlyph>
</ttFont>
